<svg width="170" height="27" viewBox="0 0 170 27" fill="none" xmlns="http://www.w3.org/2000/svg">
<path d="M10.8848 7.64975C11.2694 7.65319 11.4466 7.50509 11.5704 7.13311C12.1506 5.38169 11.9466 5.93449 12.5637 4.19686C12.8914 3.38917 13.4901 1.96496 13.8462 1.13317C14.0502 0.656133 14.1874 0 14.8378 0C15.2274 0 15.5435 0.864515 15.6605 1.13833C16.1438 2.27323 17.3561 6.63713 17.5986 7.4827C17.7876 8.13883 17.8411 8.33516 18.5099 8.39888C19.8761 8.53148 24.1703 8.70714 24.9211 8.97752C25.5348 9.19795 25.707 9.89025 25.3391 10.4396C24.9211 11.063 21.1118 15.3787 20.5115 16.0521C20.2206 16.3793 20.1186 16.6858 20.244 17.1301C20.6938 18.7076 21.6319 22.8063 21.6821 23.2678C21.7122 23.5399 21.7372 23.8138 21.7857 24.0841C21.8342 24.3562 21.9362 24.6197 21.963 24.8935C22.0048 25.3223 22.0616 25.7718 21.5583 26.0095C21.0634 26.2437 20.4848 26.1679 20.1052 25.808C19.5634 25.2948 19.0383 24.7558 18.4598 24.2873C17.6989 23.6725 16.8896 23.1249 16.1104 22.5342C15.4365 22.0227 14.786 21.4785 14.1071 20.9739C13.2509 20.3368 12.8379 20.2627 11.8747 21.0187C11.2493 21.5095 10.6189 21.9952 9.97011 22.4481C8.65244 23.3677 5.36827 25.7443 5.02381 25.9854C4.38671 26.4297 3.40012 25.9406 3.47871 25.1553C3.55396 24.4027 4.96862 21.1961 5.3967 20.3213C5.86324 19.3637 6.31807 18.3993 6.78461 17.4418C7.05049 16.8959 6.88996 16.3483 6.46188 15.9384C5.54385 15.0567 4.66094 14.1336 3.77302 13.2174C3.32487 12.7542 2.89178 12.2737 2.4637 11.7898C1.73296 10.9631 1.00054 10.14 0.29321 9.29095C-0.233527 8.65892 -0.0295209 8.0975 0.736337 7.84263C1.85837 7.46892 5.54385 7.67041 6.24951 7.67041C6.24951 7.65663 9.3397 7.63253 10.8848 7.64975Z" fill="url(#paint0_linear)"/>
<path d="M47.002 7.64975C47.3866 7.65319 47.5638 7.50509 47.6876 7.13311C48.2678 5.38169 48.0638 5.93449 48.6809 4.19686C49.0086 3.38917 49.6072 1.96496 49.9634 1.13317C50.1674 0.656133 50.3045 0 50.955 0C51.3446 0 51.6607 0.864515 51.7777 1.13833C52.261 2.27323 53.4733 6.63713 53.7158 7.4827C53.9047 8.13883 53.9583 8.33516 54.6271 8.39888C55.9933 8.53148 60.2875 8.70714 61.0383 8.97752C61.6519 9.19795 61.8242 9.89025 61.4563 10.4396C61.0383 11.063 57.229 15.3787 56.6287 16.0521C56.3378 16.3793 56.2358 16.6858 56.3612 17.1301C56.811 18.7076 57.7491 22.8063 57.7992 23.2678C57.8293 23.5399 57.8544 23.8138 57.9029 24.0841C57.9514 24.3562 58.0534 24.6197 58.0802 24.8935C58.122 25.3223 58.1788 25.7718 57.6755 26.0095C57.1805 26.2437 56.602 26.1679 56.2224 25.808C55.6806 25.2948 55.1555 24.7558 54.577 24.2873C53.8161 23.6725 53.0068 23.1249 52.2275 22.5342C51.5537 22.0227 50.9032 21.4785 50.2243 20.9739C49.3681 20.3368 48.9551 20.2627 47.9919 21.0187C47.3665 21.5095 46.7361 21.9952 46.0873 22.4481C44.7696 23.3677 41.4855 25.7443 41.141 25.9854C40.5039 26.4297 39.5173 25.9406 39.5959 25.1553C39.6711 24.4027 41.0858 21.1961 41.5139 20.3213C41.9804 19.3637 42.4353 18.3993 42.9018 17.4418C43.1677 16.8959 43.0071 16.3483 42.5791 15.9384C41.661 15.0567 40.7781 14.1336 39.8902 13.2174C39.4421 12.7542 39.009 12.2737 38.5809 11.7898C37.8501 10.9631 37.1177 10.14 36.4104 9.29095C35.8837 8.65892 36.0877 8.0975 36.8535 7.84263C37.9756 7.46892 41.661 7.67041 42.3667 7.67041C42.3667 7.65663 45.4569 7.63253 47.002 7.64975Z" fill="url(#paint1_linear)"/>
<path d="M83.1192 7.64975C83.5038 7.65319 83.681 7.50509 83.8048 7.13311C84.385 5.38169 84.181 5.93449 84.798 4.19686C85.1258 3.38917 85.7244 1.96496 86.0806 1.13317C86.2846 0.656133 86.4217 0 87.0722 0C87.4618 0 87.7779 0.864515 87.8949 1.13833C88.3782 2.27323 89.5905 6.63713 89.833 7.4827C90.0219 8.13883 90.0754 8.33516 90.7443 8.39888C92.1105 8.53148 96.4046 8.70714 97.1554 8.97752C97.7691 9.19795 97.9414 9.89025 97.5735 10.4396C97.1554 11.063 93.3462 15.3787 92.7459 16.0521C92.4549 16.3793 92.3529 16.6858 92.4784 17.1301C92.9282 18.7076 93.8663 22.8063 93.9164 23.2678C93.9465 23.5399 93.9716 23.8138 94.0201 24.0841C94.0686 24.3562 94.1706 24.6197 94.1974 24.8935C94.2392 25.3223 94.296 25.7718 93.7927 26.0095C93.2977 26.2437 92.7192 26.1679 92.3396 25.808C91.7978 25.2948 91.2727 24.7558 90.6941 24.2873C89.9333 23.6725 89.124 23.1249 88.3447 22.5342C87.6708 22.0227 87.0204 21.4785 86.3415 20.9739C85.4853 20.3368 85.0723 20.2627 84.1091 21.0187C83.4837 21.5095 82.8533 21.9952 82.2045 22.4481C80.8868 23.3677 77.6026 25.7443 77.2582 25.9854C76.6211 26.4297 75.6345 25.9406 75.7131 25.1553C75.7883 24.4027 77.203 21.1961 77.6311 20.3213C78.0976 19.3637 78.5524 18.3993 79.019 17.4418C79.2849 16.8959 79.1243 16.3483 78.6963 15.9384C77.7782 15.0567 76.8953 14.1336 76.0074 13.2174C75.5592 12.7542 75.1262 12.2737 74.6981 11.7898C73.9673 10.9631 73.2349 10.14 72.5276 9.29095C72.0008 8.65892 72.2049 8.0975 72.9707 7.84263C74.0927 7.46892 77.7782 7.67041 78.4839 7.67041C78.4839 7.65663 81.5741 7.63253 83.1192 7.64975Z" fill="url(#paint2_linear)"/>
<path d="M119.236 7.64975C119.621 7.65319 119.798 7.50509 119.922 7.13311C120.502 5.38169 120.298 5.93449 120.915 4.19686C121.243 3.38917 121.842 1.96496 122.198 1.13317C122.402 0.656133 122.539 0 123.189 0C123.579 0 123.895 0.864515 124.012 1.13833C124.495 2.27323 125.708 6.63713 125.95 7.4827C126.139 8.13883 126.193 8.33516 126.861 8.39888C128.228 8.53148 132.522 8.70714 133.273 8.97752C133.886 9.19795 134.059 9.89025 133.691 10.4396C133.273 11.063 129.463 15.3787 128.863 16.0521C128.572 16.3793 128.47 16.6858 128.596 17.1301C129.045 18.7076 129.983 22.8063 130.034 23.2678C130.064 23.5399 130.089 23.8138 130.137 24.0841C130.186 24.3562 130.288 24.6197 130.315 24.8935C130.356 25.3223 130.413 25.7718 129.91 26.0095C129.415 26.2437 128.836 26.1679 128.457 25.808C127.915 25.2948 127.39 24.7558 126.811 24.2873C126.05 23.6725 125.241 23.1249 124.462 22.5342C123.788 22.0227 123.138 21.4785 122.459 20.9739C121.602 20.3368 121.189 20.2627 120.226 21.0187C119.601 21.5095 118.97 21.9952 118.322 22.4481C117.004 23.3677 113.72 25.7443 113.375 25.9854C112.738 26.4297 111.752 25.9406 111.83 25.1553C111.906 24.4027 113.32 21.1961 113.748 20.3213C114.215 19.3637 114.67 18.3993 115.136 17.4418C115.402 16.8959 115.242 16.3483 114.813 15.9384C113.895 15.0567 113.013 14.1336 112.125 13.2174C111.676 12.7542 111.243 12.2737 110.815 11.7898C110.085 10.9631 109.352 10.14 108.645 9.29095C108.118 8.65892 108.322 8.0975 109.088 7.84263C110.21 7.46892 113.895 7.67041 114.601 7.67041C114.601 7.65663 117.691 7.63253 119.236 7.64975Z" fill="url(#paint3_linear)"/>
<path d="M155.354 7.64975C155.738 7.65319 155.915 7.50509 156.039 7.13311C156.619 5.38169 156.415 5.93449 157.032 4.19686C157.36 3.38917 157.959 1.96496 158.315 1.13317C158.519 0.656133 158.656 0 159.307 0C159.696 0 160.012 0.864515 160.129 1.13833C160.613 2.27323 161.825 6.63713 162.067 7.4827C162.256 8.13883 162.31 8.33516 162.979 8.39888C164.345 8.53148 168.639 8.70714 169.39 8.97752C170.004 9.19795 170.176 9.89025 169.808 10.4396C169.39 11.063 165.581 15.3787 164.98 16.0521C164.689 16.3793 164.587 16.6858 164.713 17.1301C165.163 18.7076 166.101 22.8063 166.151 23.2678C166.181 23.5399 166.206 23.8138 166.254 24.0841C166.303 24.3562 166.405 24.6197 166.432 24.8935C166.474 25.3223 166.53 25.7718 166.027 26.0095C165.532 26.2437 164.954 26.1679 164.574 25.808C164.032 25.2948 163.507 24.7558 162.929 24.2873C162.168 23.6725 161.358 23.1249 160.579 22.5342C159.905 22.0227 159.255 21.4785 158.576 20.9739C157.72 20.3368 157.307 20.2627 156.343 21.0187C155.718 21.5095 155.088 21.9952 154.439 22.4481C153.121 23.3677 149.837 25.7443 149.493 25.9854C148.855 26.4297 147.869 25.9406 147.947 25.1553C148.023 24.4027 149.437 21.1961 149.865 20.3213C150.332 19.3637 150.787 18.3993 151.253 17.4418C151.519 16.8959 151.359 16.3483 150.931 15.9384C150.013 15.0567 149.13 14.1336 148.242 13.2174C147.794 12.7542 147.361 12.2737 146.932 11.7898C146.202 10.9631 145.469 10.14 144.762 9.29095C144.235 8.65892 144.439 8.0975 145.205 7.84263C146.327 7.46892 150.013 7.67041 150.718 7.67041C150.718 7.65663 153.808 7.63253 155.354 7.64975Z" fill="url(#paint4_linear)"/>
<defs>
<linearGradient id="paint0_linear" x1="29.6799" y1="-3.44437" x2="-13.0694" y2="5.34163" gradientUnits="userSpaceOnUse">
<stop stop-color="#8942FF"/>
<stop offset="1" stop-color="#3AF3FF"/>
</linearGradient>
<linearGradient id="paint1_linear" x1="65.7971" y1="-3.44437" x2="23.0478" y2="5.34163" gradientUnits="userSpaceOnUse">
<stop stop-color="#8942FF"/>
<stop offset="1" stop-color="#3AF3FF"/>
</linearGradient>
<linearGradient id="paint2_linear" x1="101.914" y1="-3.44437" x2="59.165" y2="5.34163" gradientUnits="userSpaceOnUse">
<stop stop-color="#8942FF"/>
<stop offset="1" stop-color="#3AF3FF"/>
</linearGradient>
<linearGradient id="paint3_linear" x1="138.032" y1="-3.44437" x2="95.2822" y2="5.34163" gradientUnits="userSpaceOnUse">
<stop stop-color="#8942FF"/>
<stop offset="1" stop-color="#3AF3FF"/>
</linearGradient>
<linearGradient id="paint4_linear" x1="174.149" y1="-3.44437" x2="131.399" y2="5.34163" gradientUnits="userSpaceOnUse">
<stop stop-color="#8942FF"/>
<stop offset="1" stop-color="#3AF3FF"/>
</linearGradient>
</defs>
</svg>
