<svg width="149" height="142" viewBox="0 0 149 142" fill="none" xmlns="http://www.w3.org/2000/svg">
<path d="M62.5583 65.9771C77.456 50.743 53.3511 26.612 48.6671 6.85193C47.2831 6.86748 39.9758 14.3473 45.3035 22.3528C42.2667 22.4166 37.7944 27.9039 41.3158 33.6193C32.6145 42.1089 39.9336 49.2611 41.3275 50.3138C35.132 64.8715 53.8413 75.1452 62.5583 65.9771Z" fill="#CBDAEB"/>
<path d="M85.9144 79.8763C91.6125 59.3445 124.583 68.0803 144.024 62.2128C144.706 63.4176 141.904 73.4922 132.306 72.9027C133.775 75.5612 131.274 82.1837 124.563 82.0068C121.588 93.7939 111.729 91.0537 110.118 90.3765C100.637 103.042 82.3135 91.9905 85.9144 79.8763Z" fill="#CBDAEB"/>
<path d="M52.6802 54.5804C49.7849 51.7994 42.3774 48.3216 35.9101 56.6586" stroke="black" stroke-width="2"/>
<path d="M116.587 78.1775C114.592 81.661 108.462 87.0829 99.91 80.903" stroke="black" stroke-width="2"/>
<path d="M52.7484 95.3795L40.9889 104.236L37.2362 99.2533" stroke="black" stroke-width="2"/>
<path d="M61.6972 101.348L57.3043 115.399L63.258 117.26" stroke="black" stroke-width="2"/>
<rect x="76.2803" y="19.2786" width="56.5672" height="78.3483" rx="9" transform="rotate(33.9252 76.2803 19.2786)" fill="white"/>
<mask id="mask0" mask-type="alpha" maskUnits="userSpaceOnUse" x="31" y="19" width="93" height="98">
<rect x="76.0674" y="19.051" width="56.8898" height="79.6636" rx="8" transform="rotate(33.9252 76.0674 19.051)" fill="white"/>
</mask>
<g mask="url(#mask0)">
<rect x="76.2812" y="19.2808" width="56.8898" height="15.7298" transform="rotate(33.9252 76.2812 19.2808)" fill="#F15C5A"/>
</g>
<rect x="93.5435" y="28.4844" width="17.9652" height="3.49323" transform="rotate(33.9252 93.5435 28.4844)" fill="#383838"/>
<circle cx="76.1406" cy="53.4645" r="1.4971" transform="rotate(33.9252 76.1406 53.4645)" fill="#383838"/>
<circle cx="92.7041" cy="64.6054" r="1.4971" transform="rotate(33.9252 92.7041 64.6054)" fill="#383838"/>
<path d="M74.6392 65.085C73.5709 66.6731 71.5755 69.6399 75.0952 72.0072C78.6149 74.3746 80.7074 71.2635 81.6785 69.8197" stroke="black" stroke-width="2" stroke-linejoin="round"/>
<rect x="50.6055" y="69.9688" width="26.9478" height="2.49517" transform="rotate(33.9252 50.6055 69.9688)" fill="#C4C4C4"/>
<rect x="47.8203" y="74.1101" width="21.9575" height="2.49517" transform="rotate(33.9252 47.8203 74.1101)" fill="#C4C4C4"/>
</svg>
