<svg width="163" height="295" viewBox="0 0 163 295" fill="none" xmlns="http://www.w3.org/2000/svg">
<path fill-rule="evenodd" clip-rule="evenodd" d="M154.399 271.74C157.045 271.321 159.717 271.068 162.391 270.831C151.225 266.906 141.428 260.334 136.217 256.451C133.326 251.396 134.028 245.22 134.387 238.412C134.78 230.918 133.044 221.828 121.524 216.406C129.015 222.637 122.38 233.265 123.378 241.336C124.119 247.399 127.157 252.377 132.442 256.398L132.447 256.431C132.447 256.431 134.037 257.837 136.664 259.919C129.519 258.906 123.538 261.669 118.926 264.861C111.275 270.157 104.924 275.315 95.9071 272.659C105.499 278.131 114.244 279.02 122.38 275.163C128.629 272.197 133.623 264.282 140.456 262.822C144.309 265.663 149.222 268.989 154.399 271.74Z" fill="url(#paint0_linear)"/>
<path fill-rule="evenodd" clip-rule="evenodd" d="M68.2898 42.7045C73.2279 39.2516 78.0594 40.9258 83.7018 42.383C88.5014 43.6219 94.7355 43.7826 100.39 37.449C94.955 41.2139 89.2715 35.7257 83.8331 35.2491C78.2698 34.7614 73.2082 37.185 68.5032 42.3769C71.442 37.5945 70.7321 32.9907 69.3626 29.3566C67.3318 23.9436 65.1665 19.3698 68.5556 14.1992C63.229 19.3526 61.0121 24.5962 62.0209 30.1122C62.9644 35.3179 69.1026 40.3323 65.6864 45.898C66.7686 44.8168 67.6087 43.763 68.2898 42.7045Z" fill="url(#paint1_linear)"/>
<path fill-rule="evenodd" clip-rule="evenodd" d="M88.9045 18.5963C90.4894 12.9122 91.4837 7.84535 97.2396 5.37995C89.9587 6.73503 85.1045 9.91658 82.6365 15.1186C80.3159 20.0221 82.2147 27.6606 76.2089 30.4433C84.5663 28.7717 87.5781 23.3341 88.9045 18.5963Z" fill="url(#paint2_linear)"/>
<path fill-rule="evenodd" clip-rule="evenodd" d="M55.0257 65.4215C56.0413 64.0319 56.7981 62.6729 57.3865 61.3617C62.3866 56.529 68.2694 57.5322 75.0221 58.1383C80.7774 58.6566 87.9728 57.6903 93.2386 49.4539C87.7255 54.7197 80.1269 49.5417 73.7862 50.0121C67.2891 50.4942 61.9693 54.1658 57.5647 60.9223C59.9996 54.9513 58.2858 49.8781 55.9999 45.9944C52.618 40.2449 49.2075 35.4495 52.0889 28.9559C46.9736 35.7753 45.4598 42.1362 47.7122 48.1949C49.8283 53.9397 57.8556 58.4798 55.0257 65.4215Z" fill="url(#paint3_linear)"/>
<path fill-rule="evenodd" clip-rule="evenodd" d="M47.9799 85.8831C48.7184 84.4099 49.2401 83.0104 49.5619 81.6815C53.5672 76.3405 59.3508 76.3786 65.9349 75.914C71.5304 75.5295 78.2736 73.4781 81.9714 64.8921C77.5489 70.7161 69.4257 67.0105 63.4286 68.4338C57.2777 69.8854 52.7777 74.1829 49.6717 81.255C51.028 75.2493 48.5538 70.7092 45.74 67.3827C41.5563 62.4625 37.5149 58.4642 39.2049 51.8893C35.4209 59.1198 35.0135 65.3575 38.1449 70.7419C41.1084 75.8355 49.5526 78.8896 47.9799 85.8831Z" fill="url(#paint4_linear)"/>
<path fill-rule="evenodd" clip-rule="evenodd" d="M44.0463 108.224C44.5637 106.573 44.8548 105.048 44.9683 103.623C48.207 97.4299 54.2766 96.5014 61.1037 94.9094C66.8974 93.5579 73.5927 90.3155 75.9354 80.8191C72.3463 87.5844 63.1567 85.1278 57.133 87.6041C50.9607 90.1415 47.0058 95.3332 45.0218 103.174C45.3618 96.7345 41.9631 92.4534 38.4211 89.5179C33.1473 85.1414 28.2085 81.6844 28.801 74.6068C26.123 82.727 26.8281 89.2281 31.0806 94.2658C35.058 98.9988 44.4533 100.741 44.0463 108.224Z" fill="url(#paint5_linear)"/>
<path fill-rule="evenodd" clip-rule="evenodd" d="M44.1018 133.426C44.3616 131.588 44.3833 129.911 44.2497 128.365C46.5997 121.209 52.9997 119.156 60.0605 116.272C66.085 113.832 72.7038 109.221 73.463 98.6923C70.8487 106.521 60.4645 105.487 54.406 109.184C48.2017 112.958 44.8827 119.176 44.1906 127.869C43.369 120.958 38.899 116.997 34.5278 114.471C28.0397 110.729 22.0448 107.91 21.3895 100.259C20.0072 109.365 21.9552 116.188 27.4729 120.801C32.6721 125.168 43.1417 125.392 44.1018 133.426Z" fill="url(#paint6_linear)"/>
<path fill-rule="evenodd" clip-rule="evenodd" d="M47.9539 157.791C47.8966 155.946 47.6406 154.289 47.2344 152.794C48.3698 145.399 54.3666 142.359 60.9233 138.407C66.5014 135.039 72.3148 129.451 71.2775 118.997C70.0074 127.108 59.4876 127.755 54.0972 132.337C48.5686 137.046 46.3343 143.681 47.1072 152.312C45.1153 145.659 39.9808 142.485 35.2031 140.712C28.1026 138.084 21.6528 136.264 19.7028 128.862C19.8744 138.024 22.9809 144.405 29.2589 148.061C35.1896 151.512 45.6363 150.051 47.9539 157.791Z" fill="url(#paint7_linear)"/>
<path fill-rule="evenodd" clip-rule="evenodd" d="M34.3748 175.45C41.5106 178.132 52.7056 174.706 56.6926 182.685C56.2805 180.697 55.6769 178.947 54.9648 177.403C54.8207 169.192 60.8357 164.84 67.2641 159.414C72.7454 154.788 78.0754 147.703 74.9728 136.585C75.0971 145.577 63.6993 148.144 58.6455 154.062C53.4559 160.123 52.2563 167.701 54.7325 176.922C51.2867 170.061 45.0866 167.529 39.5152 166.455C31.2315 164.864 23.8383 164.039 20.3023 156.367C22.1966 166.252 26.7939 172.614 34.3748 175.45Z" fill="url(#paint8_linear)"/>
<path fill-rule="evenodd" clip-rule="evenodd" d="M43.5633 201.689C51.7211 203.308 63.1111 197.741 68.8591 205.498C68.0527 203.46 67.099 201.72 66.039 200.203C64.367 191.528 70.0302 185.86 75.9477 178.994C80.9841 173.137 85.3967 164.716 80.0384 153.448C81.8229 162.966 70.0513 167.655 65.707 174.808C61.2659 182.132 61.3418 190.372 65.6988 199.706C60.7516 193.039 53.6129 191.419 47.4359 191.249C38.2572 190.987 30.1481 191.392 24.9466 183.874C28.7976 194.03 34.899 199.976 43.5633 201.689Z" fill="url(#paint9_linear)"/>
<path fill-rule="evenodd" clip-rule="evenodd" d="M84.1832 224.335C83.0318 222.458 81.7893 220.904 80.4797 219.601C77.3425 211.35 82.0121 204.89 86.7208 197.201C90.7267 190.659 93.705 181.675 86.4503 171.483C89.8345 180.536 78.94 187.02 75.8367 194.737C72.6707 202.618 74.106 210.672 79.9825 219.115C73.9486 213.417 66.6149 212.983 60.4608 213.808C51.287 215.02 43.298 216.726 36.8503 210.17C42.4092 219.52 49.4902 224.363 58.3867 224.663C66.7667 224.922 77.1499 217.632 84.1832 224.335Z" fill="url(#paint10_linear)"/>
<path fill-rule="evenodd" clip-rule="evenodd" d="M102.431 240.418C100.961 238.767 99.4709 237.443 97.948 236.363C93.4318 228.78 96.9714 221.686 100.362 213.397C103.235 206.324 104.66 197.053 95.7212 188.209C100.619 196.555 90.8948 204.667 89.1077 212.729C87.2948 220.967 90.0991 228.644 97.3773 235.975C90.4117 231.358 83.042 232.118 77.0625 233.897C68.1362 236.558 60.5051 239.508 52.9788 234.109C60.1033 242.386 67.9548 246.008 76.851 244.866C85.211 243.788 94.2992 234.977 102.431 240.418Z" fill="url(#paint11_linear)"/>
<path fill-rule="evenodd" clip-rule="evenodd" d="M123.152 253.388C121.42 252.003 119.685 250.942 117.989 250.13C112.204 243.409 114.521 235.879 116.482 227.189C118.15 219.796 117.981 210.458 107.594 203.203C113.892 210.613 105.578 220.131 105.183 228.329C104.781 236.716 108.871 243.783 117.358 249.82C109.629 246.403 102.439 248.321 96.7831 251.031C88.3658 255.065 81.2529 259.201 72.8364 255.109C81.3291 262.1 89.7693 264.398 98.4164 261.854C106.59 259.448 114.124 249.341 123.152 253.388Z" fill="url(#paint12_linear)"/>
<defs>
<linearGradient id="paint0_linear" x1="162.432" y1="200.728" x2="57.4505" y2="242.481" gradientUnits="userSpaceOnUse">
<stop stop-color="#8942FF"/>
<stop offset="1" stop-color="#3AF3FF"/>
</linearGradient>
<linearGradient id="paint1_linear" x1="101.264" y1="3.865" x2="43.1142" y2="27.7748" gradientUnits="userSpaceOnUse">
<stop stop-color="#8942FF"/>
<stop offset="1" stop-color="#3AF3FF"/>
</linearGradient>
<linearGradient id="paint2_linear" x1="100.755" y1="1.94214" x2="62.0814" y2="18.2082" gradientUnits="userSpaceOnUse">
<stop stop-color="#8942FF"/>
<stop offset="1" stop-color="#3AF3FF"/>
</linearGradient>
<linearGradient id="paint3_linear" x1="95.516" y1="16.1031" x2="25.1243" y2="46.7152" gradientUnits="userSpaceOnUse">
<stop stop-color="#8942FF"/>
<stop offset="1" stop-color="#3AF3FF"/>
</linearGradient>
<linearGradient id="paint4_linear" x1="85.3778" y1="38.7182" x2="15.2743" y2="70.0872" gradientUnits="userSpaceOnUse">
<stop stop-color="#8942FF"/>
<stop offset="1" stop-color="#3AF3FF"/>
</linearGradient>
<linearGradient id="paint5_linear" x1="80.7814" y1="60.2653" x2="6.00306" y2="94.9568" gradientUnits="userSpaceOnUse">
<stop stop-color="#8942FF"/>
<stop offset="1" stop-color="#3AF3FF"/>
</linearGradient>
<linearGradient id="paint6_linear" x1="80.0398" y1="84.5774" x2="-0.565095" y2="123.701" gradientUnits="userSpaceOnUse">
<stop stop-color="#8942FF"/>
<stop offset="1" stop-color="#3AF3FF"/>
</linearGradient>
<linearGradient id="paint7_linear" x1="79.0395" y1="113.027" x2="0.387173" y2="153.224" gradientUnits="userSpaceOnUse">
<stop stop-color="#8942FF"/>
<stop offset="1" stop-color="#3AF3FF"/>
</linearGradient>
<linearGradient id="paint8_linear" x1="83.465" y1="129.396" x2="-4.30143" y2="170.112" gradientUnits="userSpaceOnUse">
<stop stop-color="#8942FF"/>
<stop offset="1" stop-color="#3AF3FF"/>
</linearGradient>
<linearGradient id="paint9_linear" x1="89.7772" y1="145.074" x2="-4.30458" y2="185.632" gradientUnits="userSpaceOnUse">
<stop stop-color="#8942FF"/>
<stop offset="1" stop-color="#3AF3FF"/>
</linearGradient>
<linearGradient id="paint10_linear" x1="97.2276" y1="162.596" x2="6.01048" y2="199.584" gradientUnits="userSpaceOnUse">
<stop stop-color="#8942FF"/>
<stop offset="1" stop-color="#3AF3FF"/>
</linearGradient>
<linearGradient id="paint11_linear" x1="107.897" y1="178.932" x2="21.5228" y2="212.124" gradientUnits="userSpaceOnUse">
<stop stop-color="#8942FF"/>
<stop offset="1" stop-color="#3AF3FF"/>
</linearGradient>
<linearGradient id="paint12_linear" x1="122.065" y1="193.021" x2="40.7754" y2="221.696" gradientUnits="userSpaceOnUse">
<stop stop-color="#8942FF"/>
<stop offset="1" stop-color="#3AF3FF"/>
</linearGradient>
</defs>
</svg>
