<svg width="144" height="131" viewBox="0 0 144 131" fill="none" xmlns="http://www.w3.org/2000/svg">
<path d="M59.3189 62.6775C71.025 44.8734 42.7467 25.8027 34.3669 7.30463C33.0115 7.58481 27.2711 16.3251 34.0327 23.1628C31.0643 23.8067 27.725 30.0485 32.2753 34.9842C25.36 44.9824 33.9128 50.6014 35.4824 51.3678C32.1881 66.8422 52.518 73.3446 59.3189 62.6775Z" fill="#CBDAEB"/>
<path d="M84.9037 71.8488C86.5663 50.606 120.599 52.8691 138.558 43.3887C139.457 44.4408 138.636 54.8653 129.103 56.124C131.053 58.4521 129.866 65.4309 123.246 66.5419C122.582 78.6805 112.38 77.8783 110.67 77.5218C103.789 91.7682 83.6883 84.4283 84.9037 71.8488Z" fill="#CBDAEB"/>
<path d="M47.4422 53.3824C44.0681 51.207 36.1319 49.2115 31.38 58.6322" stroke="black" stroke-width="2"/>
<path d="M114.684 64.3101C113.392 68.1111 108.414 74.6061 98.8372 70.1775" stroke="black" stroke-width="2"/>
<path d="M55.3183 93.4141L45.4716 104.358L40.8345 100.186" stroke="black" stroke-width="2"/>
<path d="M65.2444 97.559L63.6223 112.191L69.8222 112.878" stroke="black" stroke-width="2"/>
<rect x="63.8486" y="14.2157" width="56.5672" height="78.3483" rx="9" transform="rotate(22.8897 63.8486 14.2157)" fill="white"/>
<mask id="mask0" mask-type="alpha" maskUnits="userSpaceOnUse" x="35" y="16" width="79" height="92">
<rect x="63.5957" y="14.0332" width="56.8898" height="79.6636" rx="8" transform="rotate(22.8897 63.5957 14.0332)" fill="white"/>
</mask>
<g mask="url(#mask0)">
<rect x="63.8496" y="14.2178" width="56.8898" height="15.7298" transform="rotate(22.8897 63.8496 14.2178)" fill="#F15C5A"/>
</g>
<rect x="82.5547" y="19.9469" width="17.9652" height="3.49323" transform="rotate(22.8897 82.5547 19.9469)" fill="#383838"/>
<circle cx="70.2549" cy="47.7964" r="1.4971" transform="rotate(22.8897 70.2549 47.7964)" fill="#383838"/>
<circle cx="88.6446" cy="55.5608" r="1.4971" transform="rotate(22.8897 88.6446 55.5608)" fill="#383838"/>
<path d="M71.0059 59.4893C70.2614 61.2526 68.8707 64.5464 72.7785 66.1962C76.6863 67.8461 78.1446 64.392 78.8214 62.789" stroke="black" stroke-width="2" stroke-linejoin="round"/>
<rect x="48.3516" y="68.8833" width="26.9478" height="2.49517" transform="rotate(22.8897 48.3516 68.8833)" fill="#C4C4C4"/>
<rect x="46.4106" y="73.4811" width="21.9575" height="2.49517" transform="rotate(22.8897 46.4106 73.4811)" fill="#C4C4C4"/>
</svg>
