<svg width="144" height="131" viewBox="0 0 144 131" fill="none" xmlns="http://www.w3.org/2000/svg">
<path d="M83.9799 62.7818C72.1939 45.0305 100.386 25.833 108.683 7.2974C110.04 7.57149 115.819 16.2859 109.088 23.1539C112.06 23.7844 115.427 30.0113 110.899 34.9673C117.859 44.9343 109.331 50.5917 107.765 51.3651C111.129 66.8246 90.8286 73.4183 83.9799 62.7818Z" fill="#CBDAEB"/>
<path d="M58.4366 72.0676C56.6786 50.8325 22.6564 53.2484 4.65505 43.8488C3.76052 44.905 4.62847 55.3257 14.1676 56.5415C12.2272 58.8784 13.4457 65.8517 20.0711 66.933C20.7894 79.0685 30.9877 78.2204 32.696 77.8563C39.6412 92.0716 59.7085 84.6415 58.4366 72.0676Z" fill="#CBDAEB"/>
<path d="M96.1312 54.2886C99.5009 52.1065 107.433 50.095 112.204 59.5063" stroke="black" stroke-width="2"/>
<path d="M28.6228 64.6633C29.9318 68.4585 34.939 74.931 44.496 70.4594" stroke="black" stroke-width="2"/>
<path d="M88.1184 93.5002L98.0142 104.4L102.633 100.207" stroke="black" stroke-width="2"/>
<path d="M78.2114 97.6896L79.8992 112.314L73.7025 113.029" stroke="black" stroke-width="2"/>
<rect width="56.5672" height="78.3483" rx="9" transform="matrix(-0.919499 0.393093 0.393093 0.919499 79.2329 14.3409)" fill="white"/>
<mask id="mask0" mask-type="alpha" maskUnits="userSpaceOnUse" x="29" y="16" width="80" height="92">
<rect width="56.8898" height="79.6636" rx="8" transform="matrix(-0.919499 0.393093 0.393093 0.919499 79.4849 14.1573)" fill="white"/>
</mask>
<g mask="url(#mask0)">
<rect width="56.8898" height="15.7298" transform="matrix(-0.919499 0.393093 0.393093 0.919499 79.2319 14.3431)" fill="#F15C5A"/>
</g>
<rect width="17.9652" height="3.49324" transform="matrix(-0.919499 0.393093 0.393093 0.919499 60.5527 20.1561)" fill="#383838"/>
<circle r="1.4971" transform="matrix(-0.919499 0.393093 0.393093 0.919499 72.9775 47.9499)" fill="#383838"/>
<circle r="1.4971" transform="matrix(-0.919499 0.393093 0.393093 0.919499 54.6226 55.797)" fill="#383838"/>
<path d="M72.2788 59.6461C73.0312 61.4061 74.4366 64.6936 70.5363 66.361C66.636 68.0284 65.1622 64.5809 64.4782 62.981" stroke="black" stroke-width="2" stroke-linejoin="round"/>
<rect width="26.9478" height="2.49517" transform="matrix(-0.919499 0.393093 0.393093 0.919499 94.9751 68.9385)" fill="#C4C4C4"/>
<rect width="21.9575" height="2.49517" transform="matrix(-0.919499 0.393093 0.393093 0.919499 96.937 73.5273)" fill="#C4C4C4"/>
</svg>
