<svg width="293" height="55" viewBox="0 0 293 55" fill="none" xmlns="http://www.w3.org/2000/svg">
<path d="M57.252 12.5324C56.396 7.11743 54.409 4.22544 50.642 2.28144C47.635 0.621437 35.059 -0.137572 28.253 0.0204277C21.444 -0.0555723 10.122 0.647437 7.118 2.28144C3.353 4.22544 1.366 7.11943 0.507996 12.5324C0.138996 14.8954 0.034 19.9654 0 22.7544C0.034 25.5414 0.138996 30.6124 0.507996 32.9764C1.366 38.3914 3.351 41.2804 7.118 43.2284C10.122 44.8624 21.445 45.5664 28.253 45.4884C28.496 45.4944 28.749 45.4984 29.007 45.5024L26.157 37.8664C21.154 37.8814 13.87 37.9204 12.153 37.1934C9.628 36.1264 8.412 34.2014 7.966 30.2544C7.78 28.5344 7.775 24.8044 7.744 22.7554C7.775 20.7064 7.78 16.9754 7.966 15.2554C8.412 11.3104 9.628 9.38343 12.153 8.31743C14.157 7.46943 23.757 7.66544 28.447 7.64544C33.135 7.66544 43.603 7.46943 45.606 8.31743C48.13 9.38343 49.347 11.3094 49.793 15.2554C49.979 16.9764 49.985 20.7054 50.015 22.7454C49.982 24.7834 49.979 28.5344 49.793 30.2544C49.347 34.2014 48.131 36.1274 45.606 37.1934C44.151 37.8094 38.236 37.8754 33.308 37.8724L33.627 38.7274L39.553 54.6024L44.068 44.7094C47.059 44.3424 49.519 43.8484 50.642 43.2284C54.41 41.2834 56.395 38.3894 57.252 32.9764C57.621 30.6124 57.724 25.5134 57.76 22.7404C57.728 19.9654 57.622 14.8974 57.252 12.5324Z" fill="#F15C5A"/>
<path d="M92.952 37.7656V24.0136C92.952 21.2886 92.228 19.7136 89.546 19.7136C86.523 19.7136 85.203 22.9066 85.203 25.6736V37.7646H79.924V24.0126C79.924 21.2876 79.2 19.7126 76.518 19.7126C73.495 19.7126 72.133 22.9056 72.133 25.6726V37.7636H66.853V15.6246H71.281L71.707 18.5616C72.942 16.5186 75.071 15.0706 78.008 15.0706C81.116 15.0706 83.245 16.4336 84.352 18.6896C85.672 16.3906 88.056 15.0706 91.036 15.0706C95.762 15.0706 98.231 18.2216 98.231 22.8196V37.7636H92.952V37.7656Z" fill="#F15C5A"/>
<path d="M111.935 41.5544C110.828 44.4494 108.997 47.0894 105.123 47.0894C103.377 47.0894 102.185 46.8344 101.036 46.5354V42.1084C102.44 42.3634 102.824 42.4914 104.016 42.4914C104.995 42.4914 106.017 42.1514 106.57 40.8304L107.847 37.7234L99.1191 15.6274H104.952L110.742 31.6354L116.277 15.6274H121.684L111.935 41.5544Z" fill="#F15C5A"/>
<path d="M123.678 37.7656V7.57959H129.256V37.7656H123.678Z" fill="#F15C5A"/>
<path d="M147.397 37.7655V24.1835C147.397 21.5865 146.546 20.0115 143.735 20.0115C141.862 20.0115 140.627 21.2035 139.904 22.8215C139.138 24.5675 139.18 26.8655 139.18 28.7395V37.7655H133.858V15.6265H138.328L138.712 18.4785C140.032 16.1375 142.672 15.0725 145.226 15.0725C149.952 15.0725 152.72 18.3935 152.72 22.9915V37.7655H147.397Z" fill="#F15C5A"/>
<path d="M165.336 38.0635C160.865 38.0635 158.652 35.5095 158.652 31.2515V20.0115H154.607V15.6265H158.652V10.0065L163.973 8.68652V15.6265H169.551V20.0115H163.973V30.7835C163.973 32.4865 164.739 33.2105 166.442 33.2105C167.549 33.2105 168.443 33.1675 169.891 32.9975V37.4675C168.401 37.8505 166.911 38.0635 165.336 38.0635Z" fill="#F15C5A"/>
<path d="M191.248 28.3565H176.432C176.39 30.0595 176.985 31.6775 178.05 32.6995C178.816 33.4225 179.88 34.0615 181.328 34.0615C182.861 34.0615 183.797 33.7635 184.564 32.9975C185.032 32.5295 185.415 31.9325 185.628 31.1235H190.737C190.609 32.4435 189.715 34.1895 188.863 35.2115C186.99 37.4255 184.222 38.3195 181.412 38.3195C178.389 38.3195 176.175 37.2555 174.43 35.5945C172.216 33.4665 171.024 30.3575 171.024 26.7385C171.024 23.2055 172.089 20.0545 174.217 17.8835C175.878 16.1805 178.261 15.0735 181.285 15.0735C184.563 15.0735 187.543 16.3935 189.374 19.1615C190.992 21.5885 191.375 24.1005 191.29 26.8675C191.291 26.8665 191.248 27.8875 191.248 28.3565ZM184.607 20.6075C183.883 19.8415 182.777 19.3305 181.243 19.3305C179.626 19.3305 178.306 20.0115 177.54 21.0325C176.773 22.0115 176.433 23.0345 176.39 24.4815H185.97C185.926 22.8215 185.458 21.5445 184.607 20.6075Z" fill="#F15C5A"/>
<path d="M205.606 20.3524C201.859 20.3524 199.901 23.0344 199.901 26.6104V37.7654H194.536V15.6264H199.05L199.518 18.9464C200.54 16.3924 203.179 15.3274 205.776 15.3274C206.329 15.3274 206.883 15.3704 207.436 15.4554V20.5644C206.84 20.4374 206.201 20.3524 205.606 20.3524Z" fill="#F15C5A"/>
<path d="M221.917 37.7655H216.254L208.037 15.6265H213.657L219.191 31.2095L224.428 15.6265H229.92L221.917 37.7655Z" fill="#F15C5A"/>
<path d="M231.698 12.5604V7.06836H237.403V12.5604H231.698ZM231.868 37.7654V15.6264H237.275V37.7654H231.868Z" fill="#F15C5A"/>
<path d="M260.726 28.3565H245.91C245.868 30.0595 246.463 31.6775 247.528 32.6995C248.294 33.4225 249.358 34.0615 250.806 34.0615C252.339 34.0615 253.275 33.7635 254.042 32.9975C254.51 32.5295 254.893 31.9325 255.106 31.1235H260.215C260.087 32.4435 259.193 34.1895 258.341 35.2115C256.468 37.4255 253.701 38.3195 250.89 38.3195C247.867 38.3195 245.653 37.2555 243.908 35.5945C241.694 33.4665 240.502 30.3575 240.502 26.7385C240.502 23.2055 241.567 20.0545 243.695 17.8835C245.356 16.1805 247.739 15.0735 250.763 15.0735C254.041 15.0735 257.021 16.3935 258.852 19.1615C260.47 21.5885 260.853 24.1005 260.768 26.8675C260.769 26.8665 260.726 27.8875 260.726 28.3565ZM254.084 20.6075C253.36 19.8415 252.254 19.3305 250.72 19.3305C249.103 19.3305 247.783 20.0115 247.017 21.0325C246.25 22.0115 245.91 23.0345 245.867 24.4815H255.447C255.404 22.8215 254.936 21.5445 254.084 20.6075Z" fill="#F15C5A"/>
<path d="M286.801 37.7655H281.862L276.838 22.8215L271.899 37.7655H266.96L261.34 15.6265H266.492L270.026 30.1445L274.667 15.8395H279.052L283.735 30.1025L287.141 15.6275H292.208L286.801 37.7655Z" fill="#F15C5A"/>
</svg>
