<svg width="154" height="155" viewBox="0 0 154 155" fill="none" xmlns="http://www.w3.org/2000/svg">
<path d="M54.5766 96.8299C51.6128 77.2953 20.2899 81.6732 3.0442 74.1111C2.28316 75.1445 3.74245 84.7304 12.644 85.2544C10.9961 87.5385 12.5625 93.9131 18.76 94.4961C20.1889 105.678 29.5702 104.251 31.1277 103.807C38.4483 116.52 56.4991 108.402 54.5766 96.8299Z" fill="#CBDAEB"/>
<path d="M91.6142 85.0327C82.0146 67.7633 109.476 52.0744 118.498 35.5455C119.732 35.8979 124.439 44.3752 117.716 50.2328C120.417 51.0325 123.075 57.0343 118.528 61.2852C124.234 71.0067 115.939 75.6141 114.435 76.2147C116.416 90.7509 97.169 95.3648 91.6142 85.0327Z" fill="#CBDAEB"/>
<path d="M46.3983 113.648C44.9013 110.417 44.1099 103.203 52.9207 100.196" stroke="black" stroke-width="2.26366"/>
<path d="M96.0106 83.2845C101.62 81.6976 111.407 74.9494 105.676 60.652" stroke="black" stroke-width="2.26366"/>
<path d="M88.1305 120.699L94.5209 132.085L99.3163 129.381" stroke="black" stroke-width="2.26366"/>
<path d="M75.4255 125.232L74.0104 138.202L68.5361 137.582" stroke="black" stroke-width="2.26366"/>
<g filter="url(#filter0_d)">
<rect x="40.2729" y="67.23" width="49.9119" height="69.498" rx="10.1865" transform="rotate(-18.8479 40.2729 67.23)" fill="white"/>
</g>
<mask id="mask0" mask-type="alpha" maskUnits="userSpaceOnUse" x="42" y="53" width="66" height="79">
<rect x="39.9973" y="67.2588" width="50.1966" height="70.6647" rx="9.05465" transform="rotate(-18.8479 39.9973 67.2588)" fill="white"/>
</mask>
<g mask="url(#mask0)">
<rect x="40.2726" y="67.2322" width="50.1966" height="13.9529" transform="rotate(-18.8479 40.2726 67.2322)" fill="#F15C5A"/>
</g>
<rect width="15.8515" height="3.09863" transform="matrix(0.946378 -0.323061 0.323052 0.946382 55.9518 60.0073)" fill="#383838"/>
<ellipse cx="64.2594" cy="85.7031" rx="1.32096" ry="1.32799" transform="rotate(-18.8479 64.2594 85.7031)" fill="#383838"/>
<ellipse cx="80.9275" cy="80.0129" rx="1.32096" ry="1.32799" transform="rotate(-18.8479 80.9275 80.0129)" fill="#383838"/>
<path d="M72.6354 95.9292C73.1839 97.536 74.2085 100.537 77.7505 99.3283C81.2926 98.1192 80.2181 94.9717 79.7195 93.511" stroke="black" stroke-width="2.26366" stroke-linejoin="round"/>
<rect width="23.7773" height="2.21331" transform="matrix(0.946381 -0.323053 0.32306 0.946379 62.5103 115.158)" fill="#F4F6FA"/>
<rect x="64.7162" y="119.854" width="19.3741" height="2.21331" transform="rotate(-18.8479 64.7162 119.854)" fill="#F4F6FA"/>
<path d="M88.148 26.8179L139.691 0.0467294L153.964 27.5269L102.421 54.298L88.148 26.8179Z" fill="#ECECEC"/>
<path d="M91.0505 25.2872L101.085 25.4025L98.9058 21.2072L91.0505 25.2872ZM103.203 18.975L105.38 23.1649L111.057 14.8922L103.203 18.975ZM113.941 13.3982L114.741 14.9391L110.611 20.9501L116.322 17.9835L118.703 22.5671L112.991 25.5336L120.286 25.6151L121.085 27.1524L118.205 28.6483L108.172 28.5357L110.349 32.7283L106.056 34.9581L103.877 30.7628L98.2007 39.0381L95.3125 40.5382L102.456 54.2915L154 27.5199L139.713 0.0123738L113.941 13.3982ZM88.969 28.3249L90.5502 31.3693L96.2636 28.4018L88.969 28.3249ZM127.988 8.47843L129.146 9.69805L130.181 8.34063L129.929 10.0106L131.637 9.95019L130.163 10.8144L131.252 12.0954L129.668 11.5029L129.317 13.1573L128.811 11.5548L127.295 12.3423L128.253 10.9368L126.702 10.2554L128.4 10.1041L127.986 8.47477L127.988 8.47843ZM136.729 11.1516L137.887 12.3712L138.921 11.0129L138.669 12.6837L140.373 12.6248L138.899 13.4891L139.988 14.771L138.404 14.1785L138.061 15.8323L137.556 14.2307L136.039 15.0182L136.999 13.6095L135.442 12.9332L137.139 12.7828L136.729 11.1516ZM92.9309 35.9529L94.514 39.0009L98.6443 32.9854L92.9309 35.9529ZM125.442 19.2399L126.599 20.4595L127.637 19.1085L127.385 20.7821L129.087 20.7214L127.613 21.5856L128.702 22.8666L127.118 22.2741L126.778 23.9251L126.272 22.3207L124.755 23.1083L125.715 21.6995L124.163 21.0232L125.861 20.8718L125.448 19.2426L125.442 19.2399ZM136.589 18.5683L137.232 19.2144L138.067 18.8121L137.634 19.6166L138.273 20.2706L137.362 20.1235L136.925 20.9303L136.794 20.03L135.887 19.8746L136.713 19.4664L136.594 18.566L136.589 18.5683ZM109.676 36.0146L111.84 38.3121L113.737 35.79L113.293 38.9144L116.447 38.8244L113.726 40.4237L115.763 42.8332L112.817 41.7074L112.204 44.8035L111.247 41.7955L108.448 43.2496L110.204 40.6289L107.323 39.3419L110.469 39.0785L109.679 36.021L109.676 36.0146ZM137.485 26.7632L138.643 27.9828L139.678 26.6254L139.427 28.2981L141.134 28.235L139.66 29.0992L140.749 30.3802L139.165 29.7877L138.824 31.4415L138.319 29.8389L136.802 30.6265L137.759 29.2192L136.21 28.5414L137.908 28.3901L137.494 26.7608L137.485 26.7632Z" fill="#00008B"/>
<path d="M88.207 26.7485L88.7398 27.7743L97.258 27.8734L99.1762 26.8771L88.207 26.7485ZM99.8074 20.7234L102.665 26.2249L91.0645 32.25L92.4934 35.0013L104.094 28.9761L106.951 34.4767L109.526 33.1393L106.669 27.6387L118.269 21.6136L116.84 18.8623L105.24 24.8875L102.382 19.386L99.8074 20.7234ZM112.059 14.36L105.85 23.4073L107.768 22.411L113.983 13.3608L112.059 14.36ZM101.56 31.4555L95.355 40.4995L97.2731 39.5032L103.483 30.4568L101.56 31.4555ZM110.151 26.9935L121.118 27.1184L120.586 26.0936L112.067 25.9945L110.151 26.9935Z" fill="#FF0000"/>
<path d="M87.2047 24.7721L117.654 84.0274" stroke="black" stroke-width="2"/>
<defs>
<filter id="filter0_d" x="38.4874" y="53.8474" width="73.2584" height="85.4668" filterUnits="userSpaceOnUse" color-interpolation-filters="sRGB">
<feFlood flood-opacity="0" result="BackgroundImageFix"/>
<feColorMatrix in="SourceAlpha" type="matrix" values="0 0 0 0 0 0 0 0 0 0 0 0 0 0 0 0 0 0 127 0"/>
<feOffset dy="4.52733"/>
<feGaussianBlur stdDeviation="2.26366"/>
<feColorMatrix type="matrix" values="0 0 0 0 0 0 0 0 0 0 0 0 0 0 0 0 0 0 0.07 0"/>
<feBlend mode="normal" in2="BackgroundImageFix" result="effect1_dropShadow"/>
<feBlend mode="normal" in="SourceGraphic" in2="effect1_dropShadow" result="shape"/>
</filter>
</defs>
</svg>
