<svg width="159" height="114" viewBox="0 0 159 114" fill="none" xmlns="http://www.w3.org/2000/svg">
<path d="M14.5206 29.4837L65.0089 16.0505L72.9734 45.985L22.4851 59.4182L14.5206 29.4837Z" fill="white"/>
<path d="M15.3016 32.2765L65.7546 18.8528L66.9863 23.4821L16.5333 36.9059L15.3016 32.2765Z" fill="#2F3F92"/>
<path d="M20.5179 51.9061L70.9768 38.4807L72.2085 43.1101L21.7496 56.5354L20.5179 51.9061Z" fill="#2F3F92"/>
<path d="M41.8852 41.7952L38.1363 42.7927L39.1485 39.0476L36.4322 36.3186L40.1547 35.3282L41.1841 31.5206L43.967 34.3139L47.7185 33.3157L46.7067 37.0621L49.428 39.794L45.7002 40.7858L44.6695 44.5938L41.8852 41.7952ZM39.6725 41.2616L41.0018 40.908L40.0355 39.9325L39.6725 41.2616ZM42.211 40.5863L44.8154 39.8933L45.4952 37.3802L43.6402 35.5189L41.0384 36.2111L40.3596 38.7226L42.211 40.5863ZM38.5241 36.8815L39.4752 37.837L39.827 36.5349L38.5241 36.8815ZM41.7411 33.6142L41.3648 35.0048L42.7575 34.6343L41.7411 33.6142ZM46.1873 34.844L44.8567 35.198L45.8233 36.1748L46.1873 34.844ZM47.339 39.2261L46.3777 38.2691L46.0252 39.5742L47.339 39.2261ZM44.4953 41.1022L43.1 41.4734L44.1184 42.4958L44.4953 41.1022Z" fill="#2F3F92"/>
<path d="M63.6918 14.1776L81.8096 74.831" stroke="black" stroke-width="2"/>
<path d="M79.1013 65.3309C79.4067 61.9612 82.1868 55.651 90.8647 57.3677" stroke="black" stroke-width="2.26366"/>
<path d="M134.352 63.9525C139.721 65.3152 150.981 64.4191 153.067 49.9331" stroke="black" stroke-width="2.26366"/>
<path d="M110.075 90.9804L109.916 103.385L115.147 103.442" stroke="black" stroke-width="2.26366"/>
<path d="M97.468 88.6664L90.1355 98.6613L85.9274 95.5476" stroke="black" stroke-width="2.26366"/>
<g filter="url(#filter0_d)">
<rect x="96.1406" y="24.2358" width="47.4251" height="66.0352" rx="10.1865" transform="rotate(11.1898 96.1406 24.2358)" fill="white"/>
</g>
<mask id="mask0" mask-type="alpha" maskUnits="userSpaceOnUse" x="84" y="25" width="58" height="73">
<rect x="95.8999" y="24.1287" width="47.6956" height="67.1438" rx="9.05465" transform="rotate(11.1898 95.8999 24.1287)" fill="white"/>
</mask>
<g mask="url(#mask0)">
<rect x="96.1393" y="24.2375" width="47.6955" height="13.2577" transform="rotate(11.1898 96.1393 24.2375)" fill="#F15C5A"/>
</g>
<rect width="15.0617" height="2.94425" transform="matrix(0.980991 0.194054 -0.194064 0.980989 112.473 25.752)" fill="#383838"/>
<ellipse cx="107.084" cy="50.8396" rx="1.25515" ry="1.26182" transform="rotate(11.1898 107.084 50.8396)" fill="#383838"/>
<ellipse cx="123.501" cy="54.0874" rx="1.25514" ry="1.26182" transform="rotate(11.1898 123.501 54.0874)" fill="#383838"/>
<path d="M109.11 63.2351C108.797 64.8177 108.213 67.7738 111.701 68.4639C115.19 69.1541 115.803 66.054 116.088 64.6153" stroke="black" stroke-width="2.26366" stroke-linejoin="round"/>
<rect width="22.5926" height="2.10303" transform="matrix(0.980989 0.194063 -0.194055 0.980991 91.6366 74.2358)" fill="#F4F6FA"/>
<rect x="91.2173" y="79.1482" width="18.4088" height="2.10303" transform="rotate(11.1898 91.2173 79.1482)" fill="#F4F6FA"/>
<defs>
<filter id="filter0_d" x="81.107" y="26.0171" width="63.7759" height="78.4208" filterUnits="userSpaceOnUse" color-interpolation-filters="sRGB">
<feFlood flood-opacity="0" result="BackgroundImageFix"/>
<feColorMatrix in="SourceAlpha" type="matrix" values="0 0 0 0 0 0 0 0 0 0 0 0 0 0 0 0 0 0 127 0"/>
<feOffset dy="4"/>
<feGaussianBlur stdDeviation="2"/>
<feColorMatrix type="matrix" values="0 0 0 0 0 0 0 0 0 0 0 0 0 0 0 0 0 0 0.07 0"/>
<feBlend mode="normal" in2="BackgroundImageFix" result="effect1_dropShadow"/>
<feBlend mode="normal" in="SourceGraphic" in2="effect1_dropShadow" result="shape"/>
</filter>
</defs>
</svg>
