<svg width="158" height="111" viewBox="0 0 158 111" fill="none" xmlns="http://www.w3.org/2000/svg">
<path d="M10.565 97.4755C9.71555 93.832 10.4561 86.242 20.214 85.0301" stroke="black" stroke-width="2"/>
<path d="M88.8624 67.7758C93.8895 67.4204 103.364 63.4493 101.044 50.4084" stroke="black" stroke-width="2"/>
<path d="M63.7105 89.7015L66.0195 103.225L71.7497 102.246" stroke="black" stroke-width="2"/>
<path d="M46.4561 91.8568L48.6056 105.406L42.8642 106.317" stroke="black" stroke-width="2"/>
<g filter="url(#filter0_d)">
<rect width="72.2535" height="53.9357" rx="9" transform="matrix(0.992376 -0.12325 0.123249 0.992376 13.6793 42.4019)" fill="white"/>
</g>
<mask id="mask0" mask-type="alpha" maskUnits="userSpaceOnUse" x="14" y="34" width="77" height="59">
<rect width="72.6667" height="50.8943" rx="8" transform="matrix(0.992376 -0.12325 0.123249 0.992376 13.3264 42.4453)" fill="white"/>
</mask>
<g mask="url(#mask0)">
<rect width="75.2619" height="13.0674" transform="matrix(0.992376 -0.12325 0.123249 0.992376 13.3264 42.4453)" fill="#F15C5A"/>
</g>
<rect width="16.7419" height="3.25537" transform="matrix(0.992376 -0.12325 0.123249 0.992376 40.2446 37.0518)" fill="#383838"/>
<ellipse rx="1.39516" ry="1.39516" transform="matrix(0.992376 -0.12325 0.123249 0.992376 41.3075 61.4977)" fill="#383838"/>
<ellipse rx="1.39516" ry="1.39516" transform="matrix(0.992376 -0.12325 0.123249 0.992376 59.7682 59.2048)" fill="#383838"/>
<path d="M47.6563 67.1489C47.8761 68.919 48.2868 72.2255 52.2096 71.7383C56.1324 71.2511 55.7017 67.7837 55.5019 66.1745" stroke="black" stroke-width="2" stroke-linejoin="round"/>
<rect width="12.3274" height="2.59524" transform="matrix(0.992376 -0.12325 0.123249 0.992376 72.4047 75.9331)" fill="#F4F6FA"/>
<rect width="20.4623" height="2.32526" transform="matrix(0.992376 -0.12325 0.123249 0.992376 64.7966 81.5635)" fill="#F4F6FA"/>
<path d="M141 0.752694L91.1302 16.0923L100.253 45.5206L150.123 30.181L141 0.752694Z" fill="white"/>
<path d="M141.071 0.760212L91.1215 16.1724L91.824 18.4457L141.774 3.03358L141.071 0.760212Z" fill="#D1141C"/>
<path d="M142.469 5.28649L92.5191 20.6982L93.2216 22.9716L143.171 7.55981L142.469 5.28649Z" fill="#D1141C"/>
<path d="M143.894 9.90221L93.9445 25.314L94.647 27.5873L144.597 12.1755L143.894 9.90221Z" fill="#D1141C"/>
<path d="M145.265 14.3408L95.3149 29.7529L96.0175 32.0263L145.967 16.6141L145.265 14.3408Z" fill="#D1141C"/>
<path d="M146.634 18.7762L96.6845 34.188L97.387 36.4613L147.337 21.0496L146.634 18.7762Z" fill="#D1141C"/>
<path d="M148.06 23.392L98.1101 38.8037L98.8127 41.077L148.762 25.6653L148.06 23.392Z" fill="#D1141C"/>
<path d="M149.429 27.8271L99.4795 43.2393L100.182 45.5126L150.132 30.1005L149.429 27.8271Z" fill="#D1141C"/>
<path d="M113.616 9.22512L91.1248 16.1421L96.0498 32.027L118.541 25.11L113.616 9.22512Z" fill="#27357D"/>
<path d="M94.3079 16.6417L93.6413 16.8467L93.2399 16.3073L93.2396 16.3154L93.2349 16.3088L93.2088 16.9797L92.5421 17.1847L93.2418 17.4998L93.2133 18.2708L93.6642 17.6847L94.3685 17.9156L93.9085 17.2948L94.3079 16.6417Z" fill="white"/>
<path d="M98.0479 15.4869L97.3814 15.6919L96.98 15.1525L96.9797 15.1606L96.9748 15.1541L96.9487 15.825L96.2822 16.0299L96.9819 16.345L96.9534 17.1161L97.4043 16.53L98.1084 16.7608L97.6484 16.1401L98.0479 15.4869Z" fill="white"/>
<path d="M101.88 14.3038L101.213 14.5088L100.812 13.9694L100.812 13.9775L100.807 13.971L100.781 14.6419L100.114 14.8468L100.814 15.1619L100.785 15.933L101.236 15.3469L101.94 15.5777L101.48 14.9569L101.88 14.3038Z" fill="white"/>
<path d="M105.646 13.1407L104.979 13.3457L104.578 12.8063L104.577 12.8144L104.573 12.8079L104.547 13.4787L103.88 13.6837L104.58 13.9988L104.551 14.7698L105.002 14.1838L105.706 14.4146L105.246 13.7938L105.646 13.1407Z" fill="white"/>
<path d="M109.411 11.9776L108.745 12.1826L108.343 11.6432L108.343 11.6513L108.338 11.6448L108.312 12.3157L107.646 12.5207L108.345 12.8358L108.317 13.6068L108.768 13.0207L109.472 13.2516L109.012 12.6308L109.411 11.9776Z" fill="white"/>
<path d="M113.223 10.8004L112.556 11.0054L112.155 10.466L112.155 10.474L112.15 10.4675L112.124 11.1384L111.457 11.3434L112.157 11.6585L112.128 12.4295L112.579 11.8434L113.283 12.0743L112.823 11.4535L113.223 10.8004Z" fill="white"/>
<path d="M95.285 19.8062L94.6183 20.0112L94.217 19.4719L94.2166 19.48L94.2119 19.4735L94.1858 20.1442L93.5192 20.3492L94.2189 20.6642L94.1904 21.4351L94.6413 20.8491L95.3456 21.0799L94.8855 20.4592L95.285 19.8062Z" fill="white"/>
<path d="M99.0252 18.651L98.3587 18.856L97.9573 18.3166L97.957 18.3246L97.9521 18.3182L97.926 18.989L97.2595 19.194L97.9592 19.5091L97.9307 20.2801L98.3816 19.694L99.0857 19.9249L98.6257 19.3041L99.0252 18.651Z" fill="white"/>
<path d="M102.857 17.4684L102.19 17.6734L101.789 17.1339L101.789 17.142L101.784 17.1355L101.758 17.8064L101.091 18.0114L101.791 18.3265L101.762 19.0975L102.213 18.5114L102.918 18.7423L102.458 18.1215L102.857 17.4684Z" fill="white"/>
<path d="M106.623 16.3052L105.956 16.5103L105.555 15.9709L105.555 15.9789L105.55 15.9724L105.524 16.6433L104.857 16.8483L105.557 17.1634L105.528 17.9344L105.979 17.3483L106.683 17.5791L106.223 16.9584L106.623 16.3052Z" fill="white"/>
<path d="M110.388 15.1427L109.722 15.3477L109.321 14.8083L109.32 14.8163L109.315 14.8099L109.289 15.4807L108.623 15.6857L109.322 16.0008L109.294 16.7718L109.745 16.1857L110.449 16.4166L109.989 15.7958L110.388 15.1427Z" fill="white"/>
<path d="M114.2 13.9654L113.533 14.1704L113.132 13.631L113.132 13.6391L113.127 13.6326L113.101 14.3034L112.434 14.5084L113.134 14.8235L113.105 15.5945L113.556 15.0085L114.261 15.2393L113.801 14.6185L114.2 13.9654Z" fill="white"/>
<path d="M96.6753 17.6388L96.0087 17.8438L95.6074 17.3044L95.607 17.3124L95.6022 17.3059L95.5761 17.9768L94.9096 18.1818L95.6093 18.4969L95.5808 19.2679L96.0316 18.6818L96.7358 18.9127L96.2758 18.2919L96.6753 17.6388Z" fill="white"/>
<path d="M100.416 16.4839L99.7489 16.689L99.3475 16.1496L99.3473 16.1576L99.3425 16.1511L99.3164 16.822L98.6497 17.027L99.3494 17.3421L99.3209 18.1131L99.7719 17.527L100.476 17.7578L100.016 17.1371L100.416 16.4839Z" fill="white"/>
<path d="M104.248 15.3009L103.581 15.5058L103.18 14.9665L103.179 14.9746L103.174 14.9681L103.148 15.6388L102.482 15.8438L103.181 16.1588L103.153 16.9297L103.604 16.3438L104.308 16.5745L103.848 15.9539L104.248 15.3009Z" fill="white"/>
<path d="M108.013 14.1378L107.346 14.3428L106.945 13.8034L106.945 13.8114L106.94 13.8049L106.914 14.4758L106.247 14.6808L106.947 14.9959L106.918 15.7669L107.369 15.1808L108.074 15.4116L107.614 14.7909L108.013 14.1378Z" fill="white"/>
<path d="M111.779 12.9747L111.112 13.1797L110.711 12.6403L110.71 12.6484L110.706 12.6419L110.68 13.3127L110.013 13.5177L110.713 13.8328L110.684 14.6038L111.135 14.0178L111.839 14.2486L111.379 13.6278L111.779 12.9747Z" fill="white"/>
<path d="M96.2705 22.9976L95.6038 23.2026L95.2025 22.6632L95.2021 22.6713L95.1974 22.6648L95.1713 23.3356L94.5047 23.5407L95.2043 23.8558L95.1759 24.6268L95.6267 24.0407L96.331 24.2715L95.871 23.6507L96.2705 22.9976Z" fill="white"/>
<path d="M100.01 21.8424L99.344 22.0474L98.9426 21.508L98.9423 21.5161L98.9374 21.5096L98.9114 22.1804L98.2448 22.3853L98.9445 22.7004L98.916 23.4713L99.3669 22.8853L100.071 23.1161L99.611 22.4954L100.01 21.8424Z" fill="white"/>
<path d="M103.842 20.6593L103.176 20.8642L102.775 20.3249L102.774 20.333L102.769 20.3265L102.743 20.9973L102.077 21.2022L102.776 21.5173L102.748 22.2881L103.199 21.7022L103.903 21.933L103.443 21.3123L103.842 20.6593Z" fill="white"/>
<path d="M107.608 19.4966L106.942 19.7017L106.54 19.1623L106.54 19.1703L106.535 19.1638L106.509 19.8347L105.842 20.0397L106.542 20.3548L106.514 21.1258L106.964 20.5397L107.669 20.7705L107.209 20.1498L107.608 19.4966Z" fill="white"/>
<path d="M111.374 18.3336L110.707 18.5386L110.306 17.9992L110.306 18.0072L110.301 18.0008L110.275 18.6716L109.608 18.8766L110.308 19.1917L110.279 19.9627L110.73 19.3767L111.434 19.6075L110.974 18.9867L111.374 18.3336Z" fill="white"/>
<path d="M115.185 17.1563L114.519 17.3613L114.117 16.8219L114.117 16.83L114.112 16.8235L114.086 17.4943L113.42 17.6994L114.119 18.0144L114.091 18.7855L114.542 18.1994L115.246 18.4302L114.786 17.8094L115.185 17.1563Z" fill="white"/>
<path d="M97.6607 20.8302L96.9941 21.0352L96.5927 20.4958L96.5924 20.5038L96.5876 20.4974L96.5615 21.1682L95.8949 21.3732L96.5946 21.6883L96.5661 22.4593L97.017 21.8733L97.7212 22.1041L97.2612 21.4833L97.6607 20.8302Z" fill="white"/>
<path d="M101.401 19.6749L100.734 19.8799L100.333 19.3405L100.333 19.3485L100.328 19.342L100.302 20.0129L99.6351 20.2179L100.335 20.533L100.306 21.304L100.757 20.7179L101.461 20.9488L101.001 20.328L101.401 19.6749Z" fill="white"/>
<path d="M105.233 18.4918L104.566 18.6968L104.165 18.1574L104.165 18.1655L104.16 18.1589L104.134 18.8298L103.467 19.0348L104.167 19.3499L104.138 20.1209L104.589 19.5348L105.293 19.7657L104.833 19.1449L105.233 18.4918Z" fill="white"/>
<path d="M108.998 17.3292L108.332 17.5342L107.93 16.9949L107.93 17.0029L107.925 16.9964L107.899 17.6671L107.233 17.8721L107.932 18.1871L107.904 18.958L108.355 18.372L109.059 18.6028L108.599 17.9822L108.998 17.3292Z" fill="white"/>
<path d="M112.764 16.1661L112.098 16.3711L111.696 15.8317L111.696 15.8398L111.691 15.8333L111.665 16.5041L110.998 16.7091L111.698 17.0242L111.67 17.7952L112.12 17.2092L112.825 17.44L112.365 16.8192L112.764 16.1661Z" fill="white"/>
<path d="M97.235 26.1207L96.5683 26.3257L96.1669 25.7864L96.1666 25.7944L96.1619 25.7879L96.1358 26.4586L95.4691 26.6636L96.1688 26.9787L96.1404 27.7495L96.5912 27.1636L97.2956 27.3944L96.8355 26.7737L97.235 26.1207Z" fill="white"/>
<path d="M100.975 24.9659L100.309 25.1709L99.9072 24.6315L99.9068 24.6396L99.902 24.6331L99.8759 25.304L99.2094 25.5089L99.909 25.824L99.8806 26.5951L100.331 26.009L101.036 26.2398L100.576 25.6191L100.975 24.9659Z" fill="white"/>
<path d="M104.807 23.7828L104.14 23.9878L103.739 23.4484L103.739 23.4565L103.734 23.45L103.708 24.1209L103.041 24.3258L103.741 24.6409L103.712 25.412L104.163 24.8259L104.867 25.0567L104.407 24.436L104.807 23.7828Z" fill="white"/>
<path d="M108.573 22.6197L107.906 22.8247L107.505 22.2853L107.504 22.2934L107.5 22.2869L107.474 22.9577L106.807 23.1627L107.507 23.4778L107.478 24.2488L107.929 23.6628L108.633 23.8936L108.173 23.2728L108.573 22.6197Z" fill="white"/>
<path d="M112.338 21.4572L111.672 21.6621L111.27 21.1228L111.27 21.1308L111.265 21.1244L111.239 21.7951L110.573 22.0001L111.272 22.3151L111.244 23.086L111.695 22.5L112.399 22.7309L111.939 22.1102L112.338 21.4572Z" fill="white"/>
<path d="M116.15 20.2799L115.483 20.4849L115.082 19.9455L115.082 19.9536L115.077 19.9471L115.051 20.6178L114.384 20.8228L115.084 21.1378L115.055 21.9087L115.506 21.3228L116.211 21.5535L115.751 20.9329L116.15 20.2799Z" fill="white"/>
<path d="M98.6251 23.9532L97.9586 24.1582L97.5573 23.6188L97.5569 23.6269L97.5521 23.6204L97.526 24.2913L96.8594 24.4963L97.5591 24.8113L97.5306 25.5824L97.9815 24.9963L98.6857 25.2271L98.2256 24.6064L98.6251 23.9532Z" fill="white"/>
<path d="M102.365 22.7984L101.699 23.0034L101.297 22.4641L101.297 22.4721L101.292 22.4656L101.266 23.1364L100.6 23.3413L101.299 23.6564L101.271 24.4273L101.722 23.8413L102.426 24.0721L101.966 23.4514L102.365 22.7984Z" fill="white"/>
<path d="M106.197 21.6148L105.531 21.8198L105.129 21.2804L105.129 21.2885L105.124 21.282L105.098 21.9528L104.432 22.1579L105.131 22.4729L105.103 23.244L105.554 22.6579L106.258 22.8887L105.798 22.2679L106.197 21.6148Z" fill="white"/>
<path d="M109.963 20.4522L109.296 20.6572L108.895 20.1178L108.895 20.1259L108.89 20.1194L108.864 20.7902L108.197 20.9953L108.897 21.3103L108.868 22.0814L109.319 21.4952L110.023 21.7261L109.563 21.1053L109.963 20.4522Z" fill="white"/>
<path d="M113.729 19.2891L113.062 19.4942L112.661 18.9548L112.66 18.9628L112.656 18.9563L112.629 19.6272L111.963 19.8322L112.662 20.1473L112.634 20.9183L113.085 20.3322L113.789 20.563L113.329 19.9422L113.729 19.2891Z" fill="white"/>
<path d="M98.2204 29.3121L97.5537 29.5171L97.1524 28.9777L97.152 28.9858L97.1473 28.9793L97.1212 29.6501L96.4545 29.8551L97.1542 30.1702L97.1258 30.9412L97.5766 30.3552L98.281 30.586L97.8209 29.9652L98.2204 29.3121Z" fill="white"/>
<path d="M101.96 28.1569L101.294 28.3618L100.892 27.8225L100.892 27.8305L100.887 27.8241L100.861 28.4948L100.195 28.6998L100.894 29.0148L100.866 29.7857L101.317 29.1997L102.021 29.4306L101.561 28.8099L101.96 28.1569Z" fill="white"/>
<path d="M105.792 26.9737L105.126 27.1787L104.724 26.6393L104.724 26.6474L104.719 26.6409L104.693 27.3118L104.027 27.5168L104.726 27.8319L104.698 28.6029L105.149 28.0168L105.853 28.2477L105.393 27.6269L105.792 26.9737Z" fill="white"/>
<path d="M109.558 25.8111L108.891 26.0161L108.49 25.4767L108.49 25.4848L108.485 25.4783L108.459 26.1491L107.792 26.3541L108.492 26.6692L108.463 27.4402L108.914 26.8542L109.619 27.085L109.159 26.4642L109.558 25.8111Z" fill="white"/>
<path d="M113.324 24.6481L112.657 24.853L112.256 24.3136L112.255 24.3217L112.251 24.3152L112.225 24.9861L111.558 25.1911L112.258 25.5062L112.229 26.2772L112.68 25.6911L113.384 25.922L112.924 25.3012L113.324 24.6481Z" fill="white"/>
<path d="M117.135 23.4708L116.469 23.6758L116.067 23.1364L116.067 23.1445L116.062 23.1379L116.036 23.8088L115.37 24.0138L116.069 24.3289L116.041 25.0999L116.492 24.5139L117.196 24.7447L116.736 24.1239L117.135 23.4708Z" fill="white"/>
<path d="M99.6105 27.1447L98.944 27.3496L98.5426 26.8103L98.5422 26.8182L98.5374 26.8119L98.5113 27.4826L97.8448 27.6876L98.5445 28.0026L98.516 28.7735L98.9669 28.1875L99.6711 28.4184L99.211 27.7977L99.6105 27.1447Z" fill="white"/>
<path d="M103.351 25.9893L102.684 26.1943L102.283 25.655L102.283 25.6628L102.278 25.6565L102.252 26.3274L101.585 26.5324L102.285 26.8475L102.256 27.6185L102.707 27.0324L103.411 27.2632L102.951 26.6424L103.351 25.9893Z" fill="white"/>
<path d="M107.183 24.8062L106.516 25.0112L106.115 24.4718L106.114 24.4798L106.11 24.4734L106.084 25.1442L105.417 25.3493L106.117 25.6644L106.088 26.4354L106.539 25.8493L107.243 26.0801L106.783 25.4593L107.183 24.8062Z" fill="white"/>
<path d="M110.948 23.6431L110.282 23.8481L109.88 23.3088L109.88 23.3166L109.875 23.3103L109.849 23.9812L109.183 24.1862L109.882 24.5013L109.854 25.2723L110.305 24.6862L111.009 24.917L110.549 24.2962L110.948 23.6431Z" fill="white"/>
<path d="M114.714 22.4806L114.047 22.6855L113.646 22.1462L113.646 22.1541L113.641 22.1478L113.615 22.8185L112.948 23.0235L113.648 23.3385L113.619 24.1094L114.07 23.5234L114.775 23.7542L114.315 23.1336L114.714 22.4806Z" fill="white"/>
<path d="M90.4725 14.0197L108.189 76.2711" stroke="black" stroke-width="2"/>
<defs>
<filter id="filter0_d" x="10.719" y="34.5361" width="84.2708" height="68.3504" filterUnits="userSpaceOnUse" color-interpolation-filters="sRGB">
<feFlood flood-opacity="0" result="BackgroundImageFix"/>
<feColorMatrix in="SourceAlpha" type="matrix" values="0 0 0 0 0 0 0 0 0 0 0 0 0 0 0 0 0 0 127 0"/>
<feOffset dy="4"/>
<feGaussianBlur stdDeviation="2"/>
<feColorMatrix type="matrix" values="0 0 0 0 0 0 0 0 0 0 0 0 0 0 0 0 0 0 0.07 0"/>
<feBlend mode="normal" in2="BackgroundImageFix" result="effect1_dropShadow"/>
<feBlend mode="normal" in="SourceGraphic" in2="effect1_dropShadow" result="shape"/>
</filter>
</defs>
</svg>
