<svg width="63" height="60" viewBox="0 0 63 60" fill="none" xmlns="http://www.w3.org/2000/svg">
<path d="M36.1574 40.8925L42.9984 59.2455L48.0211 48.6174C48.0211 48.6174 53.4858 48.2759 55.8364 46.7791C55.8364 46.7791 59.3925 45.433 61.8636 39.3254C62.4001 37.557 62.7371 35.7342 62.8682 33.8909V14.232C62.8278 11.744 62.1125 9.31356 60.7988 7.20022C59.4814 5.10658 57.6838 3.3572 55.5551 2.09716C55.5551 2.09716 52.8027 0.570255 47.569 0.570255H15.3132C13.5914 0.560614 11.8758 0.776758 10.2102 1.21316C7.03955 2.18654 4.32795 4.27376 2.57565 7.08972C1.73569 8.3664 1.11756 9.77586 0.747387 11.2586C0.439745 12.7431 0.27159 14.2531 0.245117 15.769L0.245117 36.3018C0.606249 39.2974 1.89128 42.1062 3.92174 44.3381C7.56345 47.4198 12.2118 49.0539 16.9808 48.9288H31.3859L28.5531 41.0934H15.3132C14.4216 41.0716 13.5438 40.8679 12.7336 40.4948C11.9235 40.1217 11.1981 39.587 10.6019 38.9236C10.6019 38.9236 8.51248 37.8688 8.51248 30.8873V14.3023C8.58397 13.5407 8.78439 12.7968 9.10516 12.1024C9.35268 11.3702 9.8061 10.725 10.4111 10.244C12.6988 8.72987 15.418 8.00334 18.1561 8.17463H47.3882C49.1824 8.26255 50.8766 9.02711 52.1296 10.3143C52.1296 10.3143 54.2492 12.2531 54.2492 14.4229V34.7246C54.2092 36.1615 53.6569 37.5367 52.6922 38.6022C52.2506 39.1913 51.6948 39.6854 51.0578 40.0547C50.4209 40.4241 49.7161 40.6612 48.9854 40.7519L36.1574 40.8925Z" fill="white"/>
</svg>
