<?xml version="1.0" encoding="utf-8"?>
<!-- Generator: Adobe Illustrator 19.2.1, SVG Export Plug-In . SVG Version: 6.00 Build 0)  -->
<svg version="1.1" id="Layer_1" xmlns="http://www.w3.org/2000/svg" xmlns:xlink="http://www.w3.org/1999/xlink" x="0px" y="0px"
	 viewBox="0 0 1153 217.4" style="enable-background:new 0 0 1153 217.4;" xml:space="preserve">
<style type="text/css">
	.st0{fill:#6A9B16;}
</style>
<g>
	<path class="st0" d="M436.7,158.8c-1.4-1.4-3.6-1.4-5-0.2c-5.1,4.4-11.4,7-18.1,7.3h-1.5c-16.4,0-29.7-13.3-29.7-29.7
		s13.3-29.7,29.7-29.7h10.3c0.8,0,1.5,0.7,1.5,1.5v6.5c0,2,1.7,3.7,3.7,3.7h9.3c2,0,3.7-1.7,3.7-3.7v-8.8c0-8.8-7.1-15.9-15.9-15.9
		h-14.6l-1.5,0.1V90c-24.2,1.8-43,21.9-43,46.4c0,25.1,20,45.7,45,46.5v0.1h1.5c11.5,0,22.6-4.3,31.1-12c0.8-0.7,1.2-1.6,1.2-2.7
		c0-1-0.4-2-1.1-2.7L436.7,158.8z"/>
	<path class="st0" d="M869.2,62.7h-9.3c-2,0-3.7,1.7-3.7,3.7v9.3c0,2,1.7,3.7,3.7,3.7h9.3c2,0,3.7-1.7,3.7-3.7v-9.3
		C872.9,64.4,871.2,62.7,869.2,62.7z"/>
	<path class="st0" d="M1069.1,165.7h-7c-0.5,0-1-0.2-1.2-0.7l-23.9-35.6l7.9-11.7c0.2-0.2,0.3-0.4,0.5-0.6l15.4-22.9
		c0.3-0.4,0.7-0.7,1.2-0.7h7c2.1,0,3.8-1.7,3.8-3.8v-9.2c0-1-0.4-2-1.1-2.7s-1.7-1.1-2.7-1.1h-8.1c-5,0-9.8,2.4-12.8,6.4
		c-0.1,0.1-0.1,0.2-0.2,0.3l-25,37c-0.2,0.3-0.4,0.4-0.6,0.5h-15.5V52.3c0-2.2-1.8-3.9-3.9-3.9H994c-2.2,0-3.9,1.8-3.9,3.9v126.5
		c0,2,1.7,3.7,3.7,3.7h9.3c2,0,3.7-1.7,3.7-3.7V138h15.5c0.2,0.1,0.4,0.2,0.6,0.5l16.3,24.4c0.1,0.1,0.1,0.2,0.2,0.3l8.2,12.2
		c3,4.5,8,7.2,13.4,7.2h8.1c1,0,2-0.4,2.7-1.1c0.7-0.7,1.1-1.7,1.1-2.7v-9.2C1072.9,167.4,1071.2,165.7,1069.1,165.7z"/>
	<path class="st0" d="M979.4,165.7H973c-0.8,0-1.5-0.7-1.5-1.5v-37.8v-1.5l0,0c-0.8-19.7-17.1-35.5-36.9-35.5h-1.5l0,0
		c-10.4,0.3-20.3,4.1-28.3,10.8v-7.9c0-1.7-1.6-3-3.7-3h-9.3c-2.1,0-3.7,1.3-3.7,3v86.4c0,2,1.7,3.7,3.7,3.7h9.3
		c2,0,3.7-1.7,3.7-3.7v-42.8c0-16.4,13.3-29.7,29.7-29.7h0.5c10.9,0.3,19.7,9.2,19.7,20.2v40.1c0,8.8,7.1,15.9,15.9,15.9h8.8
		c2,0,3.7-1.7,3.7-3.7v-9.3C983.1,167.3,981.5,165.7,979.4,165.7z"/>
	<path class="st0" d="M546.7,166.1h-6.5c-0.8,0-1.5-0.7-1.5-1.5v-37.8v-1.5l0,0c-0.8-19.7-17.1-35.5-36.9-35.5h-1.5l0,0
		c-10.4,0.3-20.3,4.1-28.2,10.8V40c0-2-1.7-3.7-3.7-3.7h-9.3c-2,0-3.7,1.7-3.7,3.7v139.1c0,2,1.7,3.7,3.7,3.7h9.3
		c2,0,3.7-1.7,3.7-3.7v-42.8c0-16.4,13.3-29.7,29.7-29.7h0.5c10.9,0.3,19.7,9.2,19.7,20.2v40.1c0,8.8,7.1,15.9,15.9,15.9h8.8
		c2,0,3.7-1.7,3.7-3.7v-9.3C550.4,167.8,548.7,166.1,546.7,166.1z"/>
	<path class="st0" d="M857,89.7h-8.8c-2,0-3.7,1.7-3.7,3.7v9.3c0,2,1.7,3.7,3.7,3.7h6.5c0.8,0,1.5,0.7,1.5,1.5v12.3v0.2
		c0,0.1,0,0.1,0,0.2V179c0,2,1.7,3.7,3.7,3.7h9.3c2,0,3.7-1.7,3.7-3.7v-73.4C872.9,96.9,865.7,89.7,857,89.7z"/>
	<path class="st0" d="M595.8,89c-12.4,0-23.8,4.9-32.1,13.8c-8,8.6-12.4,20.2-12.4,32.6s4.4,24,12.4,32.6
		c8.3,8.9,19.7,13.8,32.1,13.8s23.8-4.9,32.1-13.8c8-8.6,12.4-20.2,12.4-32.6s-4.4-24-12.4-32.6C619.6,93.9,608.2,89,595.8,89z
		 M595.8,165.2c-15.8,0-27.7-12.8-27.7-29.7c0-17,11.9-29.7,27.7-29.7s27.7,12.8,27.7,29.7C623.5,152.5,611.6,165.2,595.8,165.2z"/>
	<path class="st0" d="M695.6,89.2c-12.4,0-23.8,4.9-32.1,13.8c-8,8.6-12.4,20.2-12.4,32.6s4.4,24,12.4,32.6
		c8.3,8.9,19.7,13.8,32.1,13.8s23.8-4.9,32.1-13.8c8-8.6,12.4-20.2,12.4-32.6s-4.4-24-12.4-32.6C719.5,94.1,708.1,89.2,695.6,89.2z
		 M695.6,165.4c-15.8,0-27.7-12.8-27.7-29.7c0-17,11.9-29.7,27.7-29.7s27.7,12.8,27.7,29.7C723.4,152.7,711.5,165.4,695.6,165.4z"/>
	<path class="st0" d="M1138.8,113.6h9.3c1.5,0,2.7-1.2,2.7-2.7v-5.1c0-3-1-8.7-7.5-13.2l-0.1-0.1c-7.2-4.6-15.6-7-24.2-7h-14.8h-0.5
		l0,0c-14.3,0.3-25.8,12.1-25.8,26.4c0,5.8,2.3,11.2,6.4,15.3l0.4,0.3l0,0c2.4,2.3,5.1,4.1,8.2,5.4l0.5,0.2l0,0l21.3,8.8l0,0
		l15.7,6.5l0.3,0.1c1.3,0.6,2.4,1.4,3.4,2.4l0.3,0.2c1.1,1.3,1.8,2.9,1.8,4.6l0,0c0,6.4-5.2,11.7-11.7,11.7h-15.1
		c-5.7-0.1-11.2-1.7-16-4.8c-0.4-0.5-0.7-1.1-0.7-1.7v-4.1c0-1.5-1.2-2.7-2.7-2.7h-9.3c-1.5,0-2.7,1.2-2.7,2.7v5.1
		c0,3,1,8.7,7.5,13.2l0.1,0.1c7.3,4.6,15.6,7,24.2,7h14.8h0.5l0,0c14.3-0.3,25.8-12.1,25.8-26.4c0-5.8-2.3-11.2-6.4-15.3l-0.3-0.4
		l0,0c-2.4-2.3-5.1-4.1-8.2-5.4l-0.5-0.2l0,0l-13.7-5.7l0,0l-23.4-9.7l-0.3-0.1c-1.3-0.6-2.4-1.4-3.4-2.4l-0.3-0.2
		c-1.1-1.3-1.8-2.9-1.8-4.6l0,0c0-6.4,5.2-11.7,11.7-11.7h15.1c5.7,0.1,11.2,1.7,16,4.8c0.4,0.5,0.7,1.1,0.7,1.7v4.1
		C1136.1,112.4,1137.3,113.6,1138.8,113.6z"/>
	<path class="st0" d="M835.3,143.8H826c-2.3,0-4.2,1.9-4.2,4.2v16.5c0,0.6-0.4,1-1,1h-49.5c-0.6,0-1-0.4-1-1V45.8
		c0-2.4-2-4.4-4.4-4.4H757c-2.4,0-4.4,2-4.4,4.4v121c0,9,7.4,16.4,16.4,16.4h54.2c9,0,16.4-7.4,16.4-16.4V148
		C839.5,145.7,837.7,143.8,835.3,143.8z"/>
	<path class="st0" d="M355.7,55c0-0.1,0-0.2-0.1-0.2c-1-2.5-2.5-4.8-4.5-6.7c-8.8-9-20.5-13.9-32.9-13.9H302c-0.1,0-0.1,0-0.2,0
		c-21.1,0-38.9,18.5-38.9,40.4v0.3c0.1,12.7,8.2,24.2,20,28.7l41.8,17.3c8.9,3.7,14.6,12.2,14.7,21.8c0,0.1,0,0.1,0,0.2
		c0,12-9.8,22.6-21.1,22.6h-0.1h-15.9c-0.1,0-0.2,0-0.4,0c-7.4,0-14.4-2.9-19.8-8.1c-0.1-0.2-0.2-0.4-0.4-0.6
		c-0.2-0.2-0.4-0.5-0.5-0.8s-0.2-0.6-0.2-0.9c0-0.1,0-0.2,0-0.3v-17.1c0-2.3-1.9-4.2-4.2-4.2h-9.5c-2.3,0-4.2,1.9-4.2,4.2v17.1
		c0,0.1,0,0.1,0,0.2c0,2.6,0.5,5,1.5,7.4c0,0.1,0,0.2,0.1,0.2c1,2.5,2.5,4.8,4.5,6.7c8.8,9,20.5,13.9,32.9,13.9h16.3
		c0.1,0,0.1,0,0.2,0c21.1,0,38.9-18.5,38.9-40.4v-0.5c-0.2-16.6-10.3-31.5-25.7-37.9l-41.3-17.1c-0.2-0.1-0.4-0.2-0.5-0.3
		c-5.2-1.8-8.8-6.7-8.9-12.2c0-0.1,0-0.2,0-0.3c0-12,9.9-22.6,21.1-22.6h0.1H318c0.1,0,0.2,0,0.3,0c7.4,0,14.4,2.9,19.8,8.1
		c0.1,0.2,0.2,0.4,0.4,0.6c0.2,0.2,0.4,0.5,0.5,0.8s0.2,0.6,0.2,0.9c0,0.1,0,0.2,0,0.3v12.1c0,2.3,1.9,4.2,4.2,4.2h9.5
		c2.3,0,4.2-1.9,4.2-4.2V62.5c0-0.1,0-0.1,0-0.2C357.2,59.8,356.7,57.3,355.7,55z"/>
</g>
<path class="st0" d="M108.6,0.7C49,0.7,0.6,49,0.6,108.7c0,59.6,48.4,108,108,108c59.6,0,108-48.4,108-108
	C216.6,49,168.3,0.7,108.6,0.7z M132.7,181.8c-2,1.1-4.2,2-6.5,2.9c-1.6,0.6-3.2,1.1-4.9,1.5c-10.1,2.5-20.1,1.9-29.1-1.2
	c-5-1.7-9.7-4.3-14-7.6c-1.7-1.3-3.3-2.8-4.9-4.3l-24-24c-2.3-2.3-3.8-5.2-4.4-8.2c-0.2-1-0.3-2-0.3-3c0-1.5,0.2-3.1,0.7-4.5
	c0.3-1,0.7-1.9,1.2-2.9c0.7-1.4,1.7-2.7,2.8-3.8l6.9-6.9c1-1,2.5-1,3.5,0l7.3,7.3c0.3,0.3,0.4,0.5,0.6,0.8c0.4,0.9,0.2,1.9-0.6,2.7
	l-5.3,5.3c-1.1,1.1-1.1,3,0,4.2l22.4,22.4c8.8,8.8,21.6,12.3,34.3,8.8c2.1-0.6,4.2-1.4,6.1-2.4c21.7-11.7,24.5-39.4,8.6-55.3
	l-22.4-22.4c-1.1-1.1-3-1.1-4.2,0l-5.3,5.3c-1,1-2.5,1-3.5,0l-7.3-7.3c-1-1-1-2.5,0-3.5l6.9-6.9c6.2-6.2,16.3-6.2,22.5,0l24,24
	c14.2,14.1,18.1,34.7,11.6,52.4C151.6,165.7,144,175.3,132.7,181.8z M167.9,90.8l-6.9,6.9c-1,1-2.5,1-3.5,0l-7.3-7.3
	c-1-1-1-2.5,0-3.5l5.3-5.3c1.1-1.1,1.1-3,0-4.2L133.1,55c-13.5-13.5-35.5-13.5-49,0s-13.5,35.5,0,49l24,24c0.3,0.3,0.7,0.3,1,0
	l6.9-6.9c1-1,2.5-1,3.5,0l7.3,7.3c1,1,1,2.5,0,3.5l-5.3,5.3c-3.5,3.6-8.2,5.4-12.9,5.4c-4.7,0-9.3-1.8-12.9-5.3l-22.4-22.4
	c-9.8-9.8-14.6-22.6-14.6-35.4c0-12.8,4.9-25.6,14.6-35.3c19.5-19.5,51.1-19.5,70.6,0l24,24C174.2,74.5,174.2,84.6,167.9,90.8z"/>
</svg>
