<svg width="196" height="70" viewBox="0 0 196 70" fill="none" xmlns="http://www.w3.org/2000/svg">
<path d="M8.59086 20.252C7.15353 20.252 5.79086 20.0653 4.50286 19.692C3.23353 19.3 2.19753 18.7773 1.39486 18.124C0.965526 17.8067 0.750859 17.3587 0.750859 16.78C0.750859 16.388 0.862859 16.052 1.08686 15.772C1.32953 15.4733 1.60953 15.324 1.92686 15.324C2.26286 15.324 2.64553 15.4547 3.07486 15.716C3.87753 16.2947 4.71753 16.7147 5.59486 16.976C6.47219 17.2373 7.44286 17.368 8.50686 17.368C9.86953 17.368 10.9149 17.1347 11.6429 16.668C12.3709 16.1827 12.7349 15.4827 12.7349 14.568C12.7349 13.8587 12.3895 13.3173 11.6989 12.944C11.0269 12.552 9.89753 12.1787 8.31086 11.824C6.66819 11.4693 5.33353 11.0587 4.30686 10.592C3.28019 10.1253 2.50553 9.528 1.98286 8.8C1.46019 8.072 1.19886 7.148 1.19886 6.028C1.19886 4.87067 1.52553 3.83467 2.17886 2.92C2.83219 2.00533 3.73753 1.296 4.89486 0.791999C6.07086 0.269332 7.38686 0.0079987 8.84286 0.0079987C11.5122 0.0079987 13.6869 0.717332 15.3669 2.136C15.6095 2.34133 15.7775 2.54667 15.8709 2.752C15.9829 2.93867 16.0389 3.18133 16.0389 3.48C16.0389 3.872 15.9175 4.21733 15.6749 4.516C15.4509 4.796 15.1802 4.936 14.8629 4.936C14.6762 4.936 14.4989 4.908 14.3309 4.852C14.1815 4.796 13.9762 4.69333 13.7149 4.544C12.9495 3.984 12.2029 3.57333 11.4749 3.312C10.7655 3.032 9.88819 2.892 8.84286 2.892C7.57353 2.892 6.56553 3.15333 5.81886 3.676C5.09086 4.18 4.72686 4.88933 4.72686 5.804C4.72686 6.56933 5.05353 7.15733 5.70686 7.568C6.36019 7.97867 7.47086 8.36133 9.03886 8.716C10.7002 9.08933 12.0442 9.50933 13.0709 9.976C14.1162 10.424 14.9095 11.0027 15.4509 11.712C16.0109 12.4213 16.2909 13.308 16.2909 14.372C16.2909 15.5293 15.9642 16.556 15.3109 17.452C14.6762 18.3293 13.7709 19.02 12.5949 19.524C11.4375 20.0093 10.1029 20.252 8.59086 20.252ZM30.1423 16.248C30.4597 16.248 30.7117 16.3693 30.8983 16.612C31.1037 16.8547 31.2063 17.1813 31.2063 17.592C31.2063 18.1707 30.861 18.656 30.1703 19.048C29.5357 19.4027 28.817 19.692 28.0143 19.916C27.2117 20.1213 26.4463 20.224 25.7183 20.224C23.5157 20.224 21.7703 19.5893 20.4823 18.32C19.1943 17.0507 18.5503 15.3147 18.5503 13.112C18.5503 11.712 18.8303 10.4707 19.3903 9.388C19.9503 8.30533 20.7343 7.46533 21.7423 6.868C22.769 6.27067 23.9263 5.972 25.2143 5.972C26.4463 5.972 27.5197 6.24267 28.4343 6.784C29.349 7.32533 30.0583 8.09067 30.5623 9.08C31.0663 10.0693 31.3183 11.236 31.3183 12.58C31.3183 13.3827 30.9637 13.784 30.2543 13.784H21.9943C22.1063 15.072 22.4703 16.024 23.0863 16.64C23.7023 17.2373 24.5983 17.536 25.7743 17.536C26.3717 17.536 26.8943 17.4613 27.3423 17.312C27.809 17.1627 28.3317 16.9573 28.9103 16.696C29.4703 16.3973 29.881 16.248 30.1423 16.248ZM25.2983 8.436C24.3463 8.436 23.581 8.73467 23.0023 9.332C22.4423 9.92933 22.1063 10.788 21.9943 11.908H28.3223C28.285 10.7693 28.005 9.91067 27.4823 9.332C26.9597 8.73467 26.2317 8.436 25.2983 8.436ZM35.9173 20.168C35.4133 20.168 34.9933 20.028 34.6573 19.748C34.34 19.4493 34.1813 19.0293 34.1813 18.488V1.772C34.1813 1.23067 34.34 0.819999 34.6573 0.539999C34.9933 0.259999 35.4133 0.119999 35.9173 0.119999C36.4213 0.119999 36.8413 0.259999 37.1773 0.539999C37.5133 0.819999 37.6813 1.23067 37.6813 1.772V18.488C37.6813 19.0293 37.5133 19.4493 37.1773 19.748C36.8413 20.028 36.4213 20.168 35.9173 20.168ZM52.1267 16.248C52.444 16.248 52.696 16.3693 52.8827 16.612C53.088 16.8547 53.1907 17.1813 53.1907 17.592C53.1907 18.1707 52.8454 18.656 52.1547 19.048C51.52 19.4027 50.8014 19.692 49.9987 19.916C49.196 20.1213 48.4307 20.224 47.7027 20.224C45.5 20.224 43.7547 19.5893 42.4667 18.32C41.1787 17.0507 40.5347 15.3147 40.5347 13.112C40.5347 11.712 40.8147 10.4707 41.3747 9.388C41.9347 8.30533 42.7187 7.46533 43.7267 6.868C44.7534 6.27067 45.9107 5.972 47.1987 5.972C48.4307 5.972 49.504 6.24267 50.4187 6.784C51.3334 7.32533 52.0427 8.09067 52.5467 9.08C53.0507 10.0693 53.3027 11.236 53.3027 12.58C53.3027 13.3827 52.948 13.784 52.2387 13.784H43.9787C44.0907 15.072 44.4547 16.024 45.0707 16.64C45.6867 17.2373 46.5827 17.536 47.7587 17.536C48.356 17.536 48.8787 17.4613 49.3267 17.312C49.7934 17.1627 50.316 16.9573 50.8947 16.696C51.4547 16.3973 51.8654 16.248 52.1267 16.248ZM47.2827 8.436C46.3307 8.436 45.5654 8.73467 44.9867 9.332C44.4267 9.92933 44.0907 10.788 43.9787 11.908H50.3067C50.2694 10.7693 49.9894 9.91067 49.4667 9.332C48.944 8.73467 48.216 8.436 47.2827 8.436ZM62.2417 20.224C60.879 20.224 59.675 19.9347 58.6297 19.356C57.603 18.7773 56.8097 17.956 56.2497 16.892C55.6897 15.828 55.4097 14.5867 55.4097 13.168C55.4097 11.7493 55.699 10.4987 56.2777 9.416C56.875 8.31467 57.7057 7.46533 58.7697 6.868C59.8337 6.27067 61.0564 5.972 62.4377 5.972C63.1657 5.972 63.8937 6.07467 64.6217 6.28C65.3684 6.48533 66.0217 6.76533 66.5817 7.12C67.179 7.512 67.4777 8.00667 67.4777 8.604C67.4777 9.01467 67.375 9.35067 67.1697 9.612C66.983 9.85467 66.731 9.976 66.4137 9.976C66.2084 9.976 65.9937 9.92933 65.7697 9.836C65.5457 9.74267 65.3217 9.63067 65.0977 9.5C64.687 9.25733 64.295 9.07067 63.9217 8.94C63.5484 8.79067 63.119 8.716 62.6337 8.716C61.4764 8.716 60.5804 9.09867 59.9457 9.864C59.3297 10.6107 59.0217 11.6933 59.0217 13.112C59.0217 14.512 59.3297 15.5947 59.9457 16.36C60.5804 17.1067 61.4764 17.48 62.6337 17.48C63.1004 17.48 63.511 17.4147 63.8657 17.284C64.239 17.1347 64.6497 16.9387 65.0977 16.696C65.3777 16.528 65.6204 16.4067 65.8257 16.332C66.031 16.2387 66.2364 16.192 66.4417 16.192C66.7404 16.192 66.9924 16.3227 67.1977 16.584C67.403 16.8453 67.5057 17.172 67.5057 17.564C67.5057 17.8813 67.431 18.1613 67.2817 18.404C67.151 18.628 66.927 18.8333 66.6097 19.02C66.031 19.3933 65.359 19.692 64.5937 19.916C63.8284 20.1213 63.0444 20.224 62.2417 20.224ZM77.0316 17.564C77.9649 17.62 78.4316 18.04 78.4316 18.824C78.4316 19.272 78.2449 19.6173 77.8716 19.86C77.5169 20.084 77.0036 20.1773 76.3316 20.14L75.5756 20.084C72.4396 19.86 70.8716 18.18 70.8716 15.044V8.94H69.4716C68.9676 8.94 68.5756 8.828 68.2956 8.604C68.0343 8.38 67.9036 8.05333 67.9036 7.624C67.9036 7.19467 68.0343 6.868 68.2956 6.644C68.5756 6.42 68.9676 6.308 69.4716 6.308H70.8716V3.732C70.8716 3.228 71.0303 2.82667 71.3476 2.528C71.6649 2.22933 72.0943 2.08 72.6356 2.08C73.1583 2.08 73.5783 2.22933 73.8956 2.528C74.2129 2.82667 74.3716 3.228 74.3716 3.732V6.308H76.7516C77.2556 6.308 77.6383 6.42 77.8996 6.644C78.1796 6.868 78.3196 7.19467 78.3196 7.624C78.3196 8.05333 78.1796 8.38 77.8996 8.604C77.6383 8.828 77.2556 8.94 76.7516 8.94H74.3716V15.296C74.3716 16.6773 75.0063 17.4147 76.2756 17.508L77.0316 17.564ZM87.3955 20.252C85.9582 20.252 84.5955 20.0653 83.3075 19.692C82.0382 19.3 81.0022 18.7773 80.1995 18.124C79.7702 17.8067 79.5555 17.3587 79.5555 16.78C79.5555 16.388 79.6675 16.052 79.8915 15.772C80.1342 15.4733 80.4142 15.324 80.7315 15.324C81.0675 15.324 81.4502 15.4547 81.8795 15.716C82.6822 16.2947 83.5222 16.7147 84.3995 16.976C85.2769 17.2373 86.2475 17.368 87.3115 17.368C88.6742 17.368 89.7195 17.1347 90.4475 16.668C91.1755 16.1827 91.5395 15.4827 91.5395 14.568C91.5395 13.8587 91.1942 13.3173 90.5035 12.944C89.8315 12.552 88.7022 12.1787 87.1155 11.824C85.4729 11.4693 84.1382 11.0587 83.1115 10.592C82.0849 10.1253 81.3102 9.528 80.7875 8.8C80.2649 8.072 80.0035 7.148 80.0035 6.028C80.0035 4.87067 80.3302 3.83467 80.9835 2.92C81.6369 2.00533 82.5422 1.296 83.6995 0.791999C84.8755 0.269332 86.1915 0.0079987 87.6475 0.0079987C90.3169 0.0079987 92.4915 0.717332 94.1715 2.136C94.4142 2.34133 94.5822 2.54667 94.6755 2.752C94.7875 2.93867 94.8435 3.18133 94.8435 3.48C94.8435 3.872 94.7222 4.21733 94.4795 4.516C94.2555 4.796 93.9849 4.936 93.6675 4.936C93.4809 4.936 93.3035 4.908 93.1355 4.852C92.9862 4.796 92.7809 4.69333 92.5195 4.544C91.7542 3.984 91.0075 3.57333 90.2795 3.312C89.5702 3.032 88.6929 2.892 87.6475 2.892C86.3782 2.892 85.3702 3.15333 84.6235 3.676C83.8955 4.18 83.5315 4.88933 83.5315 5.804C83.5315 6.56933 83.8582 7.15733 84.5115 7.568C85.1649 7.97867 86.2755 8.36133 87.8435 8.716C89.5049 9.08933 90.8489 9.50933 91.8755 9.976C92.9209 10.424 93.7142 11.0027 94.2555 11.712C94.8155 12.4213 95.0955 13.308 95.0955 14.372C95.0955 15.5293 94.7689 16.556 94.1155 17.452C93.4809 18.3293 92.5755 19.02 91.3995 19.524C90.2422 20.0093 88.9075 20.252 87.3955 20.252ZM104.355 20.224C102.955 20.224 101.723 19.9347 100.659 19.356C99.6137 18.7773 98.8017 17.9467 98.223 16.864C97.6443 15.7813 97.355 14.5213 97.355 13.084C97.355 11.6467 97.6443 10.396 98.223 9.332C98.8017 8.24933 99.6137 7.41867 100.659 6.84C101.723 6.26133 102.955 5.972 104.355 5.972C105.755 5.972 106.978 6.26133 108.023 6.84C109.087 7.41867 109.899 8.24933 110.459 9.332C111.038 10.396 111.327 11.6467 111.327 13.084C111.327 14.5213 111.038 15.7813 110.459 16.864C109.899 17.9467 109.087 18.7773 108.023 19.356C106.978 19.9347 105.755 20.224 104.355 20.224ZM104.327 17.508C105.466 17.508 106.334 17.1347 106.931 16.388C107.528 15.6413 107.827 14.54 107.827 13.084C107.827 11.6467 107.528 10.5547 106.931 9.808C106.334 9.04267 105.475 8.66 104.355 8.66C103.235 8.66 102.367 9.04267 101.751 9.808C101.154 10.5547 100.855 11.6467 100.855 13.084C100.855 14.54 101.154 15.6413 101.751 16.388C102.348 17.1347 103.207 17.508 104.327 17.508ZM121.05 2.864C120.192 2.92 119.566 3.18133 119.174 3.648C118.782 4.11467 118.586 4.78667 118.586 5.664V6.308H120.966C122.012 6.308 122.534 6.74667 122.534 7.624C122.534 8.50133 122.012 8.94 120.966 8.94H118.586V18.488C118.586 19.0293 118.418 19.44 118.082 19.72C117.765 20 117.354 20.14 116.85 20.14C116.346 20.14 115.926 20 115.59 19.72C115.254 19.44 115.086 19.0293 115.086 18.488V8.94H113.686C112.641 8.94 112.118 8.50133 112.118 7.624C112.118 6.74667 112.641 6.308 113.686 6.308H115.086V6.112C115.086 4.35733 115.544 2.98533 116.458 1.996C117.392 0.987999 118.698 0.418666 120.378 0.287998L121.106 0.231999C121.853 0.175999 122.376 0.259999 122.674 0.483999C122.992 0.689332 123.15 1.016 123.15 1.464C123.15 2.26667 122.693 2.71467 121.778 2.808L121.05 2.864ZM130.516 17.564C131.449 17.62 131.916 18.04 131.916 18.824C131.916 19.272 131.729 19.6173 131.356 19.86C131.001 20.084 130.488 20.1773 129.816 20.14L129.06 20.084C125.924 19.86 124.356 18.18 124.356 15.044V8.94H122.956C122.452 8.94 122.06 8.828 121.78 8.604C121.519 8.38 121.388 8.05333 121.388 7.624C121.388 7.19467 121.519 6.868 121.78 6.644C122.06 6.42 122.452 6.308 122.956 6.308H124.356V3.732C124.356 3.228 124.515 2.82667 124.832 2.528C125.149 2.22933 125.579 2.08 126.12 2.08C126.643 2.08 127.063 2.22933 127.38 2.528C127.697 2.82667 127.856 3.228 127.856 3.732V6.308H130.236C130.74 6.308 131.123 6.42 131.384 6.644C131.664 6.868 131.804 7.19467 131.804 7.624C131.804 8.05333 131.664 8.38 131.384 8.604C131.123 8.828 130.74 8.94 130.236 8.94H127.856V15.296C127.856 16.6773 128.491 17.4147 129.76 17.508L130.516 17.564ZM152.467 7.064C152.597 6.728 152.784 6.476 153.027 6.308C153.288 6.14 153.568 6.056 153.867 6.056C154.296 6.056 154.679 6.20533 155.015 6.504C155.369 6.784 155.547 7.13867 155.547 7.568C155.547 7.81067 155.5 8.02533 155.407 8.212L150.787 19.048C150.637 19.4027 150.404 19.6733 150.087 19.86C149.788 20.0467 149.452 20.14 149.079 20.14C148.724 20.14 148.388 20.0467 148.071 19.86C147.772 19.6733 147.548 19.4027 147.399 19.048L144.067 11.04L140.847 19.048C140.697 19.4027 140.464 19.6733 140.147 19.86C139.848 20.0467 139.512 20.14 139.139 20.14C138.784 20.14 138.448 20.0467 138.131 19.86C137.813 19.6733 137.58 19.4027 137.431 19.048L132.839 8.212C132.745 7.96933 132.699 7.764 132.699 7.596C132.699 7.16667 132.885 6.80267 133.259 6.504C133.632 6.18667 134.043 6.028 134.491 6.028C134.808 6.028 135.097 6.112 135.359 6.28C135.62 6.448 135.816 6.7 135.947 7.036L139.251 15.576L142.639 7.12C142.788 6.76533 143.003 6.504 143.283 6.336C143.563 6.14933 143.871 6.056 144.207 6.056C144.543 6.056 144.851 6.14933 145.131 6.336C145.411 6.504 145.625 6.76533 145.775 7.12L149.191 15.604L152.467 7.064ZM163.684 5.972C165.588 5.972 166.997 6.448 167.912 7.4C168.845 8.33333 169.312 9.76133 169.312 11.684V18.516C169.312 19.02 169.162 19.4213 168.864 19.72C168.565 20 168.154 20.14 167.632 20.14C167.146 20.14 166.745 19.9907 166.428 19.692C166.129 19.3933 165.98 19.0013 165.98 18.516V17.9C165.662 18.628 165.158 19.1973 164.468 19.608C163.796 20.0187 163.012 20.224 162.116 20.224C161.201 20.224 160.37 20.0373 159.624 19.664C158.877 19.2907 158.289 18.7773 157.86 18.124C157.43 17.4707 157.216 16.7427 157.216 15.94C157.216 14.932 157.468 14.1387 157.972 13.56C158.494 12.9813 159.334 12.5613 160.492 12.3C161.649 12.0387 163.245 11.908 165.28 11.908H165.98V11.264C165.98 10.3493 165.784 9.68667 165.392 9.276C165 8.84667 164.365 8.632 163.488 8.632C162.946 8.632 162.396 8.716 161.836 8.884C161.276 9.03333 160.613 9.25733 159.848 9.556C159.362 9.79867 159.008 9.92 158.784 9.92C158.448 9.92 158.168 9.79867 157.944 9.556C157.738 9.31333 157.636 8.996 157.636 8.604C157.636 8.28667 157.71 8.016 157.86 7.792C158.028 7.54933 158.298 7.32533 158.672 7.12C159.325 6.76533 160.1 6.48533 160.996 6.28C161.91 6.07467 162.806 5.972 163.684 5.972ZM162.816 17.704C163.749 17.704 164.505 17.396 165.084 16.78C165.681 16.1453 165.98 15.3333 165.98 14.344V13.756H165.476C164.225 13.756 163.254 13.812 162.564 13.924C161.873 14.036 161.378 14.232 161.08 14.512C160.781 14.792 160.632 15.1747 160.632 15.66C160.632 16.2573 160.837 16.752 161.248 17.144C161.677 17.5173 162.2 17.704 162.816 17.704ZM180.513 6.028C180.998 5.99067 181.381 6.09333 181.661 6.336C181.941 6.57867 182.081 6.94267 182.081 7.428C182.081 7.932 181.959 8.30533 181.717 8.548C181.474 8.79067 181.035 8.94933 180.401 9.024L179.561 9.108C178.459 9.22 177.647 9.59333 177.125 10.228C176.621 10.8627 176.369 11.656 176.369 12.608V18.488C176.369 19.0293 176.201 19.4493 175.865 19.748C175.529 20.028 175.109 20.168 174.605 20.168C174.101 20.168 173.681 20.028 173.345 19.748C173.027 19.4493 172.869 19.0293 172.869 18.488V7.652C172.869 7.12933 173.027 6.728 173.345 6.448C173.681 6.168 174.091 6.028 174.577 6.028C175.062 6.028 175.454 6.168 175.753 6.448C176.051 6.70933 176.201 7.092 176.201 7.596V8.716C176.555 7.89467 177.078 7.26 177.769 6.812C178.478 6.364 179.262 6.112 180.121 6.056L180.513 6.028ZM194.15 16.248C194.467 16.248 194.719 16.3693 194.906 16.612C195.111 16.8547 195.214 17.1813 195.214 17.592C195.214 18.1707 194.869 18.656 194.178 19.048C193.543 19.4027 192.825 19.692 192.022 19.916C191.219 20.1213 190.454 20.224 189.726 20.224C187.523 20.224 185.778 19.5893 184.49 18.32C183.202 17.0507 182.558 15.3147 182.558 13.112C182.558 11.712 182.838 10.4707 183.398 9.388C183.958 8.30533 184.742 7.46533 185.75 6.868C186.777 6.27067 187.934 5.972 189.222 5.972C190.454 5.972 191.527 6.24267 192.442 6.784C193.357 7.32533 194.066 8.09067 194.57 9.08C195.074 10.0693 195.326 11.236 195.326 12.58C195.326 13.3827 194.971 13.784 194.262 13.784H186.002C186.114 15.072 186.478 16.024 187.094 16.64C187.71 17.2373 188.606 17.536 189.782 17.536C190.379 17.536 190.902 17.4613 191.35 17.312C191.817 17.1627 192.339 16.9573 192.918 16.696C193.478 16.3973 193.889 16.248 194.15 16.248ZM189.306 8.436C188.354 8.436 187.589 8.73467 187.01 9.332C186.45 9.92933 186.114 10.788 186.002 11.908H192.33C192.293 10.7693 192.013 9.91067 191.49 9.332C190.967 8.73467 190.239 8.436 189.306 8.436ZM28.2062 65.598C28.5422 66.102 28.7102 66.592 28.7102 67.068C28.7102 67.712 28.4442 68.244 27.9122 68.664C27.4082 69.084 26.8062 69.294 26.1062 69.294C25.6582 69.294 25.2242 69.196 24.8042 69C24.4122 68.776 24.0762 68.454 23.7962 68.034L18.2102 59.55C17.6502 58.654 17.0482 58.024 16.4042 57.66C15.7882 57.296 14.9762 57.114 13.9682 57.114H9.85217V66.522C9.85217 67.362 9.61417 68.034 9.13817 68.538C8.66217 69.014 8.01817 69.252 7.20617 69.252C6.39417 69.252 5.73617 69.014 5.23217 68.538C4.75617 68.034 4.51817 67.362 4.51817 66.522V41.952C4.51817 41.14 4.74217 40.51 5.19017 40.062C5.66617 39.614 6.31017 39.39 7.12217 39.39H17.6222C20.9822 39.39 23.5302 40.146 25.2662 41.658C27.0302 43.142 27.9122 45.298 27.9122 48.126C27.9122 50.422 27.2542 52.312 25.9382 53.796C24.6502 55.252 22.8162 56.19 20.4362 56.61C21.2482 56.806 21.9622 57.156 22.5782 57.66C23.1942 58.164 23.7962 58.864 24.3842 59.76L28.2062 65.598ZM16.8662 52.956C18.9102 52.956 20.4082 52.578 21.3602 51.822C22.3122 51.038 22.7882 49.848 22.7882 48.252C22.7882 46.628 22.3122 45.452 21.3602 44.724C20.4082 43.968 18.9102 43.59 16.8662 43.59H9.81017V52.956H16.8662ZM36.3253 69C35.5133 69 34.8693 68.776 34.3933 68.328C33.9453 67.88 33.7213 67.25 33.7213 66.438V41.952C33.7213 41.14 33.9453 40.51 34.3933 40.062C34.8693 39.614 35.5133 39.39 36.3253 39.39H51.4873C52.2993 39.39 52.9293 39.572 53.3773 39.936C53.8253 40.3 54.0493 40.818 54.0493 41.49C54.0493 42.19 53.8253 42.736 53.3773 43.128C52.9293 43.492 52.2993 43.674 51.4873 43.674H39.0133V51.822H50.6473C51.4593 51.822 52.0893 52.004 52.5373 52.368C52.9853 52.732 53.2093 53.264 53.2093 53.964C53.2093 54.636 52.9853 55.154 52.5373 55.518C52.0893 55.882 51.4593 56.064 50.6473 56.064H39.0133V64.716H51.4873C52.2993 64.716 52.9293 64.912 53.3773 65.304C53.8253 65.668 54.0493 66.2 54.0493 66.9C54.0493 67.572 53.8253 68.09 53.3773 68.454C52.9293 68.818 52.2993 69 51.4873 69H36.3253ZM79.9997 40.566C80.4477 39.614 81.1897 39.138 82.2257 39.138C82.9257 39.138 83.5557 39.362 84.1157 39.81C84.6757 40.258 84.9557 40.818 84.9557 41.49C84.9557 41.798 84.8717 42.148 84.7037 42.54L73.0697 67.572C72.8177 68.104 72.4257 68.524 71.8937 68.832C71.3897 69.112 70.8437 69.252 70.2557 69.252C69.6677 69.252 69.1077 69.112 68.5757 68.832C68.0717 68.524 67.6937 68.104 67.4417 67.572L55.8497 42.54C55.6817 42.148 55.5977 41.812 55.5977 41.532C55.5977 40.832 55.8777 40.258 56.4377 39.81C57.0257 39.362 57.6837 39.138 58.4117 39.138C58.8877 39.138 59.3217 39.264 59.7137 39.516C60.1337 39.74 60.4557 40.09 60.6797 40.566L70.3397 62.028L79.9997 40.566ZM91.1241 69.252C90.3121 69.252 89.6541 69 89.1501 68.496C88.6741 67.992 88.4361 67.334 88.4361 66.522V41.868C88.4361 41.056 88.6741 40.412 89.1501 39.936C89.6541 39.432 90.3121 39.18 91.1241 39.18C91.9641 39.18 92.6221 39.432 93.0981 39.936C93.6021 40.412 93.8541 41.056 93.8541 41.868V66.522C93.8541 67.334 93.6021 67.992 93.0981 68.496C92.6221 69 91.9641 69.252 91.1241 69.252ZM102.853 69C102.041 69 101.397 68.776 100.921 68.328C100.473 67.88 100.249 67.25 100.249 66.438V41.952C100.249 41.14 100.473 40.51 100.921 40.062C101.397 39.614 102.041 39.39 102.853 39.39H118.015C118.827 39.39 119.457 39.572 119.905 39.936C120.353 40.3 120.577 40.818 120.577 41.49C120.577 42.19 120.353 42.736 119.905 43.128C119.457 43.492 118.827 43.674 118.015 43.674H105.541V51.822H117.175C117.987 51.822 118.617 52.004 119.065 52.368C119.513 52.732 119.737 53.264 119.737 53.964C119.737 54.636 119.513 55.154 119.065 55.518C118.617 55.882 117.987 56.064 117.175 56.064H105.541V64.716H118.015C118.827 64.716 119.457 64.912 119.905 65.304C120.353 65.668 120.577 66.2 120.577 66.9C120.577 67.572 120.353 68.09 119.905 68.454C119.457 68.818 118.827 69 118.015 69H102.853ZM162.109 40.818C162.305 40.258 162.613 39.838 163.033 39.558C163.481 39.278 163.971 39.138 164.503 39.138C165.175 39.138 165.749 39.348 166.225 39.768C166.729 40.188 166.981 40.748 166.981 41.448C166.981 41.7 166.911 42.064 166.771 42.54L157.741 67.53C157.517 68.09 157.139 68.524 156.607 68.832C156.103 69.14 155.543 69.294 154.927 69.294C154.311 69.294 153.737 69.14 153.205 68.832C152.673 68.524 152.309 68.09 152.113 67.53L145.141 47.748L138.043 67.53C137.819 68.09 137.441 68.524 136.909 68.832C136.405 69.14 135.845 69.294 135.229 69.294C134.613 69.294 134.039 69.14 133.507 68.832C133.003 68.524 132.653 68.09 132.457 67.53L123.427 42.54C123.287 42.12 123.217 41.756 123.217 41.448C123.217 40.748 123.469 40.188 123.973 39.768C124.505 39.348 125.121 39.138 125.821 39.138C126.381 39.138 126.885 39.278 127.333 39.558C127.781 39.838 128.103 40.258 128.299 40.818L135.439 61.356L142.789 40.944C142.985 40.384 143.307 39.95 143.755 39.642C144.203 39.306 144.693 39.138 145.225 39.138C145.757 39.138 146.247 39.306 146.695 39.642C147.171 39.95 147.507 40.398 147.703 40.986L154.843 61.608L162.109 40.818ZM181.331 69.378C179.175 69.378 177.131 69.098 175.199 68.538C173.295 67.95 171.741 67.166 170.537 66.186C169.893 65.71 169.571 65.038 169.571 64.17C169.571 63.582 169.739 63.078 170.075 62.658C170.439 62.21 170.859 61.986 171.335 61.986C171.839 61.986 172.413 62.182 173.057 62.574C174.261 63.442 175.521 64.072 176.837 64.464C178.153 64.856 179.609 65.052 181.205 65.052C183.249 65.052 184.817 64.702 185.909 64.002C187.001 63.274 187.547 62.224 187.547 60.852C187.547 59.788 187.029 58.976 185.993 58.416C184.985 57.828 183.291 57.268 180.911 56.736C178.447 56.204 176.445 55.588 174.905 54.888C173.365 54.188 172.203 53.292 171.419 52.2C170.635 51.108 170.243 49.722 170.243 48.042C170.243 46.306 170.733 44.752 171.713 43.38C172.693 42.008 174.051 40.944 175.787 40.188C177.551 39.404 179.525 39.012 181.709 39.012C185.713 39.012 188.975 40.076 191.495 42.204C191.859 42.512 192.111 42.82 192.251 43.128C192.419 43.408 192.503 43.772 192.503 44.22C192.503 44.808 192.321 45.326 191.957 45.774C191.621 46.194 191.215 46.404 190.739 46.404C190.459 46.404 190.193 46.362 189.941 46.278C189.717 46.194 189.409 46.04 189.017 45.816C187.869 44.976 186.749 44.36 185.657 43.968C184.593 43.548 183.277 43.338 181.709 43.338C179.805 43.338 178.293 43.73 177.173 44.514C176.081 45.27 175.535 46.334 175.535 47.706C175.535 48.854 176.025 49.736 177.005 50.352C177.985 50.968 179.651 51.542 182.003 52.074C184.495 52.634 186.511 53.264 188.051 53.964C189.619 54.636 190.809 55.504 191.621 56.568C192.461 57.632 192.881 58.962 192.881 60.558C192.881 62.294 192.391 63.834 191.411 65.178C190.459 66.494 189.101 67.53 187.337 68.286C185.601 69.014 183.599 69.378 181.331 69.378Z" fill="#383838"/>
</svg>
