<svg width="160" height="158" viewBox="0 0 160 158" fill="none" xmlns="http://www.w3.org/2000/svg">
<path d="M108.083 81.1374C107.565 79.27 108.046 78.2166 109.673 77.135C117.339 72.0544 114.947 73.7595 122.498 68.5176C125.955 65.8818 132.023 61.1332 135.558 58.328C137.586 56.7204 140.563 55.2077 139.714 52.0419C139.206 50.1458 134.637 49.7216 133.167 49.5048C127.08 48.6152 104.513 48.338 100.131 48.2475C96.7294 48.1734 95.7155 48.1659 94.5368 44.9928C92.1176 38.5148 85.6731 17.8424 83.3938 14.5368C81.5335 11.8341 77.9797 11.8879 75.8177 14.3862C73.3649 17.224 57.5789 41.3235 55.1237 45.1128C53.9296 46.9504 52.5885 47.8418 50.2883 47.804C42.1159 47.6474 21.1826 48.3632 18.8978 48.7138C17.55 48.9179 16.2005 49.1486 14.8371 49.261C13.4654 49.3756 12.0653 49.2187 10.7137 49.4413C8.59707 49.7904 6.36145 50.0929 5.87496 52.8487C5.39414 55.5593 6.51303 58.2775 8.73885 59.6611C11.9133 61.6366 15.1901 63.4974 18.1971 65.7096C22.1458 68.6203 25.8347 71.8535 29.6914 74.8847C33.0298 77.5053 36.495 79.9699 39.8068 82.6238C43.9875 85.9695 44.8822 87.8841 42.5026 93.5459C40.958 97.2219 39.4447 100.916 38.1127 104.657C35.4087 112.255 28.2629 131.3 27.5527 133.287C26.2469 136.961 29.8854 141.132 33.5593 139.738C37.0802 138.402 50.6555 127.385 54.3043 124.174C58.3004 120.67 62.345 117.214 66.3411 113.709C68.6196 111.712 71.4625 111.788 73.9917 113.343C79.429 116.675 85.0192 119.782 90.5829 122.923C93.395 124.507 96.2703 125.996 99.1557 127.456C104.084 129.947 108.997 132.451 114.003 134.799C117.729 136.548 120.162 134.832 120.389 130.776C120.723 124.834 114.948 107.157 114.028 103.723C114.094 103.705 110.181 88.6348 108.083 81.1374Z" fill="url(#paint0_linear)"/>
<path d="M85.5782 63.0932C82.693 60.6645 78.9684 59.2002 74.9028 59.2002C65.7367 59.2002 58.3078 66.6304 58.3078 75.7952C58.3078 84.9614 65.7367 92.3916 74.9028 92.3916C78.9698 92.3916 82.693 90.926 85.5782 88.4986C89.1968 85.4545 91.4992 80.8945 91.4992 75.7952C91.4992 70.6973 89.1968 66.1373 85.5782 63.0932Z" fill="white"/>
<path d="M67.2794 77.2169L72.6158 82.5299L83.4266 71.7651" stroke="url(#paint1_linear)" stroke-width="2" stroke-miterlimit="10" stroke-linecap="round"/>
<defs>
<linearGradient id="paint0_linear" x1="136.923" y1="-24.6295" x2="149.383" y2="194.802" gradientUnits="userSpaceOnUse">
<stop stop-color="#8942FF"/>
<stop offset="1" stop-color="#3AF3FF"/>
</linearGradient>
<linearGradient id="paint1_linear" x1="86.0506" y1="70.3475" x2="60.4272" y2="78.4394" gradientUnits="userSpaceOnUse">
<stop stop-color="#8942FF"/>
<stop offset="1" stop-color="#3AF3FF"/>
</linearGradient>
</defs>
</svg>
