<svg width="100" height="100" viewBox="0 0 100 100" fill="none" xmlns="http://www.w3.org/2000/svg">
<path d="M32.0505 51.0094C32.3763 49.8355 32.0738 49.1732 31.0507 48.4932C26.2315 45.2991 27.7355 46.3711 22.9881 43.0756C20.815 41.4185 17 38.4332 14.7774 36.6696C13.5024 35.659 11.6312 34.708 12.1645 32.7177C12.4839 31.5256 15.3566 31.259 16.2804 31.1227C20.1076 30.5634 34.2946 30.3892 37.0497 30.3323C39.1882 30.2857 39.8256 30.281 40.5666 28.2861C42.0876 24.2135 46.1391 11.2172 47.572 9.139C48.7416 7.4399 50.9758 7.47374 52.335 9.04434C53.877 10.8284 63.8013 25.9793 65.3449 28.3615C66.0956 29.5168 66.9387 30.0772 68.3848 30.0534C73.5226 29.955 86.6829 30.405 88.1194 30.6254C88.9667 30.7537 89.8151 30.8988 90.6722 30.9694C91.5346 31.0415 92.4148 30.9428 93.2645 31.0828C94.5952 31.3022 96.0007 31.4924 96.3065 33.2249C96.6088 34.9291 95.9054 36.6379 94.5061 37.5077C92.5104 38.7497 90.4503 39.9195 88.5598 41.3103C86.0774 43.1402 83.7582 45.1728 81.3336 47.0785C79.2348 48.726 77.0563 50.2754 74.9743 51.9439C72.346 54.0473 71.7835 55.251 73.2795 58.8104C74.2506 61.1215 75.202 63.4437 76.0393 65.7957C77.7393 70.5723 82.2317 82.5458 82.6782 83.7951C83.4991 86.1043 81.2117 88.7267 78.902 87.8501C76.6885 87.0103 68.1539 80.0843 65.86 78.0659C63.3477 75.8628 60.805 73.6899 58.2927 71.4868C56.8603 70.2311 55.073 70.2786 53.4829 71.2564C50.0646 73.3509 46.5502 75.3046 43.0524 77.2792C41.2845 78.275 39.4768 79.2109 37.6629 80.1287C34.5647 81.6949 31.4756 83.269 28.329 84.7454C25.9864 85.845 24.4563 84.7661 24.3137 82.2164C24.1037 78.4806 27.7344 67.3676 28.3129 65.2085C28.2712 65.1973 30.7318 55.7229 32.0505 51.0094Z" fill="url(#paint0_linear)"/>
<path d="M60.6456 56.4836H42.8086C52.6649 53.432 58.8067 46.2447 60.6456 43.0325V56.4836Z" fill="white"/>
<path d="M39.2414 56.4837L60.6458 56.1864V39.5388" stroke="white" stroke-width="2"/>
<path d="M40.5315 55.2949L39.2414 56.5646L40.5315 57.8339" stroke="white" stroke-width="2" stroke-miterlimit="10" stroke-linecap="round"/>
<path d="M61.9953 39.9368L60.7256 38.6467L59.4564 39.9368" stroke="white" stroke-width="2" stroke-miterlimit="10" stroke-linecap="round"/>
<defs>
<linearGradient id="paint0_linear" x1="13.9194" y1="-15.484" x2="6.08585" y2="122.468" gradientUnits="userSpaceOnUse">
<stop stop-color="#8942FF"/>
<stop offset="1" stop-color="#3AF3FF"/>
</linearGradient>
</defs>
</svg>
