<svg width="125" height="125" viewBox="0 0 125 125" fill="none" xmlns="http://www.w3.org/2000/svg">
<path d="M40.0632 63.7618C40.4703 62.2944 40.0923 61.4665 38.8134 60.6166C32.7893 56.6239 34.6693 57.9639 28.7351 53.8445C26.0187 51.7732 21.2501 48.0415 18.4717 45.837C16.878 44.5738 14.539 43.385 15.2056 40.8972C15.6049 39.407 19.1958 39.0737 20.3505 38.9033C25.1345 38.2042 42.8682 37.9864 46.3121 37.9153C48.9853 37.8571 49.782 37.8512 50.7083 35.3576C52.6094 30.2669 57.6739 14.0215 59.465 11.4237C60.927 9.29986 63.7197 9.34216 65.4188 11.3054C67.3462 13.5355 79.7517 32.4741 81.6811 35.4519C82.6195 36.896 83.6734 37.5965 85.481 37.5668C91.9033 37.4437 108.354 38.0062 110.149 38.2817C111.208 38.4421 112.269 38.6235 113.34 38.7118C114.418 38.8018 115.518 38.6785 116.581 38.8535C118.244 39.1278 120.001 39.3655 120.383 41.5311C120.761 43.6613 119.882 45.7974 118.133 46.8847C115.638 48.4371 113.063 49.8994 110.7 51.6379C107.597 53.9252 104.698 56.466 101.667 58.8481C99.0435 60.9076 96.3204 62.8443 93.7178 64.9299C90.4325 67.5591 89.7294 69.0637 91.5993 73.513C92.8132 76.4018 94.0024 79.3046 95.0492 82.2447C97.1741 88.2154 102.79 103.182 103.348 104.744C104.374 107.63 101.515 110.908 98.6275 109.813C95.8606 108.763 85.1924 100.105 82.325 97.5823C79.1846 94.8285 76.0063 92.1124 72.8659 89.3585C71.0753 87.7889 68.8413 87.8483 66.8537 89.0705C62.5808 91.6887 58.1877 94.1307 53.8155 96.5989C51.6056 97.8438 49.346 99.0137 47.0786 100.161C43.2059 102.119 39.3445 104.086 35.4112 105.932C32.483 107.306 30.5704 105.958 30.3921 102.77C30.1297 98.1008 34.6679 84.2094 35.3911 81.5106C35.339 81.4967 38.4147 69.6537 40.0632 63.7618Z" fill="url(#paint0_linear)"/>
<path d="M47.7888 69.3252H69.8163" stroke="white" stroke-width="2" stroke-miterlimit="10" stroke-linecap="round"/>
<path d="M68.857 73.6391H48.4575C48.0884 73.6391 47.7889 73.3277 47.7889 72.9414V49.9267C47.7889 49.5404 48.0884 49.229 48.4575 49.229H81.7502C82.1192 49.229 82.4187 49.5404 82.4187 49.9267V56.0913" stroke="white" stroke-width="2" stroke-miterlimit="10" stroke-linecap="round"/>
<path d="M80.2037 77.1735H73.6527C72.686 77.1735 71.8995 76.2147 71.8995 75.0366V59.6661C71.8995 58.488 72.686 57.5293 73.6527 57.5293H80.2037C81.171 57.5293 81.9575 58.488 81.9575 59.6661V75.0366C81.9568 76.2147 81.1704 77.1735 80.2037 77.1735Z" fill="white"/>
<path d="M76.9288 74.6726C76.7406 74.6726 76.5664 74.6004 76.4358 74.4698C76.3046 74.3241 76.2324 74.1498 76.2324 73.9756C76.2324 73.7874 76.3046 73.6131 76.4358 73.4826C76.6962 73.2076 77.1607 73.2076 77.4211 73.4826C77.5523 73.6131 77.6245 73.7867 77.6245 73.9756C77.6245 74.1498 77.5523 74.3241 77.4211 74.4539C77.2766 74.6004 77.103 74.6726 76.9288 74.6726Z" fill="url(#paint1_linear)"/>
<defs>
<linearGradient id="paint0_linear" x1="17.3993" y1="-19.3551" x2="7.60732" y2="153.085" gradientUnits="userSpaceOnUse">
<stop stop-color="#8942FF"/>
<stop offset="1" stop-color="#3AF3FF"/>
</linearGradient>
<linearGradient id="paint1_linear" x1="77.8507" y1="73.0925" x2="75.5239" y2="73.5809" gradientUnits="userSpaceOnUse">
<stop stop-color="#8942FF"/>
<stop offset="1" stop-color="#3AF3FF"/>
</linearGradient>
</defs>
</svg>
