<svg width="176" height="124" viewBox="0 0 176 124" fill="none" xmlns="http://www.w3.org/2000/svg">
<path d="M11.7008 109.005C10.7578 104.96 11.5799 96.5349 22.4116 95.1897" stroke="black" stroke-width="2"/>
<path d="M98.6143 76.0368C104.195 75.6422 114.712 71.2342 112.136 56.7582" stroke="black" stroke-width="2"/>
<path d="M70.6946 100.375L73.2577 115.387L79.6185 114.301" stroke="black" stroke-width="2"/>
<path d="M51.5416 102.768L53.9277 117.808L47.5545 118.819" stroke="black" stroke-width="2"/>
<g filter="url(#filter0_d)">
<rect width="80.2046" height="59.8711" rx="9" transform="matrix(0.992376 -0.12325 0.123249 0.992376 15.158 47.8706)" fill="white"/>
</g>
<mask id="mask0" mask-type="alpha" maskUnits="userSpaceOnUse" x="15" y="38" width="86" height="66">
<rect width="80.6633" height="56.4949" rx="8" transform="matrix(0.992376 -0.12325 0.123249 0.992376 14.7661 47.9189)" fill="white"/>
</mask>
<g mask="url(#mask0)">
<rect width="83.5441" height="14.5054" transform="matrix(0.992376 -0.12325 0.123249 0.992376 14.7661 47.9189)" fill="#F15C5A"/>
</g>
<rect width="18.5843" height="3.61361" transform="matrix(0.992376 -0.12325 0.123249 0.992376 44.6465 41.9314)" fill="#383838"/>
<circle r="1.54869" transform="matrix(0.992376 -0.12325 0.123249 0.992376 45.8264 69.0677)" fill="#383838"/>
<circle r="1.54869" transform="matrix(0.992376 -0.12325 0.123249 0.992376 66.3186 66.5225)" fill="#383838"/>
<path d="M52.8738 75.3406C53.1178 77.3055 53.5737 80.9758 57.9281 80.435C62.2826 79.8942 61.8046 76.0452 61.5828 74.2589" stroke="black" stroke-width="2" stroke-linejoin="round"/>
<rect width="13.6839" height="2.88083" transform="matrix(0.992376 -0.12325 0.123249 0.992376 80.3457 85.0916)" fill="#F4F6FA"/>
<rect width="22.7141" height="2.58115" transform="matrix(0.992376 -0.12325 0.123249 0.992376 71.9004 91.3418)" fill="#F4F6FA"/>
<path d="M156.49 1.6379L101.132 18.6655L111.259 51.3323L166.617 34.3047L156.49 1.6379Z" fill="white"/>
<path d="M156.569 1.64646L101.122 18.7546L101.902 21.2782L157.348 4.17L156.569 1.64646Z" fill="#D1141C"/>
<path d="M158.12 6.67034L102.673 23.7781L103.453 26.3016L158.9 9.19383L158.12 6.67034Z" fill="#D1141C"/>
<path d="M159.702 11.7946L104.256 28.9023L105.036 31.4258L160.482 14.3181L159.702 11.7946Z" fill="#D1141C"/>
<path d="M161.224 16.7212L105.777 33.8293L106.557 36.3529L162.004 19.2447L161.224 16.7212Z" fill="#D1141C"/>
<path d="M162.744 21.6447L107.297 38.7524L108.077 41.2759L163.524 24.1682L162.744 21.6447Z" fill="#D1141C"/>
<path d="M164.326 26.769L108.88 43.8767L109.66 46.4002L165.106 29.2925L164.326 26.769Z" fill="#D1141C"/>
<path d="M165.847 31.6919L110.4 48.8L111.18 51.3236L166.626 34.2155L165.847 31.6919Z" fill="#D1141C"/>
<path d="M126.092 11.0423L101.126 18.7205L106.593 36.3534L131.559 28.6752L126.092 11.0423Z" fill="#27357D"/>
<path d="M104.659 19.2755L103.919 19.503L103.474 18.9043L103.473 18.9132L103.468 18.906L103.439 19.6507L102.699 19.8783L103.476 20.228L103.444 21.0839L103.945 20.4333L104.726 20.6895L104.216 20.0004L104.659 19.2755Z" fill="white"/>
<path d="M108.811 17.9935L108.071 18.2211L107.625 17.6223L107.625 17.6312L107.62 17.6241L107.591 18.3688L106.851 18.5963L107.628 18.9461L107.596 19.8019L108.096 19.1514L108.878 19.4076L108.367 18.7185L108.811 17.9935Z" fill="white"/>
<path d="M113.064 16.6803L112.324 16.9078L111.879 16.3091L111.878 16.318L111.873 16.3108L111.844 17.0555L111.104 17.2831L111.881 17.6328L111.849 18.4887L112.35 17.8381L113.131 18.0944L112.621 17.4053L113.064 16.6803Z" fill="white"/>
<path d="M117.245 15.3892L116.505 15.6168L116.059 15.018L116.059 15.027L116.053 15.0198L116.024 15.7644L115.284 15.992L116.061 16.3418L116.029 17.1976L116.53 16.5471L117.312 16.8033L116.801 16.1142L117.245 15.3892Z" fill="white"/>
<path d="M121.425 14.0983L120.685 14.3258L120.239 13.727L120.239 13.736L120.233 13.7288L120.204 14.4735L119.465 14.701L120.241 15.0508L120.21 15.9067L120.71 15.2561L121.492 15.5124L120.981 14.8233L121.425 14.0983Z" fill="white"/>
<path d="M125.656 12.7918L124.916 13.0194L124.47 12.4206L124.47 12.4296L124.465 12.4224L124.436 13.167L123.696 13.3946L124.472 13.7444L124.441 14.6002L124.941 13.9497L125.723 14.2059L125.212 13.5168L125.656 12.7918Z" fill="white"/>
<path d="M105.744 22.7884L105.004 23.016L104.558 22.4173L104.558 22.4262L104.552 22.419L104.524 23.1636L103.783 23.3911L104.56 23.7408L104.529 24.5965L105.029 23.9461L105.811 24.2022L105.3 23.5133L105.744 22.7884Z" fill="white"/>
<path d="M109.896 21.5062L109.156 21.7338L108.71 21.135L108.71 21.1439L108.704 21.1368L108.675 21.8814L107.936 22.109L108.712 22.4588L108.681 23.3146L109.181 22.6641L109.963 22.9203L109.452 22.2312L109.896 21.5062Z" fill="white"/>
<path d="M114.149 20.1927L113.409 20.4203L112.964 19.8215L112.963 19.8305L112.958 19.8233L112.929 20.568L112.189 20.7955L112.966 21.1453L112.934 22.0012L113.435 21.3506L114.216 21.6069L113.706 20.9177L114.149 20.1927Z" fill="white"/>
<path d="M118.329 18.9019L117.589 19.1295L117.144 18.5307L117.143 18.5397L117.138 18.5325L117.109 19.2771L116.369 19.5047L117.146 19.8545L117.114 20.7103L117.615 20.0598L118.397 20.316L117.886 19.6269L118.329 18.9019Z" fill="white"/>
<path d="M122.509 17.6114L121.769 17.839L121.324 17.2402L121.324 17.2492L121.318 17.242L121.289 17.9867L120.549 18.2142L121.326 18.564L121.294 19.4199L121.795 18.7693L122.577 19.0255L122.066 18.3364L122.509 17.6114Z" fill="white"/>
<path d="M126.74 16.3048L126 16.5323L125.555 15.9336L125.554 15.9425L125.549 15.9353L125.52 16.68L124.78 16.9076L125.557 17.2573L125.525 18.1132L126.026 17.4626L126.807 17.7188L126.297 17.0297L126.74 16.3048Z" fill="white"/>
<path d="M107.287 20.3822L106.547 20.6097L106.102 20.011L106.101 20.0199L106.096 20.0127L106.067 20.7574L105.327 20.985L106.104 21.3347L106.072 22.1906L106.572 21.54L107.354 21.7963L106.843 21.1072L107.287 20.3822Z" fill="white"/>
<path d="M111.439 19.1004L110.699 19.328L110.253 18.7292L110.253 18.7381L110.248 18.7309L110.219 19.4756L109.479 19.7032L110.255 20.053L110.224 20.9088L110.724 20.2582L111.506 20.5145L110.995 19.8254L111.439 19.1004Z" fill="white"/>
<path d="M115.693 17.787L114.953 18.0145L114.507 17.4158L114.507 17.4248L114.501 17.4175L114.473 18.1621L113.732 18.3896L114.509 18.7393L114.478 19.595L114.978 18.9446L115.76 19.2008L115.249 18.5118L115.693 17.787Z" fill="white"/>
<path d="M119.873 16.4962L119.133 16.7237L118.687 16.125L118.687 16.1339L118.681 16.1267L118.652 16.8714L117.912 17.099L118.689 17.4487L118.657 18.3046L119.158 17.654L119.94 17.9102L119.429 17.2211L119.873 16.4962Z" fill="white"/>
<path d="M124.053 15.2051L123.313 15.4327L122.867 14.834L122.867 14.8429L122.862 14.8357L122.833 15.5804L122.093 15.8079L122.869 16.1577L122.838 17.0136L123.338 16.363L124.12 16.6192L123.609 15.9301L124.053 15.2051Z" fill="white"/>
<path d="M106.838 26.3304L106.098 26.558L105.652 25.9592L105.652 25.9682L105.646 25.9609L105.617 26.7056L104.877 26.9332L105.654 27.2829L105.622 28.1388L106.123 27.4882L106.905 27.7445L106.394 27.0554L106.838 26.3304Z" fill="white"/>
<path d="M110.989 25.0487L110.249 25.2762L109.804 24.6775L109.804 24.6865L109.798 24.6793L109.769 25.4239L109.029 25.6514L109.806 26.0011L109.774 26.8568L110.275 26.2064L111.057 26.4626L110.546 25.7736L110.989 25.0487Z" fill="white"/>
<path d="M115.243 23.7352L114.503 23.9627L114.058 23.3641L114.057 23.373L114.052 23.3658L114.023 24.1104L113.283 24.3379L114.06 24.6876L114.028 25.5433L114.529 24.8929L115.31 25.1491L114.8 24.4601L115.243 23.7352Z" fill="white"/>
<path d="M119.423 22.4444L118.683 22.672L118.238 22.0732L118.237 22.0822L118.232 22.0749L118.203 22.8196L117.463 23.0472L118.24 23.397L118.208 24.2528L118.708 23.6023L119.49 23.8585L118.98 23.1694L119.423 22.4444Z" fill="white"/>
<path d="M123.603 21.1534L122.863 21.381L122.418 20.7822L122.417 20.7912L122.412 20.784L122.383 21.5287L121.643 21.7562L122.42 22.106L122.388 22.9619L122.889 22.3113L123.67 22.5675L123.16 21.8784L123.603 21.1534Z" fill="white"/>
<path d="M127.834 19.8467L127.094 20.0743L126.649 19.4756L126.648 19.4845L126.643 19.4773L126.614 20.222L125.874 20.4495L126.651 20.7993L126.619 21.6552L127.12 21.0046L127.901 21.2608L127.391 20.5717L127.834 19.8467Z" fill="white"/>
<path d="M108.381 23.9249L107.641 24.1525L107.196 23.5537L107.195 23.5626L107.19 23.5555L107.161 24.3002L106.421 24.5277L107.198 24.8775L107.166 25.7333L107.667 25.0828L108.448 25.339L107.938 24.6499L108.381 23.9249Z" fill="white"/>
<path d="M112.533 22.6426L111.793 22.8702L111.347 22.2715L111.347 22.2804L111.342 22.2732L111.313 23.0179L110.573 23.2454L111.349 23.5952L111.318 24.4511L111.818 23.8005L112.6 24.0567L112.089 23.3676L112.533 22.6426Z" fill="white"/>
<path d="M116.786 21.3292L116.046 21.5567L115.601 20.958L115.6 20.9669L115.595 20.9597L115.566 21.7044L114.826 21.932L115.603 22.2817L115.571 23.1376L116.072 22.487L116.854 22.7432L116.343 22.0541L116.786 21.3292Z" fill="white"/>
<path d="M120.966 20.0387L120.226 20.2662L119.781 19.6675L119.78 19.6764L119.775 19.6693L119.746 20.4138L119.006 20.6413L119.783 20.991L119.751 21.8467L120.252 21.1962L121.033 21.4525L120.523 20.7635L120.966 20.0387Z" fill="white"/>
<path d="M125.147 18.7476L124.406 18.9752L123.961 18.3765L123.961 18.3854L123.955 18.3782L123.926 19.1228L123.186 19.3504L123.963 19.7002L123.931 20.556L124.432 19.9055L125.214 20.1617L124.703 19.4726L125.147 18.7476Z" fill="white"/>
<path d="M107.908 29.7977L107.168 30.0252L106.723 29.4266L106.722 29.4355L106.717 29.4283L106.688 30.1728L105.948 30.4004L106.725 30.7501L106.693 31.6058L107.194 30.9553L107.975 31.2115L107.465 30.5225L107.908 29.7977Z" fill="white"/>
<path d="M112.06 28.5155L111.32 28.743L110.874 28.1443L110.874 28.1532L110.869 28.146L110.84 28.8907L110.1 29.1183L110.877 29.468L110.845 30.3239L111.345 29.6733L112.127 29.9296L111.616 29.2405L112.06 28.5155Z" fill="white"/>
<path d="M116.313 27.202L115.573 27.4296L115.128 26.8308L115.128 26.8397L115.122 26.8326L115.093 27.5773L114.353 27.8048L115.13 28.1546L115.098 29.0104L115.599 28.3599L116.381 28.6161L115.87 27.927L116.313 27.202Z" fill="white"/>
<path d="M120.494 25.9112L119.754 26.1388L119.308 25.54L119.308 25.549L119.303 25.5417L119.274 26.2864L118.533 26.514L119.31 26.8638L119.279 27.7196L119.779 27.0691L120.561 27.3253L120.05 26.6362L120.494 25.9112Z" fill="white"/>
<path d="M124.674 24.6205L123.934 24.848L123.488 24.2493L123.488 24.2583L123.482 24.2511L123.454 24.9956L122.714 25.2231L123.49 25.5728L123.459 26.4286L123.959 25.7781L124.741 26.0344L124.23 25.3454L124.674 24.6205Z" fill="white"/>
<path d="M128.905 23.3141L128.165 23.5416L127.719 22.9429L127.719 22.9519L127.714 22.9446L127.685 23.6892L126.945 23.9167L127.721 24.2664L127.69 25.1221L128.19 24.4717L128.972 24.7279L128.461 24.0389L128.905 23.3141Z" fill="white"/>
<path d="M109.451 27.3917L108.712 27.6192L108.266 27.0205L108.266 27.0294L108.26 27.0223L108.231 27.7669L107.491 27.9945L108.268 28.3442L108.237 29.2001L108.737 28.5496L109.519 28.8058L109.008 28.1167L109.451 27.3917Z" fill="white"/>
<path d="M113.603 26.1097L112.863 26.3372L112.418 25.7386L112.418 25.7475L112.412 25.7403L112.383 26.4848L111.643 26.7124L112.42 27.0621L112.388 27.9178L112.889 27.2673L113.671 27.5235L113.16 26.8346L113.603 26.1097Z" fill="white"/>
<path d="M117.857 24.796L117.117 25.0235L116.671 24.4248L116.671 24.4337L116.666 24.4265L116.637 25.1712L115.897 25.3988L116.673 25.7485L116.642 26.6044L117.142 25.9538L117.924 26.21L117.414 25.5209L117.857 24.796Z" fill="white"/>
<path d="M122.037 23.5054L121.297 23.733L120.851 23.1343L120.851 23.1432L120.846 23.136L120.817 23.8807L120.077 24.1082L120.853 24.458L120.822 25.3138L121.322 24.6632L122.104 24.9195L121.593 24.2304L122.037 23.5054Z" fill="white"/>
<path d="M126.217 22.2144L125.477 22.442L125.031 21.8432L125.031 21.8522L125.026 21.845L124.997 22.5896L124.257 22.8172L125.034 23.167L125.002 24.0228L125.502 23.3723L126.284 23.6285L125.774 22.9394L126.217 22.2144Z" fill="white"/>
<path d="M109.002 33.3399L108.262 33.5675L107.817 32.9687L107.816 32.9777L107.811 32.9705L107.782 33.7151L107.042 33.9427L107.819 34.2925L107.787 35.1483L108.288 34.4978L109.069 34.754L108.559 34.0649L109.002 33.3399Z" fill="white"/>
<path d="M113.154 32.058L112.414 32.2855L111.968 31.6868L111.968 31.6958L111.963 31.6886L111.934 32.4331L111.194 32.6606L111.971 33.0103L111.939 33.8661L112.439 33.2156L113.221 33.4719L112.71 32.7829L113.154 32.058Z" fill="white"/>
<path d="M117.407 30.7442L116.667 30.9718L116.222 30.373L116.222 30.382L116.216 30.3748L116.187 31.1195L115.447 31.347L116.224 31.6968L116.192 32.5527L116.693 31.9021L117.474 32.1584L116.964 31.4692L117.407 30.7442Z" fill="white"/>
<path d="M121.588 29.4537L120.848 29.6813L120.402 29.0825L120.402 29.0914L120.396 29.0842L120.368 29.8289L119.627 30.0565L120.404 30.4062L120.373 31.2621L120.873 30.6115L121.655 30.8677L121.144 30.1787L121.588 29.4537Z" fill="white"/>
<path d="M125.768 28.1627L125.028 28.3903L124.582 27.7915L124.582 27.8004L124.577 27.7933L124.548 28.5379L123.808 28.7655L124.584 29.1153L124.553 29.9711L125.053 29.3206L125.835 29.5768L125.324 28.8877L125.768 28.1627Z" fill="white"/>
<path d="M129.999 26.8563L129.259 27.0838L128.813 26.4851L128.813 26.494L128.808 26.4868L128.779 27.2315L128.039 27.4591L128.815 27.8088L128.784 28.6647L129.284 28.0141L130.066 28.2703L129.555 27.5812L129.999 26.8563Z" fill="white"/>
<path d="M110.545 30.934L109.805 31.1615L109.36 30.5628L109.359 30.5716L109.354 30.5646L109.325 31.3091L108.585 31.5366L109.362 31.8863L109.33 32.7421L109.831 32.0916L110.613 32.3478L110.102 31.6588L110.545 30.934Z" fill="white"/>
<path d="M114.697 29.6519L113.957 29.8795L113.511 29.2807L113.511 29.2895L113.506 29.2825L113.477 30.0271L112.737 30.2547L113.514 30.6045L113.482 31.4603L113.983 30.8097L114.764 31.066L114.254 30.3769L114.697 29.6519Z" fill="white"/>
<path d="M118.951 28.3384L118.211 28.566L117.765 27.9673L117.765 27.976L117.76 27.969L117.731 28.7137L116.991 28.9412L117.767 29.291L117.736 30.1469L118.236 29.4963L119.018 29.7525L118.508 29.0634L118.951 28.3384Z" fill="white"/>
<path d="M123.131 27.0474L122.391 27.275L121.945 26.6762L121.945 26.685L121.94 26.678L121.911 27.4226L121.171 27.6502L121.947 28L121.916 28.8558L122.416 28.2052L123.198 28.4615L122.687 27.7724L123.131 27.0474Z" fill="white"/>
<path d="M127.311 25.7569L126.571 25.9845L126.125 25.3858L126.125 25.3946L126.12 25.3875L126.091 26.1321L125.351 26.3596L126.127 26.7093L126.096 27.565L126.596 26.9146L127.378 27.1708L126.867 26.4818L127.311 25.7569Z" fill="white"/>
<path d="M100.402 16.3647L120.068 85.4665" stroke="black" stroke-width="2"/>
<defs>
<filter id="filter0_d" x="12.1978" y="39.0251" width="92.8928" height="75.2204" filterUnits="userSpaceOnUse" color-interpolation-filters="sRGB">
<feFlood flood-opacity="0" result="BackgroundImageFix"/>
<feColorMatrix in="SourceAlpha" type="matrix" values="0 0 0 0 0 0 0 0 0 0 0 0 0 0 0 0 0 0 127 0"/>
<feOffset dy="4"/>
<feGaussianBlur stdDeviation="2"/>
<feColorMatrix type="matrix" values="0 0 0 0 0 0 0 0 0 0 0 0 0 0 0 0 0 0 0.07 0"/>
<feBlend mode="normal" in2="BackgroundImageFix" result="effect1_dropShadow"/>
<feBlend mode="normal" in="SourceGraphic" in2="effect1_dropShadow" result="shape"/>
</filter>
</defs>
</svg>
