<svg width="175" height="142" viewBox="0 0 175 142" fill="none" xmlns="http://www.w3.org/2000/svg">
<path d="M110.609 84.437C118.43 64.6166 150.301 76.7637 170.251 72.9687C170.802 74.2383 166.959 83.9633 157.476 82.3699C158.658 85.1679 155.476 91.4914 148.821 90.6113C144.625 102.021 135.108 98.2615 133.577 97.4191C122.82 109.02 105.8 96.1383 110.609 84.437Z" fill="#CBDAEB"/>
<path d="M59.5822 61.9796C71.1258 44.0697 42.6751 25.2571 34.1274 6.83605C32.7746 7.12855 27.1139 15.9207 33.9375 22.6966C30.975 23.3675 27.6927 29.6395 32.2877 34.5335C25.4636 44.5942 34.0672 50.1351 35.6437 50.8872C32.4903 66.391 52.93 72.7252 59.5822 61.9796Z" fill="#CBDAEB"/>
<path d="M124.93 119.145C127.116 115.614 129.028 107.368 119.194 102.633" stroke="black" stroke-width="2"/>
<path d="M53.102 60.1409C47.9401 57.9844 39.3824 50.4478 46.4472 37.553" stroke="black" stroke-width="2"/>
<path d="M71.7844 92.1228L64.5602 105.529L58.8796 102.468" stroke="black" stroke-width="2"/>
<path d="M89.1695 100.508L82.1038 113.999L87.82 116.993" stroke="black" stroke-width="2"/>
<g filter="url(#filter0_d)">
<rect width="80.2046" height="59.8711" rx="9" transform="matrix(-0.901009 -0.433801 -0.433801 0.901009 141.184 60.1101)" fill="white"/>
</g>
<mask id="mask0" mask-type="alpha" maskUnits="userSpaceOnUse" x="47" y="27" width="92" height="82">
<rect width="80.6633" height="56.4949" rx="8" transform="matrix(-0.901009 -0.433801 -0.433801 0.901009 141.539 60.2812)" fill="white"/>
</mask>
<g mask="url(#mask0)">
<rect width="83.5441" height="14.5054" transform="matrix(-0.901009 -0.433801 -0.433801 0.901009 141.539 60.2812)" fill="#F15C5A"/>
</g>
<rect width="18.5843" height="3.61361" transform="matrix(-0.901009 -0.433801 -0.433801 0.901009 115.137 45.0623)" fill="#383838"/>
<circle r="1.54869" transform="matrix(-0.901009 -0.433801 -0.433801 0.901009 105.351 70.3996)" fill="#383838"/>
<circle r="1.54869" transform="matrix(-0.901009 -0.433801 -0.433801 0.901009 86.7451 61.4418)" fill="#383838"/>
<path d="M96.6685 74.0928C95.8095 75.8767 94.2051 79.2092 90.2515 77.3057C86.2979 75.4022 87.9805 71.9076 88.7613 70.2858" stroke="black" stroke-width="2" stroke-linejoin="round"/>
<rect width="13.6839" height="2.88083" transform="matrix(-0.901009 -0.433801 -0.433801 0.901009 67.5212 74.557)" fill="#F4F6FA"/>
<rect width="22.7141" height="2.58115" transform="matrix(-0.901009 -0.433801 -0.433801 0.901009 73.5273 83.1776)" fill="#F4F6FA"/>
<defs>
<filter id="filter0_d" x="41.9575" y="28.3284" width="100.215" height="90.7148" filterUnits="userSpaceOnUse" color-interpolation-filters="sRGB">
<feFlood flood-opacity="0" result="BackgroundImageFix"/>
<feColorMatrix in="SourceAlpha" type="matrix" values="0 0 0 0 0 0 0 0 0 0 0 0 0 0 0 0 0 0 127 0"/>
<feOffset dy="4"/>
<feGaussianBlur stdDeviation="2"/>
<feColorMatrix type="matrix" values="0 0 0 0 0 0 0 0 0 0 0 0 0 0 0 0 0 0 0.07 0"/>
<feBlend mode="normal" in2="BackgroundImageFix" result="effect1_dropShadow"/>
<feBlend mode="normal" in="SourceGraphic" in2="effect1_dropShadow" result="shape"/>
</filter>
</defs>
</svg>
