<svg width="139" height="284" viewBox="0 0 139 284" fill="none" xmlns="http://www.w3.org/2000/svg">
<path fill-rule="evenodd" clip-rule="evenodd" d="M7.96776 273.614C5.31955 273.472 2.66064 273.499 0.000664884 273.542C10.6781 268.42 19.7723 260.78 24.5752 256.328C26.9872 250.94 25.7541 244.805 24.8051 237.996C23.7616 230.502 24.6802 221.18 35.5762 214.515C28.7277 221.569 36.2044 231.558 35.925 239.778C35.7236 245.952 33.1603 251.277 28.2963 255.877L28.2941 255.911C28.2941 255.911 26.8481 257.492 24.4375 259.862C31.3999 258.091 37.5444 260.24 42.3757 262.964C50.3888 267.484 57.1078 272.002 65.7748 268.382C56.7866 274.894 48.234 276.708 39.8671 273.687C33.4404 271.362 27.8205 263.929 20.9489 263.18C17.3947 266.443 12.8363 270.304 7.96776 273.614Z" fill="url(#paint0_linear)"/>
<path fill-rule="evenodd" clip-rule="evenodd" d="M71.4987 36.8917C66.3217 33.9381 61.6981 36.1309 56.255 38.1909C51.6249 39.9424 45.4844 40.7604 39.3478 34.9846C45.043 38.1996 50.1741 32.0805 55.5016 31.0284C60.9513 29.9522 66.1603 31.8573 71.2595 36.5845C67.9399 32.0832 68.2381 27.3774 69.2723 23.5776C70.8039 17.9187 72.5415 13.0898 68.7434 8.24543C74.4529 12.8685 77.1001 17.9098 76.5865 23.5647C76.1103 28.9005 70.4889 34.5909 74.3482 39.83C73.1853 38.8563 72.2637 37.8847 71.4987 36.8917Z" fill="url(#paint1_linear)"/>
<path fill-rule="evenodd" clip-rule="evenodd" d="M48.8816 14.8596C46.8192 9.30734 45.3939 4.31401 39.4943 2.43945C46.8028 3.03628 51.8747 5.72633 54.767 10.7005C57.4877 15.3899 56.2808 23.2754 62.4551 25.4429C54.0731 24.6422 50.6231 19.4883 48.8816 14.8596Z" fill="url(#paint2_linear)"/>
<path fill-rule="evenodd" clip-rule="evenodd" d="M86.7912 58.2956C85.6663 57.0038 84.7999 55.7156 84.1039 54.4578C78.7418 50.1197 73.0187 51.7491 66.4015 53.0703C60.7619 54.1981 53.5698 53.9833 47.6474 46.2471C53.5541 50.9671 60.6066 44.9547 66.911 44.7604C73.3709 44.5615 78.9471 47.697 83.8894 54.0342C80.9616 48.2802 82.2104 42.9931 84.1284 38.843C86.9657 32.6995 89.9147 27.5133 86.5001 21.2803C92.1499 27.6059 94.202 33.8494 92.5074 40.1852C90.9372 46.1922 83.4054 51.6076 86.7912 58.2956Z" fill="url(#paint3_linear)"/>
<path fill-rule="evenodd" clip-rule="evenodd" d="M95.8205 78.0141C94.9618 76.6084 94.3238 75.2541 93.8894 73.9499C89.4643 68.9937 83.7532 69.6412 77.2071 69.8669C71.6448 70.0691 64.8026 68.7137 60.3971 60.4575C65.2768 65.8561 72.9783 61.2692 79.0284 62.0708C85.2328 62.8846 90.0554 66.738 93.7436 73.532C91.8775 67.6275 93.9245 62.7952 96.4134 59.1493C100.116 53.7543 103.759 49.3026 101.513 42.8601C105.885 49.7422 106.834 55.9803 104.212 61.7319C101.73 67.173 93.6541 71.1376 95.8205 78.0141Z" fill="url(#paint4_linear)"/>
<path fill-rule="evenodd" clip-rule="evenodd" d="M101.883 99.9093C101.227 98.3005 100.805 96.7949 100.568 95.3716C96.8247 89.4736 90.7445 89.1776 83.8574 88.293C78.0128 87.5418 71.1114 84.9808 67.9637 75.6611C72.1039 82.0982 80.9711 78.6556 87.1417 80.5156C93.4644 82.4215 97.8282 87.2349 100.476 94.9243C99.5759 88.4734 102.56 83.8027 105.803 80.4725C110.632 75.5082 115.21 71.5054 114.004 64.438C117.363 72.3361 117.236 78.9593 113.474 84.4821C109.975 89.6704 100.842 92.415 101.883 99.9093Z" fill="url(#paint5_linear)"/>
<path fill-rule="evenodd" clip-rule="evenodd" d="M104.289 125.045C103.87 123.219 103.702 121.532 103.698 119.959C100.747 112.994 94.2396 111.599 87.0056 109.436C80.8351 107.611 73.8867 103.661 72.2126 93.1287C75.484 100.744 85.6602 98.6083 91.9745 101.696C98.4397 104.847 102.267 110.764 103.713 119.452C103.92 112.4 107.992 107.938 112.092 104.931C118.178 100.476 123.858 97.0032 123.835 89.2226C126.001 98.2553 124.673 105.337 119.622 110.568C114.865 115.517 104.533 116.846 104.289 125.045Z" fill="url(#paint6_linear)"/>
<path fill-rule="evenodd" clip-rule="evenodd" d="M102.839 149.695C102.733 147.828 102.841 146.13 103.112 144.58C101.339 137.241 95.1412 134.807 88.3089 131.512C82.496 128.702 76.2555 123.68 76.3635 113.026C78.3319 121.073 88.7937 120.618 94.5276 124.671C100.409 128.838 103.202 135.294 103.195 144.08C104.581 137.16 109.381 133.418 113.951 131.127C120.743 127.729 126.963 125.214 128.241 117.543C128.876 126.802 126.364 133.564 120.475 137.913C114.912 142.017 104.452 141.645 102.839 149.695Z" fill="url(#paint7_linear)"/>
<path fill-rule="evenodd" clip-rule="evenodd" d="M117.965 165.749C111.148 169.202 99.7829 166.931 96.5417 175.388C96.7748 173.342 97.218 171.516 97.7865 169.886C97.2094 161.599 90.8832 157.848 84.0542 153.059C78.2315 148.976 72.3428 142.4 74.4349 130.873C75.1 139.945 86.5898 141.33 92.1032 146.759C97.7635 152.319 99.6132 159.827 97.9739 169.376C100.778 162.102 106.684 158.898 112.096 157.229C120.144 154.754 127.379 153.144 130.201 145.042C129.195 155.201 125.209 162.093 117.965 165.749Z" fill="url(#paint8_linear)"/>
<path fill-rule="evenodd" clip-rule="evenodd" d="M111.305 192.839C103.389 195.328 91.6521 190.924 86.6537 199.337C87.2718 197.2 88.0615 195.349 88.9757 193.71C89.8679 184.803 83.7783 179.695 77.3325 173.407C71.8454 168.042 66.7501 160.032 71.0563 148.126C70.1268 157.894 82.164 161.373 87.0811 168.116C92.1086 175.02 92.7547 183.321 89.2682 193.175C93.5711 185.944 100.48 183.561 106.566 182.74C115.609 181.509 123.654 181.063 128.134 172.948C125.219 183.576 119.696 190.202 111.305 192.839Z" fill="url(#paint9_linear)"/>
<path fill-rule="evenodd" clip-rule="evenodd" d="M73.2572 219.596C74.2298 217.587 75.3204 215.893 76.4991 214.444C78.8745 205.816 73.7003 199.81 68.38 192.572C63.8538 186.414 60.1283 177.692 66.3984 166.677C63.8494 176.139 75.1703 181.514 78.9084 188.948C82.7226 196.542 82.0099 204.793 76.9474 213.903C82.4053 207.537 89.6065 206.329 95.7534 206.511C104.915 206.763 112.95 207.638 118.741 200.366C114.072 210.355 107.505 215.972 98.7498 217.21C90.5005 218.353 79.6139 212.114 73.2572 219.596Z" fill="url(#paint10_linear)"/>
<path fill-rule="evenodd" clip-rule="evenodd" d="M56.6911 237.38C57.997 235.567 59.3514 234.079 60.7595 232.834C64.5523 224.736 60.4407 217.979 56.3717 210.004C52.9192 203.197 50.7038 194.029 58.7492 184.198C54.6463 193.103 64.9485 200.232 67.4158 208.148C69.924 216.237 67.8283 224.249 61.2886 232.384C67.757 227.009 75.0938 226.998 81.1482 228.157C90.1869 229.892 97.9729 232.054 104.926 225.836C98.6208 234.905 91.1915 239.372 82.3153 239.16C73.9736 238.956 64.2381 231.057 56.6911 237.38Z" fill="url(#paint11_linear)"/>
<path fill-rule="evenodd" clip-rule="evenodd" d="M37.3913 252.258C38.9772 250.685 40.5944 249.437 42.1954 248.443C47.3104 241.087 44.3696 233.77 41.6778 225.25C39.3892 218.002 38.7402 208.608 48.344 200.232C42.7842 208.335 51.8081 217.017 52.9136 225.207C54.0417 233.586 50.6269 241.112 42.7896 248.066C50.1095 243.823 57.3628 244.993 63.1731 247.119C71.8207 250.285 79.1917 253.689 87.1293 248.697C79.3696 256.608 71.2521 259.803 62.5081 258.158C54.2423 256.602 45.9179 247.244 37.3913 252.258Z" fill="url(#paint12_linear)"/>
<defs>
<linearGradient id="paint0_linear" x1="80.1157" y1="209.904" x2="-29.426" y2="227.062" gradientUnits="userSpaceOnUse">
<stop stop-color="#8942FF"/>
<stop offset="1" stop-color="#3AF3FF"/>
</linearGradient>
<linearGradient id="paint1_linear" x1="83.6962" y1="5.11414" x2="22.8451" y2="15.3381" gradientUnits="userSpaceOnUse">
<stop stop-color="#8942FF"/>
<stop offset="1" stop-color="#3AF3FF"/>
</linearGradient>
<linearGradient id="paint2_linear" x1="67.915" y1="1.90492" x2="27.3616" y2="9.04002" gradientUnits="userSpaceOnUse">
<stop stop-color="#8942FF"/>
<stop offset="1" stop-color="#3AF3FF"/>
</linearGradient>
<linearGradient id="paint3_linear" x1="101.557" y1="17.603" x2="27.5181" y2="31.5109" gradientUnits="userSpaceOnUse">
<stop stop-color="#8942FF"/>
<stop offset="1" stop-color="#3AF3FF"/>
</linearGradient>
<linearGradient id="paint4_linear" x1="114.015" y1="39.1625" x2="40.0787" y2="53.8221" gradientUnits="userSpaceOnUse">
<stop stop-color="#8942FF"/>
<stop offset="1" stop-color="#3AF3FF"/>
</linearGradient>
<linearGradient id="paint5_linear" x1="125.234" y1="60.5305" x2="46.0874" y2="77.2943" gradientUnits="userSpaceOnUse">
<stop stop-color="#8942FF"/>
<stop offset="1" stop-color="#3AF3FF"/>
</linearGradient>
<linearGradient id="paint6_linear" x1="134.237" y1="85.1256" x2="48.5261" y2="104.776" gradientUnits="userSpaceOnUse">
<stop stop-color="#8942FF"/>
<stop offset="1" stop-color="#3AF3FF"/>
</linearGradient>
<linearGradient id="paint7_linear" x1="137.379" y1="113.309" x2="53.2747" y2="134.33" gradientUnits="userSpaceOnUse">
<stop stop-color="#8942FF"/>
<stop offset="1" stop-color="#3AF3FF"/>
</linearGradient>
<linearGradient id="paint8_linear" x1="140.364" y1="130.47" x2="47.4709" y2="150.143" gradientUnits="userSpaceOnUse">
<stop stop-color="#8942FF"/>
<stop offset="1" stop-color="#3AF3FF"/>
</linearGradient>
<linearGradient id="paint9_linear" x1="139.492" y1="146.974" x2="40.6161" y2="165.236" gradientUnits="userSpaceOnUse">
<stop stop-color="#8942FF"/>
<stop offset="1" stop-color="#3AF3FF"/>
</linearGradient>
<linearGradient id="paint10_linear" x1="130.272" y1="164.848" x2="34.9347" y2="180.409" gradientUnits="userSpaceOnUse">
<stop stop-color="#8942FF"/>
<stop offset="1" stop-color="#3AF3FF"/>
</linearGradient>
<linearGradient id="paint11_linear" x1="116.407" y1="181.749" x2="26.5425" y2="194.796" gradientUnits="userSpaceOnUse">
<stop stop-color="#8942FF"/>
<stop offset="1" stop-color="#3AF3FF"/>
</linearGradient>
<linearGradient id="paint12_linear" x1="98.4694" y1="196.71" x2="14.4705" y2="206.62" gradientUnits="userSpaceOnUse">
<stop stop-color="#8942FF"/>
<stop offset="1" stop-color="#3AF3FF"/>
</linearGradient>
</defs>
</svg>
