<svg width="272" height="78" viewBox="0 0 272 78" fill="none" xmlns="http://www.w3.org/2000/svg">
<path d="M41.5909 28.252C40.1535 28.252 38.7909 28.0653 37.5029 27.692C36.2335 27.3 35.1975 26.7773 34.3949 26.124C33.9655 25.8067 33.7509 25.3587 33.7509 24.78C33.7509 24.388 33.8629 24.052 34.0869 23.772C34.3295 23.4733 34.6095 23.324 34.9269 23.324C35.2629 23.324 35.6455 23.4547 36.0749 23.716C36.8775 24.2947 37.7175 24.7147 38.5949 24.976C39.4722 25.2373 40.4429 25.368 41.5069 25.368C42.8695 25.368 43.9149 25.1347 44.6429 24.668C45.3709 24.1827 45.7349 23.4827 45.7349 22.568C45.7349 21.8587 45.3895 21.3173 44.6989 20.944C44.0269 20.552 42.8975 20.1787 41.3109 19.824C39.6682 19.4693 38.3335 19.0587 37.3069 18.592C36.2802 18.1253 35.5055 17.528 34.9829 16.8C34.4602 16.072 34.1989 15.148 34.1989 14.028C34.1989 12.8707 34.5255 11.8347 35.1789 10.92C35.8322 10.0053 36.7375 9.296 37.8949 8.792C39.0709 8.26933 40.3869 8.008 41.8429 8.008C44.5122 8.008 46.6869 8.71733 48.3669 10.136C48.6095 10.3413 48.7775 10.5467 48.8709 10.752C48.9829 10.9387 49.0389 11.1813 49.0389 11.48C49.0389 11.872 48.9175 12.2173 48.6749 12.516C48.4509 12.796 48.1802 12.936 47.8629 12.936C47.6762 12.936 47.4989 12.908 47.3309 12.852C47.1815 12.796 46.9762 12.6933 46.7149 12.544C45.9495 11.984 45.2029 11.5733 44.4749 11.312C43.7655 11.032 42.8882 10.892 41.8429 10.892C40.5735 10.892 39.5655 11.1533 38.8189 11.676C38.0909 12.18 37.7269 12.8893 37.7269 13.804C37.7269 14.5693 38.0535 15.1573 38.7069 15.568C39.3602 15.9787 40.4709 16.3613 42.0389 16.716C43.7002 17.0893 45.0442 17.5093 46.0709 17.976C47.1162 18.424 47.9095 19.0027 48.4509 19.712C49.0109 20.4213 49.2909 21.308 49.2909 22.372C49.2909 23.5293 48.9642 24.556 48.3109 25.452C47.6762 26.3293 46.7709 27.02 45.5949 27.524C44.4375 28.0093 43.1029 28.252 41.5909 28.252ZM63.1423 24.248C63.4597 24.248 63.7117 24.3693 63.8983 24.612C64.1037 24.8547 64.2063 25.1813 64.2063 25.592C64.2063 26.1707 63.861 26.656 63.1703 27.048C62.5357 27.4027 61.817 27.692 61.0143 27.916C60.2117 28.1213 59.4463 28.224 58.7183 28.224C56.5157 28.224 54.7703 27.5893 53.4823 26.32C52.1943 25.0507 51.5503 23.3147 51.5503 21.112C51.5503 19.712 51.8303 18.4707 52.3903 17.388C52.9503 16.3053 53.7343 15.4653 54.7423 14.868C55.769 14.2707 56.9263 13.972 58.2143 13.972C59.4463 13.972 60.5197 14.2427 61.4343 14.784C62.349 15.3253 63.0583 16.0907 63.5623 17.08C64.0663 18.0693 64.3183 19.236 64.3183 20.58C64.3183 21.3827 63.9637 21.784 63.2543 21.784H54.9943C55.1063 23.072 55.4703 24.024 56.0863 24.64C56.7023 25.2373 57.5983 25.536 58.7743 25.536C59.3717 25.536 59.8943 25.4613 60.3423 25.312C60.809 25.1627 61.3317 24.9573 61.9103 24.696C62.4703 24.3973 62.881 24.248 63.1423 24.248ZM58.2983 16.436C57.3463 16.436 56.581 16.7347 56.0023 17.332C55.4423 17.9293 55.1063 18.788 54.9943 19.908H61.3223C61.285 18.7693 61.005 17.9107 60.4823 17.332C59.9597 16.7347 59.2317 16.436 58.2983 16.436ZM68.9173 28.168C68.4133 28.168 67.9933 28.028 67.6573 27.748C67.34 27.4493 67.1813 27.0293 67.1813 26.488V9.772C67.1813 9.23067 67.34 8.82 67.6573 8.54C67.9933 8.26 68.4133 8.12 68.9173 8.12C69.4213 8.12 69.8413 8.26 70.1773 8.54C70.5133 8.82 70.6813 9.23067 70.6813 9.772V26.488C70.6813 27.0293 70.5133 27.4493 70.1773 27.748C69.8413 28.028 69.4213 28.168 68.9173 28.168ZM85.1267 24.248C85.444 24.248 85.696 24.3693 85.8827 24.612C86.088 24.8547 86.1907 25.1813 86.1907 25.592C86.1907 26.1707 85.8454 26.656 85.1547 27.048C84.52 27.4027 83.8014 27.692 82.9987 27.916C82.196 28.1213 81.4307 28.224 80.7027 28.224C78.5 28.224 76.7547 27.5893 75.4667 26.32C74.1787 25.0507 73.5347 23.3147 73.5347 21.112C73.5347 19.712 73.8147 18.4707 74.3747 17.388C74.9347 16.3053 75.7187 15.4653 76.7267 14.868C77.7534 14.2707 78.9107 13.972 80.1987 13.972C81.4307 13.972 82.504 14.2427 83.4187 14.784C84.3334 15.3253 85.0427 16.0907 85.5467 17.08C86.0507 18.0693 86.3027 19.236 86.3027 20.58C86.3027 21.3827 85.948 21.784 85.2387 21.784H76.9787C77.0907 23.072 77.4547 24.024 78.0707 24.64C78.6867 25.2373 79.5827 25.536 80.7587 25.536C81.356 25.536 81.8787 25.4613 82.3267 25.312C82.7934 25.1627 83.316 24.9573 83.8947 24.696C84.4547 24.3973 84.8654 24.248 85.1267 24.248ZM80.2827 16.436C79.3307 16.436 78.5654 16.7347 77.9867 17.332C77.4267 17.9293 77.0907 18.788 76.9787 19.908H83.3067C83.2694 18.7693 82.9894 17.9107 82.4667 17.332C81.944 16.7347 81.216 16.436 80.2827 16.436ZM95.2417 28.224C93.879 28.224 92.675 27.9347 91.6297 27.356C90.603 26.7773 89.8097 25.956 89.2497 24.892C88.6897 23.828 88.4097 22.5867 88.4097 21.168C88.4097 19.7493 88.699 18.4987 89.2777 17.416C89.875 16.3147 90.7057 15.4653 91.7697 14.868C92.8337 14.2707 94.0564 13.972 95.4377 13.972C96.1657 13.972 96.8937 14.0747 97.6217 14.28C98.3684 14.4853 99.0217 14.7653 99.5817 15.12C100.179 15.512 100.478 16.0067 100.478 16.604C100.478 17.0147 100.375 17.3507 100.17 17.612C99.983 17.8547 99.731 17.976 99.4137 17.976C99.2084 17.976 98.9937 17.9293 98.7697 17.836C98.5457 17.7427 98.3217 17.6307 98.0977 17.5C97.687 17.2573 97.295 17.0707 96.9217 16.94C96.5484 16.7907 96.119 16.716 95.6337 16.716C94.4764 16.716 93.5804 17.0987 92.9457 17.864C92.3297 18.6107 92.0217 19.6933 92.0217 21.112C92.0217 22.512 92.3297 23.5947 92.9457 24.36C93.5804 25.1067 94.4764 25.48 95.6337 25.48C96.1004 25.48 96.511 25.4147 96.8657 25.284C97.239 25.1347 97.6497 24.9387 98.0977 24.696C98.3777 24.528 98.6204 24.4067 98.8257 24.332C99.031 24.2387 99.2364 24.192 99.4417 24.192C99.7404 24.192 99.9924 24.3227 100.198 24.584C100.403 24.8453 100.506 25.172 100.506 25.564C100.506 25.8813 100.431 26.1613 100.282 26.404C100.151 26.628 99.927 26.8333 99.6097 27.02C99.031 27.3933 98.359 27.692 97.5937 27.916C96.8284 28.1213 96.0444 28.224 95.2417 28.224ZM110.032 25.564C110.965 25.62 111.432 26.04 111.432 26.824C111.432 27.272 111.245 27.6173 110.872 27.86C110.517 28.084 110.004 28.1773 109.332 28.14L108.576 28.084C105.44 27.86 103.872 26.18 103.872 23.044V16.94H102.472C101.968 16.94 101.576 16.828 101.296 16.604C101.034 16.38 100.904 16.0533 100.904 15.624C100.904 15.1947 101.034 14.868 101.296 14.644C101.576 14.42 101.968 14.308 102.472 14.308H103.872V11.732C103.872 11.228 104.03 10.8267 104.348 10.528C104.665 10.2293 105.094 10.08 105.636 10.08C106.158 10.08 106.578 10.2293 106.896 10.528C107.213 10.8267 107.372 11.228 107.372 11.732V14.308H109.752C110.256 14.308 110.638 14.42 110.9 14.644C111.18 14.868 111.32 15.1947 111.32 15.624C111.32 16.0533 111.18 16.38 110.9 16.604C110.638 16.828 110.256 16.94 109.752 16.94H107.372V23.296C107.372 24.6773 108.006 25.4147 109.276 25.508L110.032 25.564ZM120.396 28.252C118.958 28.252 117.596 28.0653 116.308 27.692C115.038 27.3 114.002 26.7773 113.2 26.124C112.77 25.8067 112.556 25.3587 112.556 24.78C112.556 24.388 112.668 24.052 112.892 23.772C113.134 23.4733 113.414 23.324 113.732 23.324C114.068 23.324 114.45 23.4547 114.88 23.716C115.682 24.2947 116.522 24.7147 117.4 24.976C118.277 25.2373 119.248 25.368 120.312 25.368C121.674 25.368 122.72 25.1347 123.448 24.668C124.176 24.1827 124.54 23.4827 124.54 22.568C124.54 21.8587 124.194 21.3173 123.504 20.944C122.832 20.552 121.702 20.1787 120.116 19.824C118.473 19.4693 117.138 19.0587 116.112 18.592C115.085 18.1253 114.31 17.528 113.788 16.8C113.265 16.072 113.004 15.148 113.004 14.028C113.004 12.8707 113.33 11.8347 113.984 10.92C114.637 10.0053 115.542 9.296 116.7 8.792C117.876 8.26933 119.192 8.008 120.648 8.008C123.317 8.008 125.492 8.71733 127.172 10.136C127.414 10.3413 127.582 10.5467 127.676 10.752C127.788 10.9387 127.844 11.1813 127.844 11.48C127.844 11.872 127.722 12.2173 127.48 12.516C127.256 12.796 126.985 12.936 126.668 12.936C126.481 12.936 126.304 12.908 126.136 12.852C125.986 12.796 125.781 12.6933 125.52 12.544C124.754 11.984 124.008 11.5733 123.28 11.312C122.57 11.032 121.693 10.892 120.648 10.892C119.378 10.892 118.37 11.1533 117.624 11.676C116.896 12.18 116.532 12.8893 116.532 13.804C116.532 14.5693 116.858 15.1573 117.512 15.568C118.165 15.9787 119.276 16.3613 120.844 16.716C122.505 17.0893 123.849 17.5093 124.876 17.976C125.921 18.424 126.714 19.0027 127.256 19.712C127.816 20.4213 128.096 21.308 128.096 22.372C128.096 23.5293 127.769 24.556 127.116 25.452C126.481 26.3293 125.576 27.02 124.4 27.524C123.242 28.0093 121.908 28.252 120.396 28.252ZM137.355 28.224C135.955 28.224 134.723 27.9347 133.659 27.356C132.614 26.7773 131.802 25.9467 131.223 24.864C130.644 23.7813 130.355 22.5213 130.355 21.084C130.355 19.6467 130.644 18.396 131.223 17.332C131.802 16.2493 132.614 15.4187 133.659 14.84C134.723 14.2613 135.955 13.972 137.355 13.972C138.755 13.972 139.978 14.2613 141.023 14.84C142.087 15.4187 142.899 16.2493 143.459 17.332C144.038 18.396 144.327 19.6467 144.327 21.084C144.327 22.5213 144.038 23.7813 143.459 24.864C142.899 25.9467 142.087 26.7773 141.023 27.356C139.978 27.9347 138.755 28.224 137.355 28.224ZM137.327 25.508C138.466 25.508 139.334 25.1347 139.931 24.388C140.528 23.6413 140.827 22.54 140.827 21.084C140.827 19.6467 140.528 18.5547 139.931 17.808C139.334 17.0427 138.475 16.66 137.355 16.66C136.235 16.66 135.367 17.0427 134.751 17.808C134.154 18.5547 133.855 19.6467 133.855 21.084C133.855 22.54 134.154 23.6413 134.751 24.388C135.348 25.1347 136.207 25.508 137.327 25.508ZM154.05 10.864C153.192 10.92 152.566 11.1813 152.174 11.648C151.782 12.1147 151.586 12.7867 151.586 13.664V14.308H153.966C155.012 14.308 155.534 14.7467 155.534 15.624C155.534 16.5013 155.012 16.94 153.966 16.94H151.586V26.488C151.586 27.0293 151.418 27.44 151.082 27.72C150.765 28 150.354 28.14 149.85 28.14C149.346 28.14 148.926 28 148.59 27.72C148.254 27.44 148.086 27.0293 148.086 26.488V16.94H146.686C145.641 16.94 145.118 16.5013 145.118 15.624C145.118 14.7467 145.641 14.308 146.686 14.308H148.086V14.112C148.086 12.3573 148.544 10.9853 149.458 9.996C150.392 8.988 151.698 8.41867 153.378 8.288L154.106 8.232C154.853 8.176 155.376 8.26 155.674 8.484C155.992 8.68933 156.15 9.016 156.15 9.464C156.15 10.2667 155.693 10.7147 154.778 10.808L154.05 10.864ZM163.516 25.564C164.449 25.62 164.916 26.04 164.916 26.824C164.916 27.272 164.729 27.6173 164.356 27.86C164.001 28.084 163.488 28.1773 162.816 28.14L162.06 28.084C158.924 27.86 157.356 26.18 157.356 23.044V16.94H155.956C155.452 16.94 155.06 16.828 154.78 16.604C154.519 16.38 154.388 16.0533 154.388 15.624C154.388 15.1947 154.519 14.868 154.78 14.644C155.06 14.42 155.452 14.308 155.956 14.308H157.356V11.732C157.356 11.228 157.515 10.8267 157.832 10.528C158.149 10.2293 158.579 10.08 159.12 10.08C159.643 10.08 160.063 10.2293 160.38 10.528C160.697 10.8267 160.856 11.228 160.856 11.732V14.308H163.236C163.74 14.308 164.123 14.42 164.384 14.644C164.664 14.868 164.804 15.1947 164.804 15.624C164.804 16.0533 164.664 16.38 164.384 16.604C164.123 16.828 163.74 16.94 163.236 16.94H160.856V23.296C160.856 24.6773 161.491 25.4147 162.76 25.508L163.516 25.564ZM185.467 15.064C185.597 14.728 185.784 14.476 186.027 14.308C186.288 14.14 186.568 14.056 186.867 14.056C187.296 14.056 187.679 14.2053 188.015 14.504C188.369 14.784 188.547 15.1387 188.547 15.568C188.547 15.8107 188.5 16.0253 188.407 16.212L183.787 27.048C183.637 27.4027 183.404 27.6733 183.087 27.86C182.788 28.0467 182.452 28.14 182.079 28.14C181.724 28.14 181.388 28.0467 181.071 27.86C180.772 27.6733 180.548 27.4027 180.399 27.048L177.067 19.04L173.847 27.048C173.697 27.4027 173.464 27.6733 173.147 27.86C172.848 28.0467 172.512 28.14 172.139 28.14C171.784 28.14 171.448 28.0467 171.131 27.86C170.813 27.6733 170.58 27.4027 170.431 27.048L165.839 16.212C165.745 15.9693 165.699 15.764 165.699 15.596C165.699 15.1667 165.885 14.8027 166.259 14.504C166.632 14.1867 167.043 14.028 167.491 14.028C167.808 14.028 168.097 14.112 168.359 14.28C168.62 14.448 168.816 14.7 168.947 15.036L172.251 23.576L175.639 15.12C175.788 14.7653 176.003 14.504 176.283 14.336C176.563 14.1493 176.871 14.056 177.207 14.056C177.543 14.056 177.851 14.1493 178.131 14.336C178.411 14.504 178.625 14.7653 178.775 15.12L182.191 23.604L185.467 15.064ZM196.684 13.972C198.588 13.972 199.997 14.448 200.912 15.4C201.845 16.3333 202.312 17.7613 202.312 19.684V26.516C202.312 27.02 202.162 27.4213 201.864 27.72C201.565 28 201.154 28.14 200.632 28.14C200.146 28.14 199.745 27.9907 199.428 27.692C199.129 27.3933 198.98 27.0013 198.98 26.516V25.9C198.662 26.628 198.158 27.1973 197.468 27.608C196.796 28.0187 196.012 28.224 195.116 28.224C194.201 28.224 193.37 28.0373 192.624 27.664C191.877 27.2907 191.289 26.7773 190.86 26.124C190.43 25.4707 190.216 24.7427 190.216 23.94C190.216 22.932 190.468 22.1387 190.972 21.56C191.494 20.9813 192.334 20.5613 193.492 20.3C194.649 20.0387 196.245 19.908 198.28 19.908H198.98V19.264C198.98 18.3493 198.784 17.6867 198.392 17.276C198 16.8467 197.365 16.632 196.488 16.632C195.946 16.632 195.396 16.716 194.836 16.884C194.276 17.0333 193.613 17.2573 192.848 17.556C192.362 17.7987 192.008 17.92 191.784 17.92C191.448 17.92 191.168 17.7987 190.944 17.556C190.738 17.3133 190.636 16.996 190.636 16.604C190.636 16.2867 190.71 16.016 190.86 15.792C191.028 15.5493 191.298 15.3253 191.672 15.12C192.325 14.7653 193.1 14.4853 193.996 14.28C194.91 14.0747 195.806 13.972 196.684 13.972ZM195.816 25.704C196.749 25.704 197.505 25.396 198.084 24.78C198.681 24.1453 198.98 23.3333 198.98 22.344V21.756H198.476C197.225 21.756 196.254 21.812 195.564 21.924C194.873 22.036 194.378 22.232 194.08 22.512C193.781 22.792 193.632 23.1747 193.632 23.66C193.632 24.2573 193.837 24.752 194.248 25.144C194.677 25.5173 195.2 25.704 195.816 25.704ZM213.513 14.028C213.998 13.9907 214.381 14.0933 214.661 14.336C214.941 14.5787 215.081 14.9427 215.081 15.428C215.081 15.932 214.959 16.3053 214.717 16.548C214.474 16.7907 214.035 16.9493 213.401 17.024L212.561 17.108C211.459 17.22 210.647 17.5933 210.125 18.228C209.621 18.8627 209.369 19.656 209.369 20.608V26.488C209.369 27.0293 209.201 27.4493 208.865 27.748C208.529 28.028 208.109 28.168 207.605 28.168C207.101 28.168 206.681 28.028 206.345 27.748C206.027 27.4493 205.869 27.0293 205.869 26.488V15.652C205.869 15.1293 206.027 14.728 206.345 14.448C206.681 14.168 207.091 14.028 207.577 14.028C208.062 14.028 208.454 14.168 208.753 14.448C209.051 14.7093 209.201 15.092 209.201 15.596V16.716C209.555 15.8947 210.078 15.26 210.769 14.812C211.478 14.364 212.262 14.112 213.121 14.056L213.513 14.028ZM227.15 24.248C227.467 24.248 227.719 24.3693 227.906 24.612C228.111 24.8547 228.214 25.1813 228.214 25.592C228.214 26.1707 227.869 26.656 227.178 27.048C226.543 27.4027 225.825 27.692 225.022 27.916C224.219 28.1213 223.454 28.224 222.726 28.224C220.523 28.224 218.778 27.5893 217.49 26.32C216.202 25.0507 215.558 23.3147 215.558 21.112C215.558 19.712 215.838 18.4707 216.398 17.388C216.958 16.3053 217.742 15.4653 218.75 14.868C219.777 14.2707 220.934 13.972 222.222 13.972C223.454 13.972 224.527 14.2427 225.442 14.784C226.357 15.3253 227.066 16.0907 227.57 17.08C228.074 18.0693 228.326 19.236 228.326 20.58C228.326 21.3827 227.971 21.784 227.262 21.784H219.002C219.114 23.072 219.478 24.024 220.094 24.64C220.71 25.2373 221.606 25.536 222.782 25.536C223.379 25.536 223.902 25.4613 224.35 25.312C224.817 25.1627 225.339 24.9573 225.918 24.696C226.478 24.3973 226.889 24.248 227.15 24.248ZM222.306 16.436C221.354 16.436 220.589 16.7347 220.01 17.332C219.45 17.9293 219.114 18.788 219.002 19.908H225.33C225.293 18.7693 225.013 17.9107 224.49 17.332C223.967 16.7347 223.239 16.436 222.306 16.436ZM61.2062 73.598C61.5422 74.102 61.7102 74.592 61.7102 75.068C61.7102 75.712 61.4442 76.244 60.9122 76.664C60.4082 77.084 59.8062 77.294 59.1062 77.294C58.6582 77.294 58.2242 77.196 57.8042 77C57.4122 76.776 57.0762 76.454 56.7962 76.034L51.2102 67.55C50.6502 66.654 50.0482 66.024 49.4042 65.66C48.7882 65.296 47.9762 65.114 46.9682 65.114H42.8522V74.522C42.8522 75.362 42.6142 76.034 42.1382 76.538C41.6622 77.014 41.0182 77.252 40.2062 77.252C39.3942 77.252 38.7362 77.014 38.2322 76.538C37.7562 76.034 37.5182 75.362 37.5182 74.522V49.952C37.5182 49.14 37.7422 48.51 38.1902 48.062C38.6662 47.614 39.3102 47.39 40.1222 47.39H50.6222C53.9822 47.39 56.5302 48.146 58.2662 49.658C60.0302 51.142 60.9122 53.298 60.9122 56.126C60.9122 58.422 60.2542 60.312 58.9382 61.796C57.6502 63.252 55.8162 64.19 53.4362 64.61C54.2482 64.806 54.9622 65.156 55.5782 65.66C56.1942 66.164 56.7962 66.864 57.3842 67.76L61.2062 73.598ZM49.8662 60.956C51.9102 60.956 53.4082 60.578 54.3602 59.822C55.3122 59.038 55.7882 57.848 55.7882 56.252C55.7882 54.628 55.3122 53.452 54.3602 52.724C53.4082 51.968 51.9102 51.59 49.8662 51.59H42.8102V60.956H49.8662ZM69.3253 77C68.5133 77 67.8693 76.776 67.3933 76.328C66.9453 75.88 66.7213 75.25 66.7213 74.438V49.952C66.7213 49.14 66.9453 48.51 67.3933 48.062C67.8693 47.614 68.5133 47.39 69.3253 47.39H84.4873C85.2993 47.39 85.9293 47.572 86.3773 47.936C86.8253 48.3 87.0493 48.818 87.0493 49.49C87.0493 50.19 86.8253 50.736 86.3773 51.128C85.9293 51.492 85.2993 51.674 84.4873 51.674H72.0133V59.822H83.6473C84.4593 59.822 85.0893 60.004 85.5373 60.368C85.9853 60.732 86.2093 61.264 86.2093 61.964C86.2093 62.636 85.9853 63.154 85.5373 63.518C85.0893 63.882 84.4593 64.064 83.6473 64.064H72.0133V72.716H84.4873C85.2993 72.716 85.9293 72.912 86.3773 73.304C86.8253 73.668 87.0493 74.2 87.0493 74.9C87.0493 75.572 86.8253 76.09 86.3773 76.454C85.9293 76.818 85.2993 77 84.4873 77H69.3253ZM113 48.566C113.448 47.614 114.19 47.138 115.226 47.138C115.926 47.138 116.556 47.362 117.116 47.81C117.676 48.258 117.956 48.818 117.956 49.49C117.956 49.798 117.872 50.148 117.704 50.54L106.07 75.572C105.818 76.104 105.426 76.524 104.894 76.832C104.39 77.112 103.844 77.252 103.256 77.252C102.668 77.252 102.108 77.112 101.576 76.832C101.072 76.524 100.694 76.104 100.442 75.572L88.8497 50.54C88.6817 50.148 88.5977 49.812 88.5977 49.532C88.5977 48.832 88.8777 48.258 89.4377 47.81C90.0257 47.362 90.6837 47.138 91.4117 47.138C91.8877 47.138 92.3217 47.264 92.7137 47.516C93.1337 47.74 93.4557 48.09 93.6797 48.566L103.34 70.028L113 48.566ZM124.124 77.252C123.312 77.252 122.654 77 122.15 76.496C121.674 75.992 121.436 75.334 121.436 74.522V49.868C121.436 49.056 121.674 48.412 122.15 47.936C122.654 47.432 123.312 47.18 124.124 47.18C124.964 47.18 125.622 47.432 126.098 47.936C126.602 48.412 126.854 49.056 126.854 49.868V74.522C126.854 75.334 126.602 75.992 126.098 76.496C125.622 77 124.964 77.252 124.124 77.252ZM135.853 77C135.041 77 134.397 76.776 133.921 76.328C133.473 75.88 133.249 75.25 133.249 74.438V49.952C133.249 49.14 133.473 48.51 133.921 48.062C134.397 47.614 135.041 47.39 135.853 47.39H151.015C151.827 47.39 152.457 47.572 152.905 47.936C153.353 48.3 153.577 48.818 153.577 49.49C153.577 50.19 153.353 50.736 152.905 51.128C152.457 51.492 151.827 51.674 151.015 51.674H138.541V59.822H150.175C150.987 59.822 151.617 60.004 152.065 60.368C152.513 60.732 152.737 61.264 152.737 61.964C152.737 62.636 152.513 63.154 152.065 63.518C151.617 63.882 150.987 64.064 150.175 64.064H138.541V72.716H151.015C151.827 72.716 152.457 72.912 152.905 73.304C153.353 73.668 153.577 74.2 153.577 74.9C153.577 75.572 153.353 76.09 152.905 76.454C152.457 76.818 151.827 77 151.015 77H135.853ZM195.109 48.818C195.305 48.258 195.613 47.838 196.033 47.558C196.481 47.278 196.971 47.138 197.503 47.138C198.175 47.138 198.749 47.348 199.225 47.768C199.729 48.188 199.981 48.748 199.981 49.448C199.981 49.7 199.911 50.064 199.771 50.54L190.741 75.53C190.517 76.09 190.139 76.524 189.607 76.832C189.103 77.14 188.543 77.294 187.927 77.294C187.311 77.294 186.737 77.14 186.205 76.832C185.673 76.524 185.309 76.09 185.113 75.53L178.141 55.748L171.043 75.53C170.819 76.09 170.441 76.524 169.909 76.832C169.405 77.14 168.845 77.294 168.229 77.294C167.613 77.294 167.039 77.14 166.507 76.832C166.003 76.524 165.653 76.09 165.457 75.53L156.427 50.54C156.287 50.12 156.217 49.756 156.217 49.448C156.217 48.748 156.469 48.188 156.973 47.768C157.505 47.348 158.121 47.138 158.821 47.138C159.381 47.138 159.885 47.278 160.333 47.558C160.781 47.838 161.103 48.258 161.299 48.818L168.439 69.356L175.789 48.944C175.985 48.384 176.307 47.95 176.755 47.642C177.203 47.306 177.693 47.138 178.225 47.138C178.757 47.138 179.247 47.306 179.695 47.642C180.171 47.95 180.507 48.398 180.703 48.986L187.843 69.608L195.109 48.818ZM214.331 77.378C212.175 77.378 210.131 77.098 208.199 76.538C206.295 75.95 204.741 75.166 203.537 74.186C202.893 73.71 202.571 73.038 202.571 72.17C202.571 71.582 202.739 71.078 203.075 70.658C203.439 70.21 203.859 69.986 204.335 69.986C204.839 69.986 205.413 70.182 206.057 70.574C207.261 71.442 208.521 72.072 209.837 72.464C211.153 72.856 212.609 73.052 214.205 73.052C216.249 73.052 217.817 72.702 218.909 72.002C220.001 71.274 220.547 70.224 220.547 68.852C220.547 67.788 220.029 66.976 218.993 66.416C217.985 65.828 216.291 65.268 213.911 64.736C211.447 64.204 209.445 63.588 207.905 62.888C206.365 62.188 205.203 61.292 204.419 60.2C203.635 59.108 203.243 57.722 203.243 56.042C203.243 54.306 203.733 52.752 204.713 51.38C205.693 50.008 207.051 48.944 208.787 48.188C210.551 47.404 212.525 47.012 214.709 47.012C218.713 47.012 221.975 48.076 224.495 50.204C224.859 50.512 225.111 50.82 225.251 51.128C225.419 51.408 225.503 51.772 225.503 52.22C225.503 52.808 225.321 53.326 224.957 53.774C224.621 54.194 224.215 54.404 223.739 54.404C223.459 54.404 223.193 54.362 222.941 54.278C222.717 54.194 222.409 54.04 222.017 53.816C220.869 52.976 219.749 52.36 218.657 51.968C217.593 51.548 216.277 51.338 214.709 51.338C212.805 51.338 211.293 51.73 210.173 52.514C209.081 53.27 208.535 54.334 208.535 55.706C208.535 56.854 209.025 57.736 210.005 58.352C210.985 58.968 212.651 59.542 215.003 60.074C217.495 60.634 219.511 61.264 221.051 61.964C222.619 62.636 223.809 63.504 224.621 64.568C225.461 65.632 225.881 66.962 225.881 68.558C225.881 70.294 225.391 71.834 224.411 73.178C223.459 74.494 222.101 75.53 220.337 76.286C218.601 77.014 216.599 77.378 214.331 77.378Z" fill="#383838"/>
<path d="M271 14V75" stroke="black"/>
</svg>
