<svg width="145" height="133" viewBox="0 0 145 133" fill="none" xmlns="http://www.w3.org/2000/svg">
<path d="M61.818 73.4035C56.7053 52.7183 23.5002 60.5141 4.23315 54.097C3.51797 55.282 6.0321 65.432 15.6432 65.1153C14.0991 67.731 16.4111 74.4218 23.1242 74.4357C25.7633 86.3025 35.6969 83.8434 37.3255 83.2122C46.4431 96.142 65.0257 85.6408 61.818 73.4035Z" fill="#CBDAEB"/>
<path d="M85.929 60.8593C71.4699 45.2082 96.2504 21.7715 101.494 2.15244C102.877 2.20729 109.969 9.89161 104.416 17.7426C107.449 17.8926 111.764 23.5047 108.082 29.1178C116.539 37.8511 109.019 44.7926 107.596 45.8052C113.376 60.533 94.3344 70.2969 85.929 60.8593Z" fill="#CBDAEB"/>
<path d="M46.9287 75.8047C43.0401 76.8029 36.1844 81.271 39.8694 91.1579" stroke="black" stroke-width="2"/>
<path d="M100.628 33.8843C102.539 37.4145 103.924 45.4798 94.1678 49.4992" stroke="black" stroke-width="2"/>
<path d="M81.6553 97.2196L82.9969 111.88L76.7849 112.448" stroke="black" stroke-width="2"/>
<path d="M91.44 92.7517L101.075 103.882L105.792 99.7993" stroke="black" stroke-width="2"/>
<g filter="url(#filter0_d)">
<rect x="29.3325" y="37.1577" width="56.5672" height="78.3483" rx="9" transform="rotate(-24.3183 29.3325 37.1577)" fill="white"/>
</g>
<mask id="mask0" mask-type="alpha" maskUnits="userSpaceOnUse" x="31" y="16" width="81" height="92">
<rect x="29.0269" y="37.2192" width="56.8898" height="79.6636" rx="8" transform="rotate(-24.3183 29.0269 37.2192)" fill="white"/>
</mask>
<g mask="url(#mask0)">
<rect x="29.335" y="37.1584" width="56.8898" height="15.7298" transform="rotate(-24.3183 29.335 37.1584)" fill="#F15C5A"/>
</g>
<rect x="46.2461" y="27.324" width="17.9652" height="3.49323" transform="rotate(-24.3183 46.2461 27.324)" fill="#383838"/>
<circle cx="58.327" cy="55.269" r="1.4971" transform="rotate(-24.3183 58.327 55.269)" fill="#383838"/>
<circle cx="76.5174" cy="47.049" r="1.4971" transform="rotate(-24.3183 76.5174 47.049)" fill="#383838"/>
<path d="M67.4175 62.6614C68.2057 64.4056 69.678 67.6637 73.5435 65.9169C77.4089 64.1701 75.8649 60.7534 75.1483 59.1678" stroke="black" stroke-width="2" stroke-linejoin="round"/>
<rect x="58.9214" y="85.6675" width="26.9478" height="2.49517" transform="rotate(-24.3183 58.9214 85.6675)" fill="#C4C4C4"/>
<rect x="60.9766" y="90.2153" width="21.9575" height="2.49517" transform="rotate(-24.3183 60.9766 90.2153)" fill="#C4C4C4"/>
<defs>
<filter id="filter0_d" x="28.2378" y="16.7686" width="86.0014" height="96.8803" filterUnits="userSpaceOnUse" color-interpolation-filters="sRGB">
<feFlood flood-opacity="0" result="BackgroundImageFix"/>
<feColorMatrix in="SourceAlpha" type="matrix" values="0 0 0 0 0 0 0 0 0 0 0 0 0 0 0 0 0 0 127 0"/>
<feOffset dy="4"/>
<feGaussianBlur stdDeviation="2"/>
<feColorMatrix type="matrix" values="0 0 0 0 0 0 0 0 0 0 0 0 0 0 0 0 0 0 0.07 0"/>
<feBlend mode="normal" in2="BackgroundImageFix" result="effect1_dropShadow"/>
<feBlend mode="normal" in="SourceGraphic" in2="effect1_dropShadow" result="shape"/>
</filter>
</defs>
</svg>
