<svg width="88" height="93" viewBox="0 0 88 93" fill="none" xmlns="http://www.w3.org/2000/svg">
<path d="M67.1884 46.1558C71.3686 47.4076 80.2577 47.0932 82.3726 35.8212" stroke="black" stroke-width="1.83986"/>
<path d="M22.9046 36.3492C18.6154 35.5465 10.8584 31.1941 14.1433 20.206" stroke="black" stroke-width="1.83986"/>
<path d="M42.463 72.9189L40.0833 85.1324L45.2585 86.1407" stroke="black" stroke-width="1.83986"/>
<path d="M32.2137 70.4443L29.6903 82.6288L24.5273 81.5596" stroke="black" stroke-width="1.83986"/>
<rect x="30.3706" y="4.65405" width="47.8126" height="66.2228" rx="8.27938" transform="rotate(13.6353 30.3706 4.65405)" fill="url(#paint0_linear)"/>
<mask id="mask0" mask-type="alpha" maskUnits="userSpaceOnUse" x="15" y="6" width="61" height="74">
<rect x="30.1333" y="4.53613" width="48.0853" height="67.3345" rx="7.35945" transform="rotate(13.6353 30.1333 4.53613)" fill="white"/>
</mask>
<g mask="url(#mask0)">
<rect x="30.3706" y="4.65576" width="48.0853" height="13.2954" transform="rotate(13.6353 30.3706 4.65576)" fill="#F4F6FA" fill-opacity="0.5"/>
</g>
<rect x="46.7539" y="6.89233" width="15.1848" height="2.95261" transform="rotate(13.6353 46.7539 6.89233)" fill="#383838"/>
<circle cx="40.2791" cy="31.7973" r="1.2654" transform="rotate(13.6353 40.2791 31.7973)" fill="#383838"/>
<circle cx="56.6766" cy="35.7749" r="1.2654" transform="rotate(13.6353 56.6766 35.7749)" fill="#383838"/>
<path d="M42.4951 41.4497C42.1137 43.0219 41.4013 45.9587 44.8856 46.8039C48.3698 47.6491 49.1169 44.5694 49.4636 43.1401" stroke="black" stroke-width="1.83986" stroke-linejoin="round"/>
<rect x="35.1792" y="54.8662" width="22.7773" height="2.109" transform="rotate(13.6353 35.1792 54.8662)" fill="white"/>
<rect x="38.188" y="59.9358" width="18.5592" height="2.109" transform="rotate(13.6353 38.188 59.9358)" fill="white"/>
<defs>
<linearGradient id="paint0_linear" x1="85.9528" y1="-4.06725" x2="4.39809" y2="8.3296" gradientUnits="userSpaceOnUse">
<stop stop-color="#8942FF"/>
<stop offset="1" stop-color="#3AF3FF"/>
</linearGradient>
</defs>
</svg>
