<svg xmlns="http://www.w3.org/2000/svg" viewBox="0 0 271.02 50.64"><title>Asset 13</title><g id="Layer_2" data-name="Layer 2"><g id="Layer_1-2" data-name="Layer 1"><path d="M53.1,11.62c-.79-5-2.64-7.7-6.13-9.5C44.18.58,32.52-.13,26.2,0,19.89,0,9.39.6,6.6,2.12,3.11,3.92,1.27,6.6.47,11.62A91.48,91.48,0,0,0,0,21.11a91.08,91.08,0,0,0,.47,9.47c.8,5,2.64,7.71,6.13,9.52,2.79,1.51,13.29,2.17,19.6,2.09h.7l-2.64-7.08c-4.64,0-11.4.06-13-.62-2.34-1-3.47-2.78-3.88-6.44-.17-1.59-.18-5-.21-6.95s0-5.37.21-7c.41-3.66,1.54-5.45,3.88-6.44,1.86-.78,10.77-.6,15.11-.62s14.06-.16,15.92.62c2.34,1,3.47,2.78,3.88,6.44.17,1.6.18,5.06.21,6.94s0,5.38-.21,7c-.41,3.66-1.54,5.45-3.88,6.44-1.35.57-6.84.63-11.41.63l.3.79,5.49,14.72,4.19-9.17A20.88,20.88,0,0,0,47,40.1c3.49-1.81,5.33-4.49,6.13-9.52a91.62,91.62,0,0,0,.47-9.49,91.36,91.36,0,0,0-.47-9.47" style="fill:#fff"/><path d="M86.21,35V22.27c0-2.53-.67-4-3.16-4-2.8,0-4,3-4,5.52V35H74.13V22.27c0-2.53-.67-4-3.16-4-2.81,0-4.07,3-4.07,5.52V35H62V14.49h4.11l.4,2.73A6.56,6.56,0,0,1,72.35,14a6.08,6.08,0,0,1,5.88,3.36A6.85,6.85,0,0,1,84.43,14c4.39,0,6.68,2.92,6.68,7.19V35Z" style="fill:#fff"/><path d="M103.82,38.54c-1,2.69-2.73,5.14-6.32,5.14a13.72,13.72,0,0,1-3.79-.52v-4.1a12.11,12.11,0,0,0,2.76.35,2.35,2.35,0,0,0,2.37-1.54L100,35l-8.1-20.5h5.41l5.37,14.85,5.13-14.85h5Z" style="fill:#fff"/><rect x="114.71" y="7.03" width="5.17" height="28" style="fill:#fff"/><path d="M136.71,35V22.43c0-2.41-.79-3.87-3.4-3.87a3.86,3.86,0,0,0-3.55,2.61,14.31,14.31,0,0,0-.67,5.49V35h-4.94V14.49h4.15l.35,2.65a6.78,6.78,0,0,1,6-3.16c4.39,0,6.95,3.08,6.95,7.35V35Z" style="fill:#fff"/><path d="M153.35,35.31c-4.15,0-6.21-2.37-6.21-6.32V18.56h-3.75V14.49h3.75V9.28l4.94-1.22v6.43h5.17v4.07h-5.17v10c0,1.58.71,2.26,2.29,2.26a26.16,26.16,0,0,0,3.2-.2v4.14a16.51,16.51,0,0,1-4.22.56" style="fill:#fff"/><path d="M171.22,19.11a4.13,4.13,0,0,0-3.12-1.18,4.21,4.21,0,0,0-3.44,1.58,5,5,0,0,0-1.06,3.2h8.88a5.36,5.36,0,0,0-1.26-3.6m6.16,7.19H163.64a5.42,5.42,0,0,0,1.5,4,4.34,4.34,0,0,0,3,1.26,3.84,3.84,0,0,0,3-1,3.75,3.75,0,0,0,1-1.74h4.74a8.17,8.17,0,0,1-1.74,3.79,8.82,8.82,0,0,1-6.91,2.88A9,9,0,0,1,161.78,33a11.16,11.16,0,0,1-3.16-8.22,11.52,11.52,0,0,1,3-8.21A8.91,8.91,0,0,1,168.14,14a8.69,8.69,0,0,1,7.5,3.79,11.54,11.54,0,0,1,1.78,7.15s0,.95,0,1.38" style="fill:#fff"/><path d="M190.69,18.88c-3.47,0-5.29,2.48-5.29,5.8V35h-5V14.5h4.18l.44,3.07c.95-2.37,3.39-3.35,5.81-3.35a10,10,0,0,1,1.53.12v4.74a8.14,8.14,0,0,0-1.7-.2" style="fill:#fff"/><polygon points="205.82 35.03 200.57 35.03 192.95 14.49 198.16 14.49 203.29 28.95 208.15 14.49 213.25 14.49 205.82 35.03" style="fill:#fff"/><path d="M215.06,14.49h5V35h-5Zm-.16-7.93h5.29v5.09H214.9Z" style="fill:#fff"/><path d="M235.66,19.11a4.13,4.13,0,0,0-3.12-1.18,4.23,4.23,0,0,0-3.44,1.58,5,5,0,0,0-1.06,3.2h8.88a5.36,5.36,0,0,0-1.26-3.6m6.16,7.19H228.08a5.42,5.42,0,0,0,1.5,4,4.34,4.34,0,0,0,3,1.26,3.85,3.85,0,0,0,3-1,3.75,3.75,0,0,0,1-1.74h4.73a8.05,8.05,0,0,1-1.73,3.79,8.81,8.81,0,0,1-6.92,2.88A9,9,0,0,1,226.22,33a11.16,11.16,0,0,1-3.16-8.22,11.52,11.52,0,0,1,3-8.21A8.91,8.91,0,0,1,232.58,14a8.69,8.69,0,0,1,7.5,3.79,11.6,11.6,0,0,1,1.78,7.15s0,.95,0,1.38" style="fill:#fff"/><polygon points="266 35.03 261.42 35.03 256.76 21.17 252.18 35.03 247.6 35.03 242.39 14.49 247.17 14.49 250.44 27.96 254.75 14.69 258.81 14.69 263.16 27.92 266.32 14.49 271.02 14.49 266 35.03" style="fill:#fff"/></g></g></svg>
