<svg width="165" height="164" viewBox="0 0 165 164" fill="none" xmlns="http://www.w3.org/2000/svg">
<path d="M52.8834 84.1657C53.4208 82.2286 52.9218 81.1358 51.2336 80.0139C43.2819 74.7436 45.7635 76.5124 37.9303 71.0748C34.3447 68.3407 28.0501 63.4149 24.3826 60.505C22.279 58.8375 19.1915 57.2682 20.0714 53.9843C20.5985 52.0174 25.3384 51.5774 26.8627 51.3525C33.1776 50.4297 56.586 50.1422 61.132 50.0483C64.6606 49.9714 65.7123 49.9637 66.935 46.6721C69.4445 39.9523 76.1295 18.5084 78.4939 15.0794C80.4236 12.2759 84.11 12.3317 86.3528 14.9232C88.8971 17.867 105.272 42.8659 107.819 46.7966C109.058 48.7028 110.449 49.6275 112.835 49.5882C121.312 49.4258 143.027 50.1683 145.397 50.532C146.795 50.7437 148.195 50.9831 149.609 51.0996C151.032 51.2185 152.484 51.0557 153.886 51.2867C156.082 51.6488 158.401 51.9625 158.906 54.8212C159.405 57.633 158.244 60.4526 155.935 61.8878C152.642 63.9371 149.243 65.8673 146.124 68.1621C142.028 71.1814 138.201 74.5353 134.2 77.6796C130.737 80.3981 127.143 82.9546 123.708 85.7075C119.371 89.1781 118.443 91.1642 120.911 97.0372C122.513 100.851 124.083 104.682 125.465 108.563C128.27 116.444 135.682 136.201 136.419 138.262C137.774 142.072 133.999 146.399 130.188 144.953C126.536 143.567 112.454 132.139 108.669 128.809C104.524 125.174 100.328 121.588 96.183 117.953C93.8195 115.881 90.8705 115.96 88.2469 117.573C82.6067 121.029 76.8078 124.253 71.0365 127.511C68.1194 129.154 65.1368 130.698 62.1438 132.212C57.0318 134.797 51.9348 137.394 46.7428 139.83C42.8775 141.644 40.3529 139.864 40.1175 135.657C39.7712 129.493 45.7617 111.157 46.7162 107.594C46.6475 107.576 50.7074 91.9429 52.8834 84.1657Z" fill="url(#paint0_linear)"/>
<path d="M88.9655 64.1201H107.8" stroke="white" stroke-width="2" stroke-miterlimit="10" stroke-linecap="round"/>
<path d="M106.809 66.0719L108.792 64.1203L106.809 62.168" stroke="white" stroke-width="2" stroke-miterlimit="10" stroke-linecap="round"/>
<path d="M91.1353 95.2588H72.3006" stroke="white" stroke-width="2" stroke-miterlimit="10" stroke-linecap="round"/>
<path d="M73.2927 93.3064L71.3091 95.2588L73.2927 97.2103" stroke="white" stroke-width="2" stroke-miterlimit="10" stroke-linecap="round"/>
<path d="M89.6462 95.3046C98.2577 95.3046 105.239 88.3236 105.239 79.7121C105.239 71.1006 98.2577 64.1196 89.6462 64.1196C81.0347 64.1196 74.0537 71.1006 74.0537 79.7121C74.0537 88.3236 81.0347 95.3046 89.6462 95.3046Z" stroke="white" stroke-width="2" stroke-miterlimit="10" stroke-linecap="round"/>
<path d="M97.4011 81.1718C97.5968 80.1539 97.584 79.0919 97.3634 78.0748L98.6813 77.1684L97.7717 75.0436L96.2068 75.3717C95.6228 74.5102 94.8632 73.7674 93.9913 73.2067L94.2825 71.6362L92.1368 70.7771L91.2633 72.1142C90.2414 71.9169 89.1842 71.9298 88.1663 72.1519L87.2607 70.8349L85.1359 71.7445L85.4639 73.3094C84.6016 73.8934 83.8597 74.653 83.299 75.5249L81.7276 75.2345L80.8686 77.3802L82.2057 78.2545C82.01 79.2724 82.0228 80.3344 82.2434 81.3515L80.9263 82.2571L81.8367 84.3819L83.4009 84.0539C83.9848 84.9153 84.7444 85.6581 85.6163 86.2188L85.3252 87.7894L87.4708 88.6484L88.3443 87.3113C89.3655 87.5086 90.4227 87.495 91.4413 87.2736L92.3469 88.5907L94.4718 87.6811L94.1437 86.1161C95.0052 85.5322 95.748 84.7726 96.3086 83.9007L97.8792 84.191L98.7383 82.0453L97.4011 81.1718Z" fill="white"/>
<defs>
<linearGradient id="paint0_linear" x1="22.967" y1="-25.5486" x2="10.0417" y2="202.072" gradientUnits="userSpaceOnUse">
<stop stop-color="#8942FF"/>
<stop offset="1" stop-color="#3AF3FF"/>
</linearGradient>
</defs>
</svg>
