<svg width="136" height="136" viewBox="0 0 136 136" fill="none" xmlns="http://www.w3.org/2000/svg">
<path d="M43.5887 69.3728C44.0317 67.7763 43.6204 66.8755 42.2289 65.9508C35.6748 61.6068 37.7202 63.0647 31.2637 58.5828C28.3083 56.3292 23.12 52.2691 20.0972 49.8707C18.3633 48.4962 15.8184 47.2028 16.5437 44.4961C16.9781 42.8748 20.885 42.5122 22.1413 42.3268C27.3463 41.5662 46.6405 41.3293 50.3875 41.2519C53.2959 41.1885 54.1628 41.1821 55.1706 38.4691C57.239 32.9304 62.7491 15.2554 64.6979 12.429C66.2884 10.1183 69.3269 10.1643 71.1755 12.3003C73.2726 14.7266 86.7697 35.3319 88.869 38.5717C89.8899 40.1429 91.0365 40.905 93.0032 40.8727C99.9907 40.7388 117.889 41.3508 119.842 41.6506C120.995 41.8251 122.148 42.0224 123.314 42.1185C124.487 42.2165 125.684 42.0823 126.84 42.2726C128.649 42.5711 130.561 42.8297 130.977 45.1859C131.388 47.5036 130.431 49.8276 128.528 51.0106C125.814 52.6996 123.012 54.2906 120.441 56.1821C117.065 58.6707 113.911 61.4351 110.614 64.0268C107.759 66.2675 104.797 68.3746 101.965 70.6438C98.3905 73.5043 97.6255 75.1414 99.66 79.9822C100.981 83.1253 102.275 86.2835 103.413 89.4822C105.725 95.9784 111.835 112.262 112.442 113.961C113.559 117.102 110.448 120.668 107.307 119.476C104.296 118.334 92.6893 108.915 89.5696 106.17C86.1529 103.173 82.6948 100.218 79.2781 97.2221C77.3299 95.5143 74.8993 95.579 72.7368 96.9087C68.0879 99.7573 63.3082 102.414 58.5513 105.1C56.1469 106.454 53.6885 107.727 51.2215 108.975C47.008 111.105 42.8068 113.246 38.5274 115.254C35.3415 116.749 33.2606 115.282 33.0666 111.814C32.7811 106.734 37.7187 91.6199 38.5055 88.6836C38.4488 88.6684 41.7952 75.7832 43.5887 69.3728Z" fill="url(#paint0_linear)"/>
<path d="M64.0298 58.357V55.6497C64.0298 50.8856 67.4836 47.0098 71.7297 47.0098C75.9758 47.0098 79.4297 50.8856 79.4297 55.6497V58.357" stroke="white" stroke-width="2" stroke-miterlimit="10" stroke-linecap="round"/>
<path d="M81.6761 58.3569H81.2929H78.2987H64.3531H61.3589H60.9757C59.5347 58.3569 58.3566 59.5116 58.3566 60.924V76.0528C58.3566 77.4652 59.5347 78.6199 60.9757 78.6199H81.6741C83.1151 78.6199 84.2932 77.4652 84.2932 76.0528V60.924C84.2952 59.5136 83.1171 58.3569 81.6761 58.3569Z" fill="white"/>
<defs>
<linearGradient id="paint0_linear" x1="18.9303" y1="-21.0583" x2="8.27652" y2="166.557" gradientUnits="userSpaceOnUse">
<stop stop-color="#8942FF"/>
<stop offset="1" stop-color="#3AF3FF"/>
</linearGradient>
</defs>
</svg>
