<svg width="98" height="99" viewBox="0 0 98 99" fill="none" xmlns="http://www.w3.org/2000/svg">
<path d="M41.7414 28.8416C43.2163 28.8546 43.8961 28.2962 44.3706 26.8938C46.5957 20.2904 45.8134 22.3747 48.1796 15.8233C49.4365 12.7781 51.7322 7.40844 53.0981 4.27235C53.8804 2.4738 54.4062 0 56.9007 0C58.3948 0 59.6068 3.25946 60.0557 4.29183C61.9089 8.57068 66.558 25.0238 67.4878 28.2118C68.2124 30.6856 68.4176 31.4258 70.9826 31.6661C76.2217 32.166 92.6891 32.8283 95.5683 33.8477C97.9217 34.6788 98.5822 37.2889 97.1714 39.3602C95.5683 41.7106 80.9605 57.9819 78.6584 60.5207C77.5427 61.7543 77.1515 62.9101 77.6324 64.5853C79.3574 70.5328 82.9548 85.986 83.1472 87.7261C83.2626 88.752 83.3588 89.7844 83.5448 90.8038C83.7308 91.8297 84.1219 92.8231 84.2245 93.8554C84.3848 95.4722 84.6029 97.1668 82.6727 98.0629C80.7746 98.9459 78.5558 98.6602 77.1002 97.3032C75.0225 95.3683 73.009 93.336 70.7903 91.5699C67.8726 89.2519 64.7689 87.1872 61.7806 84.9601C59.1964 83.0317 56.7019 80.9799 54.0984 79.0775C50.8152 76.6751 49.2313 76.3959 45.5377 79.2463C43.1394 81.0968 40.7219 82.9278 38.2338 84.6355C33.1807 88.1027 20.5865 97.0629 19.2655 97.972C16.8223 99.6471 13.0389 97.8032 13.3403 94.8424C13.6289 92.005 19.0539 79.9151 20.6955 76.6167C22.4846 73.0066 24.2288 69.3706 26.0179 65.7605C27.0375 63.7022 26.4219 61.6375 24.7803 60.0921C21.2598 56.7678 17.874 53.2876 14.4689 49.8333C12.7503 48.0867 11.0895 46.2752 9.44789 44.4507C6.64561 41.334 3.83692 38.2304 1.12441 35.0294C-0.895539 32.6465 -0.113208 30.5298 2.82374 29.5688C7.12655 28.1599 21.2598 28.9195 23.9659 28.9195C23.9659 28.8676 35.8163 28.7767 41.7414 28.8416Z" fill="url(#paint0_linear)"/>
<path d="M65.9969 58.9312C64.0172 64.6796 59.3754 68.4054 53.2598 69.1541" stroke="white" stroke-width="2" stroke-miterlimit="10" stroke-linecap="round"/>
<path d="M36 50.6118C37.1012 43.0607 43.7649 37.3657 51.5 37.3657C59.2351 37.3657 65.8996 43.0607 67 50.6118" stroke="white" stroke-width="2" stroke-miterlimit="10" stroke-linecap="round"/>
<path d="M37.9064 59H35.0936C33.9391 59 33 58.1829 33 57.1774V49.8226C33 48.8181 33.9391 48 35.0936 48H37.9064C39.0609 48 40 48.8171 40 49.8226V57.1774C40.0012 58.1829 39.0609 59 37.9064 59Z" fill="white"/>
<path d="M68.2082 58.8467H65.7972C64.8057 58.8467 64 58.04 64 57.0495V49.7982C64 48.8067 64.8067 48 65.7972 48H68.2082C69.1997 48 70.0054 48.8067 70.0054 49.7982V57.0495C70.0054 58.04 69.1987 58.8467 68.2082 58.8467Z" fill="white"/>
<path d="M52.2602 71.3973H50.8427C49.6577 71.3973 48.6938 70.4111 48.6938 69.1982C48.6938 67.9862 49.6577 67 50.8427 67H52.2602C53.4452 67 54.4091 67.9862 54.4091 69.1982C54.4091 70.4111 53.4452 71.3973 52.2602 71.3973Z" fill="white"/>
<rect x="46" y="49" width="12" height="9" rx="2" fill="white"/>
<path d="M48 60.5V58H53L48 60.5Z" fill="white"/>
<defs>
<linearGradient id="paint0_linear" x1="113.818" y1="-12.9862" x2="-49.8899" y2="21.2358" gradientUnits="userSpaceOnUse">
<stop stop-color="#8942FF"/>
<stop offset="1" stop-color="#3AF3FF"/>
</linearGradient>
</defs>
</svg>
