<svg width="110" height="138" viewBox="0 0 110 138" fill="none" xmlns="http://www.w3.org/2000/svg">
<path fill-rule="evenodd" clip-rule="evenodd" d="M57.658 5.49466C58.6235 9.34326 59.5475 12.8173 59.537 16.6036C59.4756 16.9187 59.3329 17.218 59.1224 17.4733C58.9118 17.7285 58.6405 17.9313 58.3339 18.0623C56.9031 18.6569 56.7901 17.7234 56.6163 16.7251C56.0181 13.2864 55.463 9.9985 54.4681 6.61287C53.5713 3.62407 57.0993 4.05185 57.658 5.49466ZM36.1435 12.214C37.5145 15.7579 39.7621 19.0702 41.1623 22.689C42.2675 25.5455 39.9139 26.0755 38.4651 23.7674C36.5542 20.7174 35.2379 16.9073 33.0249 13.9717C31.6871 11.5807 35.0605 10.3235 36.1397 12.2006L36.1435 12.214ZM78.931 3.18023C78.6605 5.16877 77.819 7.09773 77.7521 9.09829C77.5837 10.6629 77.9152 12.361 77.5451 13.9203C76.9538 16.3878 75.1173 15.9812 74.7071 13.7923C74.0445 10.2497 74.8438 6.45001 75.7033 2.80682C76.3971 -0.150678 79.3137 0.373006 78.9329 3.18694L78.931 3.18023ZM23.1069 36.1507C26.7597 38.1594 24.6695 40.1494 21.4441 38.707C19.1565 37.1123 15.9509 35.4697 14.1363 32.8646C12.2542 30.1713 14.6144 29.5295 16.4191 30.8755C18.9745 32.7874 20.0321 34.4811 23.1069 36.1507ZM88.1353 18.5235C90.9673 16.3961 93.7137 12.9459 96.3904 10.7728C98.5557 9.01869 100.695 11.2935 98.4859 12.8531C95.6516 14.919 92.3423 18.0692 89.4818 20.1106C87.9437 21.2187 85.2827 20.6465 88.1305 18.5068L88.1353 18.5235ZM89.5155 38.8315C90.6718 45.151 89.2013 52.0546 87.108 58.5968C84.5543 66.5844 82.0988 72.3711 83.1562 80.9832C83.7921 86.1551 85.5226 91.293 88.2333 95.3505C90.145 94.4454 91.6781 93.8182 93.3553 93.0756C96.7968 91.5589 99.1331 95.2893 96.1426 97.5221C90.72 101.572 82.5714 105.374 76.5138 109.707C83.0121 107.575 88.7382 107.091 94.9283 105.079C98.6003 103.885 100.364 107.819 96.1328 109.818C91.1971 112.165 83.9769 115.5 79.1697 118.512L96.937 116.279C99.6957 115.927 102.112 117.338 98.9354 119.392C96.4116 121.023 91.626 123.129 89.9867 124.272C90.2702 125.762 90.2173 127.312 89.8315 128.818C89.4457 130.324 88.7359 131.751 87.7497 133.004C84.2558 137.461 79.563 138.787 74.6897 136.574C73.7 136.156 72.871 135.465 72.3005 134.584C70.4971 135.315 68.9335 136.267 67.9063 134.746C66.9606 133.35 67.9813 132.249 69.579 131.404C73.4602 129.352 77.3531 127.099 81.133 124.707C83.1427 123.445 85.0249 122.073 87.1527 121.023C79.8178 121.412 69.7372 125.24 62.1828 127.258C60.2321 127.784 58.6969 127.179 58.2288 126.201C57.8234 125.335 58.2018 123.792 60.0256 123.226C64.6885 122.037 68.0001 120.295 72.2974 118.191C76.518 116.115 80.7316 114.042 84.3969 111.437C75.7474 113.931 66.2441 116.05 58.8543 120.353C57.8738 120.666 56.8483 120.403 56.4655 119.764C55.9742 118.947 56.3523 117.605 57.3281 117.236C58.9041 116.368 60.2914 115.648 62.3562 114.511C69.2165 110.739 75.387 106.25 81.9858 102.074C81.9573 101.955 81.8819 101.854 81.7752 101.791C81.6685 101.728 81.5387 101.709 81.4123 101.737C73.7432 104.121 67.2219 108.393 59.6997 110.671C58.2831 111.1 55.3 112.255 54.2165 111.224C52.3845 109.473 53.3524 107.475 55.7315 106.845C57.1855 106.467 58.8319 106.491 60.3124 105.855C59.8987 103.895 59.3368 101.974 58.6312 100.109C55.5071 91.8731 51.1513 87.7687 42.737 84.7189C33.1755 81.2369 23.3569 77.7709 20.8685 67.0206C18.9224 58.6111 21.1783 51.5745 25.8938 45.3607C34.7798 33.6518 52.7414 23.6041 67.6206 23.4099C78.8693 23.2632 87.4996 27.7954 89.5155 38.8315ZM86.275 41.078C86.7608 45.0832 86.402 49.1887 85.22 53.1505C85.5678 46.0483 84.866 36.9169 79.6385 31.5133C76.5647 28.3397 72.0774 26.7906 67.5843 26.3519C70.9389 26.0973 74.2643 26.592 77.3025 27.7975C83.0527 30.17 85.5061 35.1985 86.275 41.078ZM78.0364 40.043C78.5097 45.252 77.5911 50.4652 76.726 55.6504C75.6829 61.8143 74.7467 67.9624 75.6883 74.2442C76.3693 82.6029 78.1227 90.1628 80.0132 98.4583C77.1122 99.8671 74.1395 101.118 71.1097 102.205C67.288 87.6387 60.3811 72.7528 47.0866 64.0608C48.0175 64.046 49.0342 64.143 50.0164 64.079C51.9665 63.9409 53.7254 63.1613 53.0571 60.9449C52.8 60.2858 52.5966 59.6057 52.4486 58.9106C56.5075 59.2169 58.4079 61.1397 58.9886 55.2695C60.0105 56.4075 61.4662 56.6537 62.9862 54.9038C65.9722 70.1272 68.3596 83.0279 72.6104 97.6547C73.1769 99.7573 77.3976 99.4047 76.2279 95.8113C74.1926 89.5668 72.6388 83.2567 71.1703 76.9085C69.2708 68.6488 65.6068 58.0132 66.3108 49.4512C66.9165 45.3511 63.8902 45.6013 62.2672 47.8121C61.4966 48.8587 60.9694 50.5009 60.4282 51.6903C60.0375 51.6488 59.6719 51.5048 59.3702 51.2736C56.5122 49.4471 54.4949 50.898 54.8292 53.8172L55.0597 55.8621C53.8669 55.876 52.6533 55.2381 51.4209 55.0196C48.746 54.547 47.9575 55.881 48.6165 58.0785C49.7633 61.8877 48.2585 61.6315 44.5265 60.7455C43.4817 60.4965 42.4686 60.2777 41.4866 60.477C38.9955 60.9703 38.4091 63.1728 40.8313 64.1613C47.5191 67.1755 52.4754 71.9264 56.3917 77.4549C61.1039 84.0982 66.7798 95.6736 66.495 103.992C66.158 104.152 65.8016 104.266 65.4369 104.329C61.4419 91.432 50.6763 82.4322 37.81 77.3647C35.9204 76.6238 34.0459 76.178 32.3482 75.1125C34.3599 75.2036 35.971 73.476 33.5014 72.51C29.724 71.0348 28.8382 68.3132 28.1285 64.3905C27.7412 62.234 27.7125 60.012 28.0434 57.8066C28.8301 52.4818 30.6778 48.4324 33.395 45.0684C39.7359 37.2175 51.8284 31.179 61.7619 29.7974C70.6439 28.5605 77.1956 30.8425 78.0364 40.043ZM12.0045 56.0982C13.0519 56.0433 14.0911 56.1602 15.078 56.4439C16.9715 57.1177 16.5856 58.8906 14.5498 59.173C11.1448 59.6464 4.91012 58.5403 1.87104 57.3861C-1.16804 56.2319 0.625697 54.5376 2.44725 54.7039C3.51364 54.7996 5.16916 55.3005 6.19113 55.6043C8.46996 56.2799 9.70614 56.135 12.0045 56.0982ZM97.0969 31.0392C99.3175 29.3845 101.651 28.7841 104.332 28.4572C107.779 28.0364 106.581 30.2655 105.323 30.388C103.134 30.9279 100.461 31.2447 98.4647 32.378C96.9769 33.2177 94.9391 32.6446 97.0969 31.0392ZM79.1 67.1176C78.6068 60.8429 81.5272 53.613 81.6365 46.8209C82.2993 53.6891 80.661 60.3827 79.1 67.1176ZM24.8166 61.8781C24.0115 63.9344 25.5906 69.5523 27.0079 70.0412C25.8533 69.004 24.6561 63.6048 24.8166 61.8781ZM14.7255 76.2097C11.662 77.2987 7.81515 78.959 4.94984 79.5568C3.69304 79.818 2.43575 78.8391 3.37595 77.7531C3.68522 77.4328 4.06637 77.1858 4.48635 77.0337C5.35824 76.7252 6.24528 76.4659 7.14283 76.2573C7.81777 76.0606 8.49976 75.8618 9.17696 75.6461C10.9864 75.0699 12.5296 73.9127 14.3219 73.4517C16.8628 72.7962 17.5204 75.2173 14.7255 76.2097ZM107.672 50.1825C109.973 50.8401 109.225 52.0477 107.169 52.0551C104.616 52.0631 100.864 51.3226 98.3792 50.5332C97.37 50.207 96.5864 49.7139 97.1532 48.9371C97.5017 48.4602 98.4117 48.1704 99.4222 48.434C102.135 49.0519 105.023 49.4348 107.666 50.1993L107.672 50.1825ZM24.1224 88.4441C23.5661 88.9615 17.2378 93.8816 15.796 94.9224C14.1983 96.0641 11.8337 95.1561 13.9187 92.9593C16.207 90.5586 19.3165 88.9574 21.8468 86.7029C23.8935 84.8841 26.2385 86.4642 24.1205 88.4374L24.1224 88.4441ZM97.0728 72.3333C95.3371 71.5653 93.459 70.7438 91.8128 69.9254C90.1665 69.1069 91.4669 67.8002 92.9733 68.0083C95.1022 68.2795 97.0599 69.1707 98.5916 70.5655C99.8461 71.7904 98.8768 73.1381 97.0728 72.3333ZM37.1836 100.21C35.6263 101.332 34.5584 100.073 35.6208 98.513C36.4721 97.2505 36.8015 95.9126 37.9543 94.8029C38.4291 94.337 38.9763 93.9762 39.4375 94.0415C39.9949 94.1201 40.0629 94.7753 39.9317 95.5415C39.6307 97.3019 38.7175 99.1147 37.1855 100.217L37.1836 100.21ZM84.2879 96.5044C83.1483 94.0953 82.2935 91.5567 81.739 88.9344C82.4859 90.7124 83.9527 94.6722 84.9655 96.2631L84.2985 96.5011L84.2879 96.5044ZM84.9902 127.861C84.9744 129.01 84.6452 130.152 84.0358 131.172C82.5719 133.563 80.1235 135.107 77.5254 133.611C77.2307 133.442 76.6425 133.08 76.5485 132.752C79.481 131.298 82.1707 129.535 84.9921 127.868L84.9902 127.861Z" fill="white"/>
</svg>
